<?xml version="1.0" standalone="no"?>
<!DOCTYPE svg PUBLIC "-//W3C//DTD SVG 1.1//EN" "http://www.w3.org/Graphics/SVG/1.1/DTD/svg11.dtd" >
<svg xmlns="http://www.w3.org/2000/svg">
<metadata>
Created by FontPrep 20130207 at Wed Aug 19 03:02:37 2015
 By Lucas Germano
Copyright (c) 2004 Linotype Library GmbH, www.linotype.com. All rights reserved. This software may not be reproduced, used, displayed, modified, disclosed or transferred without the express written approval of Linotype Library GmbH. Avenir is a trademark of Heidelberger Druckmaschinen AG, exclusively licensed through Linotype Library GmbH, and may be registered in certain jurisdictions. This typeface is original artwork of Adrian Frutiger and Akira Kobayashi. The design may be protected in certain jurisdictions.
</metadata>
<defs>
<font id="916765bc6bf35119f659aa59b7517b13" horiz-adv-x='1024' >
  <font-face 
    font-family="AvenirNextLTPro-DemiIt"
    font-weight="600"
    font-style="italic"
    font-stretch="normal"
    units-per-em="2048"
    panose-1="2 11 7 4 2 2 2 2 2 4"
    ascent="1548"
    descent="-500"
    x-height="983"
    cap-height="1450"
    bbox="-545 -512 2423 1958"
    underline-thickness="102"
    underline-position="-102"
    slope="-12"
    unicode-range="U+000D-FB02"
  />
<missing-glyph horiz-adv-x="1048" 
d="M1049 1470v-1470h-1049v1470h1049zM946 102v1264h-844v-1264h844zM524 1145q-145 0 -168 -195l-102 17q14 141 88 211t186 70t185 -74q72 -74 71 -195q0 -70 -26 -123t-103 -122q-76 -68 -88 -108t-12 -147h-94l-4 35q1 115 29 169t92 118q63 59 82 94q20 35 20 93
t-46 107q-46 50 -110 50zM455 240v137h114v-137h-114z" />
    <glyph glyph-name="IJ" unicode="IJ" horiz-adv-x="1601" 
d="M934 -37q-170 0 -279 87t-127 231l236 67q8 -70 52 -116t112 -46q111 0 163 74t76 215l172 975h254l-174 -983q-49 -271 -172 -392q-49 -48 -130 -80t-183 -32zM303 0h-252l256 1450h252z" />
    <glyph glyph-name="ij" unicode="ij" horiz-adv-x="1103" 
d="M954 1462q60 0 100 -39t40 -101t-42 -106t-104 -45q-62 0 -102 38q-41 39 -41 103t45 107t104 43zM438 -492q-82 0 -131 13l47 205q27 -8 66 -9q80 -1 114 53t52 156l186 1057h242l-185 -1049q-30 -181 -112 -298q-45 -62 -121 -95t-158 -33zM397 1462q59 0 99 -39
t41 -101q0 -62 -42 -106q-41 -44 -103 -45q-62 0 -103 38q-41 39 -41 103t45 107t104 43zM283 0h-240l172 983h242z" />
    <glyph glyph-name="napostrophe" unicode="&#x22;n" horiz-adv-x="1267" 
d="M510 1450l-252 -399h-201l219 399h234zM1133 705q0 -51 -9 -93l-108 -612h-240l94 541q10 55 11 98q0 166 -162 166q-109 0 -179 -78t-89 -186l-97 -541h-239l135 772q20 102 31 211h225q-3 -39 -19 -154h5q115 180 319 181q156 0 239 -87t83 -218z" />
    <glyph glyph-name="fi" unicode="fi" horiz-adv-x="1230" 
d="M705 1368q-154 0 -195 -223l-29 -162h232l-35 -192h-227l-140 -791h-233l139 791h-186l32 192h183l28 150q84 440 445 440q72 0 121 -14l-52 -205q-43 14 -83 14zM1081 1462q59 0 99 -39t41 -101q0 -62 -42 -106q-41 -44 -103 -45q-62 0 -103 38q-41 39 -41 103t45 107
t104 43zM967 0h-240l172 983h242z" />
    <glyph glyph-name="fl" unicode="fl" horiz-adv-x="1228" 
d="M705 1368q-154 0 -195 -223l-29 -162h232l-35 -192h-227l-140 -791h-233l139 791h-186l32 192h183l28 150q84 440 445 440q72 0 121 -14l-52 -205q-43 14 -83 14zM967 0h-240l272 1548h240z" />
    <glyph glyph-name=".notdef" horiz-adv-x="1048" 
d="M1049 1470v-1470h-1049v1470h1049zM946 102v1264h-844v-1264h844zM524 1145q-145 0 -168 -195l-102 17q14 141 88 211t186 70t185 -74q72 -74 71 -195q0 -70 -26 -123t-103 -122q-76 -68 -88 -108t-12 -147h-94l-4 35q1 115 29 169t92 118q63 59 82 94q20 35 20 93
t-46 107q-46 50 -110 50zM455 240v137h114v-137h-114z" />
    <glyph glyph-name=".null" horiz-adv-x="1024" 
 />
    <glyph glyph-name=".null" horiz-adv-x="1024" 
 />
    <glyph glyph-name="nonmarkingreturn" horiz-adv-x="681" 
 />
    <glyph glyph-name="CR" unicode="&#xd;" horiz-adv-x="0" 
 />
    <glyph glyph-name="space" unicode=" " horiz-adv-x="512" 
 />
    <glyph glyph-name="exclam" unicode="!" horiz-adv-x="604" 
d="M381 148q0 -64 -44 -110q-43 -46 -107 -46t-107 40t-43 106t46 112q46 45 110 45t104 -41q41 -42 41 -106zM391 453h-239l176 997h239z" />
    <glyph glyph-name="quotedbl" unicode="&#x22;" horiz-adv-x="921" 
d="M412 911h-205l96 539h205zM772 911h-205l95 539h204z" />
    <glyph glyph-name="numbersign" unicode="#" horiz-adv-x="1208" 
d="M770 852h-215l-80 -254h213zM1153 852h-209l-80 -254h185l-29 -170h-205l-139 -428h-176l137 428h-215l-137 -428h-176l137 428h-187l31 170h207l82 254h-184l28 170h209l137 428h176l-135 -428h213l138 428h176l-138 -428h185z" />
    <glyph glyph-name="dollar" unicode="$" horiz-adv-x="1249" 
d="M1083 438q0 -190 -137 -316t-373 -142l-26 -152h-103l27 152q-135 6 -251 62t-177 161l197 139q40 -68 114 -112t154 -44l80 461q-346 109 -346 377q0 193 133 318t358 133l27 147h102l-26 -149q250 -23 354 -168l-182 -146q-80 106 -207 109l-76 -424q184 -72 271 -163
t87 -243zM686 610l-78 -424q104 6 166 66t64 148q0 88 -38 134t-114 76zM696 1266q-96 -6 -156 -60t-61 -151q0 -127 150 -178z" />
    <glyph glyph-name="percent" unicode="%" horiz-adv-x="1849" 
d="M1565 1436l-1121 -1504l-127 80l1121 1504zM1538 369q0 82 -42 129t-122 47q-80 1 -137 -63t-57 -146t41 -129t121 -47t139 63q57 64 57 146zM1315 -23q-143 -1 -237 91t-95 229q0 180 121 305t303 125q145 0 237 -89t91 -226q0 -184 -119 -310t-301 -125zM505 907
q81 -1 138 63t57 146t-42 129t-122 47t-136 -63q-58 -63 -58 -145t41 -130q41 -47 122 -47zM477 725q-143 0 -237 91t-95 228q0 180 121 306t303 125q145 1 237 -89t91 -227q0 -184 -119 -309t-301 -125z" />
    <glyph glyph-name="ampersand" unicode="&#x26;" horiz-adv-x="1513" 
d="M502 -29q-203 1 -326 101t-123 288q0 311 389 457q-92 129 -92 291t116 270t284 109q168 0 276 -90t107 -244q0 -243 -365 -403l193 -234l176 250h290l-323 -412l301 -354h-299l-143 182q-211 -211 -461 -211zM905 1138q0 74 -40 114q-39 40 -113 40t-125 -53t-51 -149
t81 -191q111 39 180 102q68 64 68 137zM303 381q0 -86 65 -141t154 -56q160 0 295 164l-254 309q-260 -90 -260 -276z" />
    <glyph glyph-name="quotesingle" unicode="'" horiz-adv-x="561" 
d="M412 911h-205l94 539h205z" />
    <glyph glyph-name="parenleft" unicode="(" horiz-adv-x="655" 
d="M45 358q0 612 481 1141l150 -110q-210 -231 -316 -501t-106 -528q0 -327 137 -589l-184 -88q-162 297 -162 675z" />
    <glyph glyph-name="parenright" unicode=")" horiz-adv-x="655" 
d="M596 825q0 -612 -481 -1140l-150 110q209 231 315 501t107 527q0 328 -137 590l184 88q162 -297 162 -676z" />
    <glyph glyph-name="asterisk" unicode="*" horiz-adv-x="946" 
d="M639 1450v-297l281 92l51 -153l-285 -93l178 -243l-133 -97l-178 246l-174 -239l-129 96l178 237l-287 99l52 153l284 -98v297h162z" />
    <glyph glyph-name="plus" unicode="+" horiz-adv-x="1363" 
d="M127 725h451v451h208v-451h451v-209h-451v-450h-208v450h-451v209z" />
    <glyph glyph-name="comma" unicode="," 
d="M367 279l-269 -539h-202l237 539h234z" />
    <glyph glyph-name="hyphen" unicode="-" horiz-adv-x="655" 
d="M532 401h-489l37 205h489z" />
    <glyph glyph-name="period" unicode="." 
d="M180 295q62 0 104 -41q42 -42 42 -106t-44 -110t-108 -46t-106 40q-43 40 -43 106t46 112q46 45 109 45z" />
    <glyph glyph-name="slash" unicode="/" horiz-adv-x="794" 
d="M940 1485l-917 -1581l-156 61l917 1583z" />
    <glyph glyph-name="zero" unicode="0" horiz-adv-x="1249" 
d="M731 1284q-109 0 -197 -117t-134 -296t-46 -373q0 -328 201 -328q104 0 190 117t133 296q46 179 46 373q0 328 -193 328zM752 1487q215 0 319 -139q105 -139 105 -335q1 -379 -138 -692q-70 -159 -198 -259q-129 -99 -301 -99q-219 0 -326 136q-106 136 -107 354
q0 293 91 546q49 139 120 246q72 106 185 174t250 68z" />
    <glyph glyph-name="one" unicode="1" horiz-adv-x="1249" 
d="M702 0h-241l205 1157l-328 -235l-115 184l502 344h233z" />
    <glyph glyph-name="two" unicode="2" horiz-adv-x="1249" 
d="M928 1096q0 84 -56 134q-56 52 -156 52q-99 0 -173 -60t-107 -171l-221 63q66 180 203 276q136 96 328 97t312 -105t120 -276q0 -104 -44 -194t-108 -156q-64 -64 -186 -166l-449 -369h639l-39 -221h-962l39 221l647 543q117 98 165 173t48 159z" />
    <glyph glyph-name="three" unicode="3" horiz-adv-x="1249" 
d="M543 852q334 0 334 256q1 78 -53 128t-144 50q-170 0 -260 -164l-180 109q145 256 460 256q176 1 296 -101t120 -262t-85 -250t-208 -118v-4q106 -25 172 -110t66 -196q0 -223 -151 -353t-390 -130q-176 0 -299 84t-170 236l228 71q47 -182 256 -182q133 0 205 68t71 186
q0 118 -89 176q-89 57 -220 57h-62l33 193h70z" />
    <glyph glyph-name="four" unicode="4" horiz-adv-x="1249" 
d="M698 510l123 684h-8l-539 -684h424zM1098 303h-199l-51 -303h-234l52 303h-676l39 223l759 924h308l-166 -940h205z" />
    <glyph glyph-name="five" unicode="5" horiz-adv-x="1249" 
d="M634 936q98 0 194 -40t166 -140q71 -100 71 -248q0 -260 -160 -402t-383 -143q-176 0 -306 82t-175 209l219 90q26 -78 94 -125t160 -47q141 0 222 86t81 218t-84 198t-203 65q-164 0 -325 -88l157 799h775l-43 -215h-557l-70 -317q69 18 167 18z" />
    <glyph glyph-name="six" unicode="6" horiz-adv-x="1249" 
d="M651 911q205 1 322 -117t117 -290q0 -227 -152 -384t-412 -157q-211 0 -347 120q-136 119 -136 325t207 460l475 582h293l-467 -549l2 -4q43 14 98 14zM287 418q-1 -124 73 -188t177 -64q141 0 225 88t84 216t-71 193t-167 64q-145 -1 -233 -93t-88 -216z" />
    <glyph glyph-name="seven" unicode="7" horiz-adv-x="1249" 
d="M1192 1229l-830 -1229h-301l867 1233h-697l37 217h963z" />
    <glyph glyph-name="eight" unicode="8" horiz-adv-x="1249" 
d="M726 1280q-96 0 -160 -64t-64 -156q0 -91 52 -140q52 -50 145 -50t163 62t70 156q0 96 -55 144t-151 48zM549 -37q-166 0 -295 85q-68 44 -109 125t-41 189q0 160 100 275t245 141v6q-78 39 -125 111t-48 162q0 207 140 319t324 111q182 0 302 -91q120 -92 119 -256
q0 -164 -84 -256t-207 -132l4 -7q94 -31 155 -113q60 -83 61 -190q0 -215 -153 -347t-388 -132zM856 432q0 110 -61 168t-176 59q-115 -1 -198 -77t-83 -190t66 -169t161 -55q137 0 214 77t77 187z" />
    <glyph glyph-name="nine" unicode="9" horiz-adv-x="1249" 
d="M610 539q-206 -1 -322 117t-116 290q0 227 152 384t411 157q211 0 347 -120q136 -119 136 -325t-206 -460l-475 -582h-293l467 549l-2 4q-43 -14 -99 -14zM975 1032q0 124 -74 188t-176 64q-141 0 -225 -88t-84 -216t70 -193t167 -64q145 0 234 92q88 93 88 217z" />
    <glyph glyph-name="colon" unicode=":" horiz-adv-x="614" 
d="M188 837q0 67 46 111t110 45q64 -1 104 -41q41 -40 41 -104t-44 -112q-44 -46 -107 -46t-107 40q-43 40 -43 107zM227 295q63 0 105 -41q42 -42 41 -106q0 -64 -44 -110q-43 -46 -107 -46t-107 40t-43 106t46 112q46 45 109 45z" />
    <glyph glyph-name="semicolon" unicode=";" horiz-adv-x="614" 
d="M188 837q0 67 46 111t110 45q64 -1 104 -41q41 -40 41 -104t-44 -112q-44 -46 -107 -46t-107 40q-43 40 -43 107zM406 279l-269 -539h-213l238 539h244z" />
    <glyph glyph-name="less" unicode="&#x3c;" horiz-adv-x="1363" 
d="M1200 86l-1036 461v147l1036 461v-225l-692 -309l692 -310v-225z" />
    <glyph glyph-name="equal" unicode="=" horiz-adv-x="1363" 
d="M164 541h1036v-209h-1036v209zM164 909h1036v-209h-1036v209z" />
    <glyph glyph-name="greater" unicode="&#x3e;" horiz-adv-x="1363" 
d="M164 1155l1036 -461v-147l-1036 -461v225l692 310l-692 309v225z" />
    <glyph glyph-name="question" unicode="?" horiz-adv-x="1058" 
d="M487 295q63 0 105 -41q42 -42 41 -106q0 -64 -44 -110q-43 -46 -107 -46t-107 40t-43 106t46 112q46 45 109 45zM840 1104q0 164 -183 164q-94 0 -156 -62t-83 -153l-232 39q37 170 172 282q134 112 320 113q186 0 300 -87t114 -278q0 -121 -64 -209t-184 -173t-158 -130
q-37 -45 -49 -131l-8 -53h-236l13 80q14 98 56 163t134 138l106 84q41 31 66 55t48 66q24 43 24 92z" />
    <glyph glyph-name="at" unicode="@" horiz-adv-x="1638" 
d="M1012 837q0 121 -117 121q-90 0 -172 -112t-82 -231q0 -120 113 -119q102 0 180 110t78 231zM1116 328q-82 0 -124 39t-34 98h-8q-96 -137 -256 -137q-120 0 -188 64t-68 184t60 246q59 126 171 214t242 88q78 0 133 -32t64 -80h2l31 82h180l-150 -387q-43 -111 -43 -150
t12 -51t44 -12q104 0 178 126t74 304t-132 289q-132 110 -348 110q-309 0 -498 -212t-190 -501q0 -227 146 -355t408 -128q261 0 483 188l88 -120q-235 -231 -591 -231t-545 173q-189 174 -189 461q0 365 254 627t632 262q308 0 488 -152q180 -151 180 -411t-148 -428
t-358 -168z" />
    <glyph glyph-name="A" unicode="A" horiz-adv-x="1368" 
d="M913 551l-96 608l-366 -608h462zM1276 0h-268l-60 334h-620l-207 -334h-299l946 1450h219z" />
    <glyph glyph-name="B" unicode="B" horiz-adv-x="1323" 
d="M684 643h-274l-74 -430h252q150 0 246 60t96 188q0 86 -64 134t-182 48zM748 1241h-230l-69 -387h262q104 0 187 55t83 168q0 164 -233 164zM811 1450q172 0 297 -78t125 -229t-86 -247t-234 -134v-4q121 -18 196 -102t75 -207q0 -215 -169 -332t-450 -117h-514l256 1450
h504z" />
    <glyph glyph-name="C" unicode="C" horiz-adv-x="1394" 
d="M745 -37q-291 0 -469 172t-178 451q0 377 247 639t607 262q158 1 292 -61t202 -160l-199 -150q-39 62 -118 108t-185 46q-250 0 -417 -198t-167 -454q0 -186 111 -310t305 -124q233 1 383 187l162 -144q-209 -264 -576 -264z" />
    <glyph glyph-name="D" unicode="D" horiz-adv-x="1550" 
d="M604 221q287 0 450 173t163 417q0 184 -121 304t-355 120h-223l-178 -1014h264zM803 1450q262 0 459 -139q98 -70 157 -191t60 -276q0 -380 -250 -612t-635 -232h-543l256 1450h496z" />
    <glyph glyph-name="E" unicode="E" horiz-adv-x="1196" 
d="M1024 0h-973l256 1450h914l-39 -221h-668l-65 -375h636l-38 -213h-635l-74 -416h725z" />
    <glyph glyph-name="F" unicode="F" horiz-adv-x="1138" 
d="M1165 1229h-645l-71 -402h606l-37 -213h-606l-109 -614h-252l256 1450h897z" />
    <glyph glyph-name="G" unicode="G" horiz-adv-x="1515" 
d="M763 -37q-296 0 -480 172t-185 451q0 377 247 639t607 262q164 0 299 -56t215 -165l-198 -150q-113 154 -324 154q-250 0 -417 -198t-167 -454q0 -194 119 -314t326 -120q160 4 264 56l64 368h-312l41 219h555l-129 -749q-229 -115 -525 -115z" />
    <glyph glyph-name="H" unicode="H" horiz-adv-x="1492" 
d="M1221 0h-252l112 645h-663l-115 -645h-252l256 1450h252l-104 -588h665l105 588h252z" />
    <glyph glyph-name="I" unicode="I" horiz-adv-x="595" 
d="M303 0h-252l256 1450h252z" />
    <glyph glyph-name="J" unicode="J" horiz-adv-x="1024" 
d="M356 -37q-170 0 -278 87t-127 231l235 67q8 -70 52 -116t112 -46q111 0 163 74t77 215l172 975h254l-174 -983q-49 -271 -172 -392q-49 -48 -130 -80t-184 -32z" />
    <glyph glyph-name="K" unicode="K" horiz-adv-x="1323" 
d="M1253 0h-329l-490 729h-6l-127 -729h-250l256 1450h250l-115 -643h7l653 643h340l-752 -684z" />
    <glyph glyph-name="L" unicode="L" horiz-adv-x="1046" 
d="M924 0h-873l256 1450h252l-217 -1225h621z" />
    <glyph glyph-name="M" unicode="M" horiz-adv-x="1884" 
d="M1614 0h-250l209 1169h-6l-654 -1169h-176l-235 1169h-4l-207 -1169h-240l256 1450h393l197 -1038h4l567 1038h400z" />
    <glyph glyph-name="N" unicode="N" horiz-adv-x="1613" 
d="M1294 0h-313l-475 1126h-4l-199 -1126h-252l256 1450h328l467 -1092h4l192 1092h252z" />
    <glyph glyph-name="O" unicode="O" horiz-adv-x="1697" 
d="M797 184q261 0 415 195t154 457q0 186 -117 310t-321 124q-252 0 -411 -197t-159 -455q0 -186 117 -310t322 -124zM940 1487q310 0 498 -169t188 -460q0 -244 -106 -448t-296 -326q-190 -121 -427 -121q-322 0 -510 169t-189 460q0 373 243 634t599 261z" />
    <glyph glyph-name="P" unicode="P" horiz-adv-x="1247" 
d="M637 815q346 0 346 227q0 109 -73 152t-205 43h-185l-76 -422h193zM743 1450q236 0 365 -100t129 -281q0 -239 -163 -353t-447 -114h-219l-107 -602h-250l256 1450h436z" />
    <glyph glyph-name="Q" unicode="Q" horiz-adv-x="1677" 
d="M1331 852q0 182 -108 300q-109 118 -301 118q-248 0 -407 -190t-159 -439q0 -180 111 -300t303 -120q240 -1 400 189t161 442zM1589 879q0 -446 -342 -670v-4h352l-36 -205h-799q-299 0 -482 166t-184 448q0 367 240 620t586 253q301 1 483 -163t182 -445z" />
    <glyph glyph-name="R" unicode="R" horiz-adv-x="1277" 
d="M631 825q346 0 346 224q0 102 -72 145t-207 43h-182l-74 -412h189zM737 1450q238 0 369 -99t131 -273q1 -174 -101 -282q-102 -110 -280 -149l301 -647h-285l-274 618h-192l-107 -618h-248l256 1450h430z" />
    <glyph glyph-name="S" unicode="S" horiz-adv-x="1175" 
d="M713 1278q-95 0 -181 -56t-86 -167q0 -72 50 -117t151 -82q201 -74 298 -173t97 -257t-86 -266q-156 -197 -475 -197q-153 1 -289 61t-210 175l204 141q41 -74 125 -119t192 -45q109 0 191 57t82 162t-67 160q-69 55 -209 105t-225 136t-85 240q0 209 161 330t388 121
q117 1 232 -49t178 -140l-184 -147q-82 127 -252 127z" />
    <glyph glyph-name="T" unicode="T" horiz-adv-x="1091" 
d="M1204 1229h-426l-217 -1229h-252l215 1229h-430l39 221h1110z" />
    <glyph glyph-name="U" unicode="U" horiz-adv-x="1462" 
d="M672 -37q-260 0 -405 122q-144 122 -144 331q0 66 10 116l162 918h252l-160 -907q-8 -39 -8 -94q0 -115 71 -190t216 -75q313 0 378 359l160 907h254l-162 -918q-48 -268 -206 -418t-418 -151z" />
    <glyph glyph-name="V" unicode="V" horiz-adv-x="1312" 
d="M1489 1450l-881 -1450h-233l-236 1450h267l145 -1122h8l645 1122h285z" />
    <glyph glyph-name="W" unicode="W" horiz-adv-x="2017" 
d="M2161 1450l-703 -1450h-246l-133 1096h-4l-549 -1096h-245l-136 1450h267l71 -1073h4l525 1073h262l112 -1073h5l501 1073h269z" />
    <glyph glyph-name="X" unicode="X" horiz-adv-x="1292" 
d="M1163 0h-286l-236 575l-475 -575h-316l680 774l-294 676h278l201 -508l413 508h304l-607 -696z" />
    <glyph glyph-name="Y" unicode="Y" horiz-adv-x="1177" 
d="M1403 1450l-701 -821l-112 -629h-252l111 629l-363 821h283l241 -614l486 614h307z" />
    <glyph glyph-name="Z" unicode="Z" horiz-adv-x="1204" 
d="M1044 0h-1126l39 227l954 1002h-688l39 221h1018l-41 -227l-948 -998h794z" />
    <glyph glyph-name="bracketleft" unicode="[" horiz-adv-x="655" 
d="M326 -319h-389l319 1818h391l-29 -158h-184l-264 -1503h184z" />
    <glyph glyph-name="backslash" unicode="\" horiz-adv-x="796" 
d="M6 1487l170 65l639 -1589l-170 -61z" />
    <glyph glyph-name="bracketright" unicode="]" horiz-adv-x="655" 
d="M383 -319h-389l26 157h185l266 1503h-184l26 158h392z" />
    <glyph glyph-name="asciicircum" unicode="^" horiz-adv-x="1363" 
d="M383 702h-242l457 748h168l457 -748h-242l-301 490z" />
    <glyph glyph-name="underscore" unicode="_" horiz-adv-x="1024" 
d="M1024 -154v-153h-1024v153h1024z" />
    <glyph glyph-name="grave" unicode="`" 
d="M301 1450l203 -295h-185l-288 295h270z" />
    <glyph glyph-name="a" unicode="a" horiz-adv-x="1103" 
d="M680 451q-424 0 -424 -172q0 -123 160 -123q110 0 186 66t94 167l13 62h-29zM737 686q0 133 -182 133q-147 0 -285 -98l-92 162q176 127 403 127t331 -122q58 -69 59 -175q0 -39 -8 -92l-72 -400q-25 -152 -25 -221h-221q0 55 12 117h-4q-115 -137 -319 -137
q-125 0 -217 61t-92 199q-1 383 706 383q6 33 6 63z" />
    <glyph glyph-name="b" unicode="b" horiz-adv-x="1306" 
d="M950 557q0 111 -64 183t-177 73q-143 0 -243 -115t-101 -272q1 -112 69 -184t180 -72q150 0 243 112t93 275zM780 1010q188 0 302 -117t114 -307q0 -256 -154 -433t-387 -178q-113 1 -209 51t-143 140h-4l-29 -166h-227l272 1548h242l-135 -723h4q58 85 152 135t202 50z
" />
    <glyph glyph-name="c" unicode="c" horiz-adv-x="1007" 
d="M643 813q-150 0 -250 -114t-100 -269q0 -110 63 -184q64 -74 198 -74t241 111l137 -140q-174 -170 -396 -170t-351 118q-130 118 -130 308q0 248 168 429q167 182 429 182t366 -166l-172 -139q-27 45 -83 77t-120 31z" />
    <glyph glyph-name="d" unicode="d" horiz-adv-x="1298" 
d="M301 428q0 -112 65 -184t177 -72q143 0 243 115t101 272q0 113 -69 185t-181 71q-150 1 -243 -111t-93 -276zM55 399q0 255 154 433q153 178 395 178t336 -185h4l123 723h242l-275 -1548h-227l24 156h-6q-123 -180 -354 -181q-188 0 -302 117t-114 307z" />
    <glyph glyph-name="e" unicode="e" horiz-adv-x="1155" 
d="M823 639q0 82 -58 136t-166 54q-107 1 -189 -75t-101 -166h510q4 37 4 51zM285 393q1 -96 75 -161t183 -64q166 0 280 129l138 -129q-182 -197 -445 -197q-205 0 -333 117t-128 320q0 256 164 429t412 173q182 0 296 -102t113 -292q1 -100 -24 -200h-729q-2 -10 -2 -23z
" />
    <glyph glyph-name="f" unicode="f" horiz-adv-x="661" 
d="M705 1368q-154 0 -195 -223l-29 -162h232l-35 -192h-227l-140 -791h-233l139 791h-186l32 192h183l28 150q84 440 445 440q72 0 121 -14l-52 -205q-43 14 -83 14z" />
    <glyph glyph-name="g" unicode="g" horiz-adv-x="1294" 
d="M315 432q0 -112 65 -184t177 -72q143 0 244 115q100 115 100 270q-1 113 -69 185t-181 71q-150 -1 -243 -111t-93 -274zM620 1010q242 0 328 -176h6l25 149h229l-155 -899q-47 -281 -189 -428t-426 -148q-129 0 -262 48t-211 129l160 174q119 -141 303 -141t266 87
q82 88 117 252l16 78h-4q-117 -154 -338 -153q-188 0 -302 116t-113 305q0 256 153 432q155 175 397 175z" />
    <glyph glyph-name="h" unicode="h" horiz-adv-x="1196" 
d="M809 639q0 166 -162 166q-109 0 -179 -79t-91 -191l-94 -535h-240l272 1548h242l-125 -704h4q45 72 123 119t180 47q156 0 239 -87t83 -218q0 -51 -8 -93l-109 -612h-239l94 541q10 55 10 98z" />
    <glyph glyph-name="i" unicode="i" horiz-adv-x="546" 
d="M397 1462q59 0 99 -39t41 -101q0 -62 -42 -106q-41 -44 -103 -45q-62 0 -103 38q-41 39 -41 103t45 107t104 43zM283 0h-240l172 983h242z" />
    <glyph glyph-name="j" unicode="j" horiz-adv-x="546" 
d="M397 1462q59 0 99 -39t41 -101q0 -62 -42 -106q-41 -44 -103 -45q-62 0 -103 38q-41 39 -41 103t45 107t104 43zM-118 -492q-82 0 -132 13l47 205q27 -8 66 -9q79 -1 113 53t53 156l186 1057h242l-185 -1049q-30 -181 -112 -298q-45 -62 -121 -95q-75 -33 -157 -33z" />
    <glyph glyph-name="k" unicode="k" horiz-adv-x="1067" 
d="M985 0h-297l-309 504h-6l-90 -504h-240l272 1548h242l-174 -981h6l445 416h315l-522 -457z" />
    <glyph glyph-name="l" unicode="l" horiz-adv-x="546" 
d="M283 0h-240l272 1548h242z" />
    <glyph glyph-name="m" unicode="m" horiz-adv-x="1830" 
d="M791 649q0 158 -166 158q-90 0 -159 -79t-87 -187l-96 -541h-240l135 772q20 102 31 211h225q-4 -49 -18 -154h4q117 180 303 181q117 0 193 -54t102 -139q135 193 348 193q162 0 246 -86t84 -219q0 -51 -8 -93l-109 -612h-240l95 541q10 55 10 98q0 168 -164 168
q-106 0 -176 -81t-88 -189l-94 -537h-242l104 594q6 31 7 55z" />
    <glyph glyph-name="n" unicode="n" horiz-adv-x="1196" 
d="M1061 705q0 -51 -8 -93l-109 -612h-239l94 541q10 55 10 98q0 166 -162 166q-109 0 -179 -78t-89 -186l-96 -541h-240l135 772q20 102 31 211h225q-2 -39 -18 -154h4q115 180 319 181q156 0 239 -87t83 -218z" />
    <glyph glyph-name="o" unicode="o" horiz-adv-x="1236" 
d="M885 559q0 111 -69 183t-183 71q-150 0 -245 -114t-95 -273q1 -114 67 -184t183 -70q152 0 247 112t95 275zM530 -27q-207 0 -341 120t-134 308q0 250 166 429t428 180q209 0 343 -119t134 -307q0 -254 -166 -432t-430 -179z" />
    <glyph glyph-name="p" unicode="p" horiz-adv-x="1300" 
d="M944 553q0 111 -64 183t-178 73q-143 0 -243 -115t-101 -272q0 -112 69 -184t181 -72q150 0 243 112t93 275zM1190 582q0 -256 -154 -434t-396 -177q-242 0 -335 185h-4l-108 -648h-242l260 1475h227l-24 -158h6q123 180 354 181q188 0 302 -117t114 -307z" />
    <glyph glyph-name="q" unicode="q" horiz-adv-x="1294" 
d="M301 428q0 -112 65 -184t177 -72q143 0 243 115t101 272q0 113 -69 185t-181 71q-150 1 -243 -111t-93 -276zM55 399q0 255 154 433t387 178q111 0 207 -52t145 -143h4l29 168h227l-258 -1475h-241l120 648h-4q-123 -180 -354 -181q-188 0 -302 117t-114 307z" />
    <glyph glyph-name="r" unicode="r" horiz-adv-x="694" 
d="M412 819h4q115 190 289 191q35 0 59 -6l-33 -224q-116 30 -207 -18q-91 -47 -135 -162q-14 -37 -20 -74l-93 -526h-239l137 772q20 102 31 211h225q-4 -60 -18 -164z" />
    <glyph glyph-name="s" unicode="s" horiz-adv-x="909" 
d="M362 160q84 0 135 33q50 33 50 86t-37 81t-159 65q-123 38 -187 96t-64 165q0 140 122 232t306 92q252 0 355 -170l-187 -111q-61 96 -186 96q-72 1 -123 -27t-51 -80t37 -76t121 -48q145 -41 217 -110t71 -185q0 -156 -123 -246t-303 -90q-284 0 -405 197l186 123
q63 -123 225 -123z" />
    <glyph glyph-name="t" unicode="t" horiz-adv-x="696" 
d="M475 174q45 0 92 14l-14 -182q-66 -27 -150 -26q-287 0 -286 227q0 68 12 125l84 456h-174l35 195h170l49 287h237l-49 -287h221l-34 -195h-217l-86 -462q-6 -31 -7 -58q0 -94 117 -94z" />
    <glyph glyph-name="u" unicode="u" horiz-adv-x="1196" 
d="M72 279q0 51 8 92l108 612h240l-94 -541q-10 -55 -10 -98q0 -166 161 -166q109 0 180 78t89 186l96 541h240l-136 -772q-20 -102 -30 -211h-226q3 39 19 154h-4q-115 -180 -320 -181q-157 0 -239 87t-82 219z" />
    <glyph glyph-name="v" unicode="v" horiz-adv-x="1028" 
d="M1094 983l-584 -983h-258l-193 983h252l115 -721h4l410 721h254z" />
    <glyph glyph-name="w" unicode="w" horiz-adv-x="1607" 
d="M1679 983l-534 -983h-246l-88 694h-4l-367 -694h-245l-136 983h252l68 -707h4l352 707h252l80 -707h4l356 707h252z" />
    <glyph glyph-name="x" unicode="x" horiz-adv-x="1050" 
d="M924 0h-273l-182 352l-313 -352h-306l506 522l-264 461h264l160 -307l272 307h295l-450 -473z" />
    <glyph glyph-name="y" unicode="y" horiz-adv-x="1036" 
d="M39 -492q-68 0 -125 15l31 209q43 -14 98 -14t93 33q38 34 87 120l74 127l-221 985h258l127 -721h4l393 721h254l-696 -1196q-84 -147 -164 -213t-213 -66z" />
    <glyph glyph-name="z" unicode="z" horiz-adv-x="983" 
d="M803 0h-844l37 211l641 580h-500l33 192h793l-37 -211l-637 -575h549z" />
    <glyph glyph-name="braceleft" unicode="{" horiz-adv-x="655" 
d="M236 -319q-96 0 -158 53q-61 53 -62 153q0 31 7 64l69 389q14 86 -22 124q-37 38 -93 38l31 176q57 0 107 34q49 34 63 113l70 404q23 133 110 202q88 69 199 68h148l-29 -170h-113q-55 0 -79 -34t-35 -91l-68 -383q-18 -105 -94 -163t-146 -66v-4q61 -6 113 -47t51 -135
q0 -29 -6 -60l-66 -371q-25 -125 68 -125h113l-31 -169h-147z" />
    <glyph glyph-name="bar" unicode="|" horiz-adv-x="454" 
d="M123 1536h209v-2048h-209v2048z" />
    <glyph glyph-name="braceright" unicode="}" horiz-adv-x="655" 
d="M78 -150q92 0 112 125l66 371q24 134 111 192q65 44 131 50l2 4q-68 8 -123 65t-37 164l68 383q10 57 -2 91t-68 34h-111l29 170h150q94 0 155 -53t62 -154q0 -31 -7 -63l-69 -404q-13 -79 23 -113t92 -34l-31 -176q-55 0 -105 -37t-65 -125l-70 -389q-23 -131 -109 -201
t-198 -69h-150l31 169h113z" />
    <glyph glyph-name="asciitilde" unicode="~" horiz-adv-x="1363" 
d="M903 436q-119 0 -243 78t-195 78q-90 0 -160 -129l-158 133q127 211 314 211q121 0 246 -82q81 -51 113 -63t79 -13q92 0 160 129l158 -133q-127 -209 -314 -209z" />
    <glyph glyph-name="uni00A0" unicode="&#xa0;" horiz-adv-x="512" 
 />
    <glyph glyph-name="exclamdown" unicode="&#xa1;" horiz-adv-x="604" 
d="M471 873q0 -67 -46 -111q-45 -44 -109 -45q-64 1 -105 41t-41 104t44 112q44 46 108 46t106 -40q43 -40 43 -107zM160 559h239l-176 -997h-239z" />
    <glyph glyph-name="cent" unicode="&#xa2;" horiz-adv-x="1249" 
d="M375 430q0 -94 41 -164t129 -86l112 627q-123 -20 -203 -129t-79 -248zM801 1006q211 -20 299 -162l-172 -139q-49 84 -162 104l-113 -637q123 10 224 111l137 -140q-170 -168 -396 -170l-24 -143h-111l29 152q-172 26 -273 138t-102 279q0 236 155 413t400 196l23 135
h110z" />
    <glyph glyph-name="sterling" unicode="&#xa3;" horiz-adv-x="1249" 
d="M926 1286q-233 0 -287 -309l-29 -160h340l-30 -170h-336l-76 -432h543l-39 -215h-987l36 215h201l78 432h-201l29 170h197l30 170q25 140 84 237q60 97 118 147q135 116 348 116q214 0 333 -123l-148 -166q-68 88 -204 88z" />
    <glyph glyph-name="currency" unicode="&#xa4;" horiz-adv-x="1884" 
d="M944 940q-131 0 -214 -90t-83 -219t83 -219t215 -90t214 90t82 219t-83 219t-214 90zM1499 627q0 -184 -98 -318l190 -190l-45 -45q-28 -29 -52 -54t-46 -45q-66 63 -197 195q-133 -88 -303 -88t-313 92q-66 -68 -201 -199l-45 45q-29 29 -52 54q-24 25 -46 45l194 196
q-92 127 -92 311t88 314l-190 190q49 47 145 144l193 -191q139 95 317 95t311 -93l189 189q49 -47 145 -144l-184 -184q92 -135 92 -319z" />
    <glyph glyph-name="yen" unicode="&#xa5;" horiz-adv-x="1249" 
d="M1346 1450l-500 -655h287l-29 -158h-363l-28 -160h362l-26 -158h-359l-55 -319h-236l56 319h-365l27 158h360l27 160h-359l27 158h303l-291 655h267l217 -592l407 592h271z" />
    <glyph glyph-name="brokenbar" unicode="&#xa6;" horiz-adv-x="454" 
d="M123 358h209v-716h-209v716zM123 1382h209v-716h-209v716z" />
    <glyph glyph-name="section" unicode="&#xa7;" horiz-adv-x="1249" 
d="M872 551q0 119 -143 188l-172 84q-74 -16 -116 -66q-42 -51 -42 -113t36 -99t102 -66l198 -88q137 41 137 160zM1094 600q0 -215 -230 -303q94 -81 94 -189q0 -298 -298 -380q-79 -23 -192 -23q-114 1 -254 61t-189 171l204 116q29 -63 107 -101t158 -38q209 0 208 145
q0 80 -56 123q-56 42 -198 102t-206 130q-66 70 -66 188t73 200q73 83 173 113q-88 65 -88 177t44 188q78 135 265 185q79 22 183 22t212 -45t168 -127l-182 -141q-80 117 -236 116q-76 0 -140 -38t-64 -110t47 -108t183 -96q136 -59 208 -133t72 -205z" />
    <glyph glyph-name="dieresis" unicode="&#xa8;" 
d="M729 1324q0 -62 -40 -104t-101 -42t-101 36q-39 36 -39 100t44 105q43 41 102 41t97 -37t38 -99zM188 1460q60 0 98 -37t38 -99t-40 -104t-102 -42t-100 36q-39 36 -39 100t43 105t102 41z" />
    <glyph glyph-name="copyright" unicode="&#xa9;" horiz-adv-x="1638" 
d="M164 724q0 -271 192 -463q193 -191 464 -191t463 191q191 191 191 463t-190 464q-192 192 -464 192t-464 -192q-192 -193 -192 -464zM1597 724q0 -320 -227 -544t-550 -225q-323 1 -551 225t-228 544t228 546q228 225 551 225t550 -225q227 -226 227 -546zM602 722
q0 -112 72 -194t196 -82t191 78l119 -139q-111 -123 -319 -123t-342 122t-134 333t135 336t336 125q98 0 186 -38t140 -104l-129 -129q-31 37 -84 62t-113 24q-118 0 -186 -80q-68 -79 -68 -191z" />
    <glyph glyph-name="ordfeminine" unicode="&#xaa;" horiz-adv-x="778" 
d="M384 868q-102 0 -152 44t-50 116q0 121 100 175t302 54q4 12 4 38q0 55 -88 56t-166 -55l-62 105q113 80 233 80t176 -51t56 -132q0 -20 -8 -65l-37 -217q-10 -53 -10 -133h-139q0 22 6 61h-4q-59 -76 -161 -76zM559 1145q-229 0 -229 -90q0 -68 86 -68q57 0 98 36t51 89
l8 33h-14z" />
    <glyph glyph-name="guillemotleft" unicode="&#xab;" horiz-adv-x="1060" 
d="M492 506l391 459l137 -111l-305 -362l174 -359l-164 -94zM43 506l391 459l137 -111l-305 -362l174 -359l-164 -94z" />
    <glyph glyph-name="logicalnot" unicode="&#xac;" horiz-adv-x="1363" 
d="M1028 301v399h-901v209h1110v-608h-209z" />
    <glyph glyph-name="uni00AD" unicode="&#xad;" horiz-adv-x="655" 
d="M532 401h-489l37 205h489z" />
    <glyph glyph-name="registered" unicode="&#xae;" horiz-adv-x="1228" 
d="M784 1116q0 25 -22 38q-23 13 -49 13h-78v-110h78q29 0 50 17t21 42zM635 950v-196h-146v532h230q91 0 155 -40t64 -128q0 -53 -30 -91t-77 -54l136 -219h-170l-103 196h-59zM1090 1011q0 163 -115 279t-278 115q-163 0 -279 -116q-116 -117 -115 -279q0 -162 116 -277
q117 -115 279 -115t277 115t115 278zM1163 1012q0 -192 -136 -326t-330 -135q-195 0 -331 134t-136 326q0 191 136 327q138 136 332 136t329 -135q136 -135 136 -327z" />
    <glyph glyph-name="macron" unicode="&#xaf;" 
d="M694 1219h-649l27 157h651z" />
    <glyph glyph-name="degree" unicode="&#xb0;" horiz-adv-x="819" 
d="M311 1147q0 -70 49 -119t119 -49t119 49t49 119t-49 119t-119 49t-119 -49t-49 -119zM152 1147q0 135 96 231t231 96t231 -96t97 -231q0 -135 -96 -231q-95 -96 -231 -97q-136 1 -232 97t-96 231z" />
    <glyph glyph-name="plusminus" unicode="&#xb1;" horiz-adv-x="1363" 
d="M164 66v208h1036v-208h-1036zM586 883v293h196v-293h418v-209h-418v-293h-196v293h-422v209h422z" />
    <glyph glyph-name="twosuperior" unicode="&#xb2;" horiz-adv-x="819" 
d="M540 1468q114 0 191 -63q76 -63 76 -165t-44 -164q-44 -64 -157 -152l-233 -183h342l-31 -161h-571l28 157l377 310q119 98 119 176q-1 96 -109 96t-147 -121l-160 45q83 225 319 225z" />
    <glyph glyph-name="threesuperior" unicode="&#xb3;" horiz-adv-x="819" 
d="M406 1106q176 0 176 137q0 86 -97 86q-49 0 -79 -19t-60 -73l-133 78q96 162 285 162q120 0 188 -69t68 -155t-46 -142t-118 -73q61 -20 96 -68t35 -108q0 -141 -92 -218q-91 -77 -217 -77q-241 0 -308 201l164 49q27 -96 133 -96q70 0 107 35t37 93t-44 89t-118 31h-47
l22 137h48z" />
    <glyph glyph-name="acute" unicode="&#xb4;" 
d="M788 1450l-337 -295h-191l256 295h272z" />
    <glyph glyph-name="mu" unicode="&#xb5;" horiz-adv-x="1175" 
d="M139 983h246v-498q0 -204 80 -261q39 -28 100 -27q115 1 170 71t56 178v537h245v-983h-233v158h-4q-84 -182 -281 -183q-92 0 -133 50v-492h-246v1450z" />
    <glyph glyph-name="paragraph" unicode="&#xb6;" horiz-adv-x="1228" 
d="M686 1450h549l-301 -1708h-182l276 1563h-221l-277 -1563h-182l168 948q-176 0 -278 85t-103 224q0 213 159 342q58 47 160 78t232 31z" />
    <glyph glyph-name="periodcentered" unicode="&#xb7;" 
d="M266 756q62 0 104 -41t42 -105t-44 -111q-44 -46 -108 -46t-106 40q-43 41 -43 107t46 111t109 45z" />
    <glyph glyph-name="cedilla" unicode="&#xb8;" 
d="M360 -283q0 -109 -91 -159t-213 -50t-214 54l56 98q72 -41 159 -41q133 0 133 84q0 74 -96 74q-41 0 -82 -13l-37 52l160 184h117l-117 -133q18 4 41 4q70 0 127 -37t57 -117z" />
    <glyph glyph-name="onesuperior" unicode="&#xb9;" horiz-adv-x="819" 
d="M524 571h-190l117 654l-172 -125l-84 125l317 225h166z" />
    <glyph glyph-name="ordmasculine" unicode="&#xba;" horiz-adv-x="778" 
d="M448 872q-134 0 -210 73t-76 179q0 158 100 256t234 98t212 -69q77 -70 76 -182q0 -163 -100 -259t-236 -96zM618 1198q0 134 -132 135q-64 0 -110 -55q-46 -54 -46 -122q0 -136 129 -136q67 0 113 56t46 122z" />
    <glyph glyph-name="guillemotright" unicode="&#xbb;" horiz-adv-x="1060" 
d="M526 498l-391 -459l-137 111l305 362l-174 358l164 95zM979 498l-391 -459l-137 111l305 362l-174 358l163 95z" />
    <glyph glyph-name="onequarter" unicode="&#xbc;" horiz-adv-x="1843" 
d="M1522 1436l-1121 -1504l-127 80l1121 1504zM524 571h-190l117 654l-172 -125l-84 125l317 225h166zM1343 334l60 319h-10l-250 -319h200zM1608 182h-113l-31 -182h-174l31 182h-393l24 144l453 553h207l-94 -545h118z" />
    <glyph glyph-name="onehalf" unicode="&#xbd;" horiz-adv-x="1843" 
d="M1522 1436l-1121 -1504l-127 80l1121 1504zM1708 660q0 -102 -44 -164q-44 -63 -157 -152l-233 -182h342l-31 -162h-571l28 158l377 309q119 98 119 176q0 96 -108 96t-148 -121l-160 46q83 222 320 224q114 0 190 -62q76 -64 76 -166zM524 571h-190l117 654l-172 -125
l-84 125l317 225h166z" />
    <glyph glyph-name="threequarters" unicode="&#xbe;" horiz-adv-x="1843" 
d="M406 1106q176 0 176 137q0 86 -97 86q-49 0 -79 -19t-60 -73l-133 78q96 162 285 162q120 0 188 -69t68 -155t-46 -142t-118 -73q61 -20 96 -68t35 -108q0 -141 -92 -218q-91 -77 -217 -77q-241 0 -308 201l164 49q27 -96 133 -96q70 0 107 35t37 93t-44 89t-118 31h-47
l22 137h48zM1522 1436l-1121 -1504l-127 80l1121 1504zM1343 334l60 319h-10l-250 -319h200zM1608 182h-113l-31 -182h-174l31 182h-393l24 144l453 553h207l-94 -545h118z" />
    <glyph glyph-name="questiondown" unicode="&#xbf;" horiz-adv-x="1058" 
d="M561 1022q63 0 107 -40t43 -107q0 -67 -46 -111q-45 -44 -109 -45q-64 1 -105 41t-41 104t44 112q44 46 107 46zM385 -254q94 0 157 61q62 61 83 154l231 -39q-37 -170 -172 -282q-134 -112 -320 -113q-186 0 -300 87t-113 277q-1 121 63 209t184 174t158 130
q37 44 50 131l8 53h235l-12 -80q-14 -98 -56 -163t-135 -138l-106 -84q-41 -31 -66 -55q-24 -24 -48 -66q-24 -43 -23 -92q0 -164 182 -164z" />
    <glyph glyph-name="Agrave" unicode="&#xc0;" horiz-adv-x="1368" 
d="M768 1860l203 -295h-185l-288 295h270zM913 551l-96 608l-366 -608h462zM1276 0h-268l-60 334h-620l-207 -334h-299l946 1450h219z" />
    <glyph glyph-name="Aacute" unicode="&#xc1;" horiz-adv-x="1368" 
d="M1331 1860l-338 -295h-190l256 295h272zM913 551l-96 608l-366 -608h462zM1276 0h-268l-60 334h-620l-207 -334h-299l946 1450h219z" />
    <glyph glyph-name="Acircumflex" unicode="&#xc2;" horiz-adv-x="1368" 
d="M1260 1565h-222l-110 186l-176 -186h-230l287 295h270zM913 551l-96 608l-366 -608h462zM1276 0h-268l-60 334h-620l-207 -334h-299l946 1450h219z" />
    <glyph glyph-name="Atilde" unicode="&#xc3;" horiz-adv-x="1368" 
d="M791 1829q79 0 157 -38t123 -38q68 0 109 90h135q-88 -256 -275 -256q-68 0 -150 39t-138 39t-103 -92h-135q88 256 277 256zM913 551l-96 608l-366 -608h462zM1276 0h-268l-60 334h-620l-207 -334h-299l946 1450h219z" />
    <glyph glyph-name="Adieresis" unicode="&#xc4;" horiz-adv-x="1368" 
d="M1122 1870q59 0 97 -37t38 -99t-39 -105q-40 -42 -102 -42t-100 37q-39 37 -39 100q0 62 43 104t102 42zM852 1734q0 -62 -40 -104t-101 -43q-61 0 -101 37q-39 37 -39 100q0 62 43 104q42 42 102 42t98 -37t38 -99zM913 551l-96 608l-366 -608h462zM1276 0h-268l-60 334
h-620l-207 -334h-299l946 1450h219z" />
    <glyph glyph-name="Aring" unicode="&#xc5;" horiz-adv-x="1368" 
d="M1028 1757q0 49 -26 80t-74 31t-82 -39q-35 -39 -35 -89t25 -79q24 -29 72 -29t84 38t36 87zM1128 1771q0 -89 -66 -159t-157 -70q-90 0 -142 50t-52 138t66 158q67 70 158 70t142 -49t51 -138zM913 551l-96 608l-366 -608h462zM1276 0h-268l-60 334h-620l-207 -334h-299
l946 1450h219z" />
    <glyph glyph-name="AE" unicode="&#xc6;" horiz-adv-x="2115" 
d="M1075 592l113 637h-31l-481 -637h399zM2140 1450l-39 -221h-667l-66 -375h637l-39 -213h-635l-74 -416h725l-38 -225h-971l65 383h-522l-291 -383h-291l1133 1450h1073z" />
    <glyph glyph-name="Ccedilla" unicode="&#xc7;" horiz-adv-x="1394" 
d="M918 -283q0 -109 -92 -159t-212 -50q-122 0 -215 54l56 98q72 -41 159 -41q133 0 134 84q0 74 -97 74q-41 0 -82 -13l-37 52l132 151q-256 25 -411 193t-155 426q0 377 247 639t607 262q158 1 292 -61t202 -160l-199 -150q-39 62 -118 108t-185 46q-250 0 -417 -198
t-167 -454q0 -186 111 -310t305 -124q233 0 383 187l162 -144q-199 -252 -545 -262l-84 -98q18 4 41 4q69 0 127 -37t58 -117z" />
    <glyph glyph-name="Egrave" unicode="&#xc8;" horiz-adv-x="1196" 
d="M739 1860l203 -295h-184l-289 295h270zM1024 0h-973l256 1450h914l-39 -221h-668l-65 -375h636l-38 -213h-635l-74 -416h725z" />
    <glyph glyph-name="Eacute" unicode="&#xc9;" horiz-adv-x="1196" 
d="M1176 1860l-338 -295h-191l256 295h273zM1024 0h-973l256 1450h914l-39 -221h-668l-65 -375h636l-38 -213h-635l-74 -416h725z" />
    <glyph glyph-name="Ecircumflex" unicode="&#xca;" horiz-adv-x="1196" 
d="M1155 1565h-221l-111 186l-176 -186h-229l287 295h270zM1024 0h-973l256 1450h914l-39 -221h-668l-65 -375h636l-38 -213h-635l-74 -416h725z" />
    <glyph glyph-name="Edieresis" unicode="&#xcb;" horiz-adv-x="1196" 
d="M1143 1734q0 -62 -40 -104q-39 -42 -101 -43q-62 0 -101 37t-39 100q0 62 43 104t103 42t97 -37q38 -37 38 -99zM737 1734q0 -62 -40 -104t-101 -43q-61 0 -100 37t-39 100q0 62 43 104t102 42t97 -37t38 -99zM1024 0h-973l256 1450h914l-39 -221h-668l-65 -375h636
l-38 -213h-635l-74 -416h725z" />
    <glyph glyph-name="Igrave" unicode="&#xcc;" horiz-adv-x="595" 
d="M365 1860l202 -295h-184l-289 295h271zM303 0h-252l256 1450h252z" />
    <glyph glyph-name="Iacute" unicode="&#xcd;" horiz-adv-x="595" 
d="M850 1860l-338 -295h-190l256 295h272zM303 0h-252l256 1450h252z" />
    <glyph glyph-name="Icircumflex" unicode="&#xce;" horiz-adv-x="595" 
d="M819 1565h-221l-111 186l-176 -186h-229l287 295h270zM303 0h-252l256 1450h252z" />
    <glyph glyph-name="Idieresis" unicode="&#xcf;" horiz-adv-x="595" 
d="M817 1734q0 -62 -40 -104t-101 -43q-61 0 -101 37q-39 37 -38 100q0 62 43 104t102 42t97 -37t38 -99zM276 1870q60 0 98 -37t38 -99t-40 -104t-102 -43q-62 0 -100 37q-39 37 -39 100q0 62 43 104t102 42zM303 0h-252l256 1450h252z" />
    <glyph glyph-name="Eth" unicode="&#xd0;" horiz-adv-x="1550" 
d="M604 221q287 0 450 173t163 417q0 184 -121 304t-355 120h-223l-69 -399h430l-31 -170h-430l-78 -445h264zM803 1450q262 0 459 -139q98 -70 157 -191t60 -276q0 -380 -250 -612t-635 -232h-543l117 666h-131l31 170h131l108 614h496z" />
    <glyph glyph-name="Ntilde" unicode="&#xd1;" horiz-adv-x="1613" 
d="M848 1829q80 0 158 -38t122 -38q68 0 109 90h135q-88 -256 -274 -256q-68 0 -150 39t-138 39t-103 -92h-136q88 256 277 256zM1294 0h-313l-475 1126h-4l-199 -1126h-252l256 1450h328l467 -1092h4l192 1092h252z" />
    <glyph glyph-name="Ograve" unicode="&#xd2;" horiz-adv-x="1697" 
d="M979 1860l203 -295h-185l-288 295h270zM797 184q261 0 415 195t154 457q0 186 -117 310t-321 124q-252 0 -411 -197t-159 -455q0 -186 117 -310t322 -124zM940 1487q310 0 498 -169t188 -460q0 -244 -106 -448t-296 -326q-190 -121 -427 -121q-322 0 -510 169t-189 460
q0 373 243 634t599 261z" />
    <glyph glyph-name="Oacute" unicode="&#xd3;" horiz-adv-x="1697" 
d="M1339 1860l-338 -295h-190l256 295h272zM797 184q261 0 415 195t154 457q0 186 -117 310t-321 124q-252 0 -411 -197t-159 -455q0 -186 117 -310t322 -124zM940 1487q310 0 498 -169t188 -460q0 -244 -106 -448t-296 -326q-190 -121 -427 -121q-322 0 -510 169t-189 460
q0 373 243 634t599 261z" />
    <glyph glyph-name="Ocircumflex" unicode="&#xd4;" horiz-adv-x="1697" 
d="M1395 1565h-221l-111 186l-176 -186h-230l287 295h270zM797 184q261 0 415 195t154 457q0 186 -117 310t-321 124q-252 0 -411 -197t-159 -455q0 -186 117 -310t322 -124zM940 1487q310 0 498 -169t188 -460q0 -244 -106 -448t-296 -326q-190 -121 -427 -121
q-322 0 -510 169t-189 460q0 373 243 634t599 261z" />
    <glyph glyph-name="Otilde" unicode="&#xd5;" horiz-adv-x="1697" 
d="M897 1829q80 0 158 -38t123 -38q68 0 108 90h135q-88 -256 -274 -256q-67 0 -149 39t-138 39t-104 -92h-135q88 256 276 256zM797 184q261 0 415 195t154 457q0 186 -117 310t-321 124q-252 0 -411 -197t-159 -455q0 -186 117 -310t322 -124zM940 1487q310 0 498 -169
t188 -460q0 -244 -106 -448t-296 -326q-190 -121 -427 -121q-322 0 -510 169t-189 460q0 373 243 634t599 261z" />
    <glyph glyph-name="Odieresis" unicode="&#xd6;" horiz-adv-x="1697" 
d="M1368 1734q0 -62 -40 -104t-101 -43q-61 0 -101 37q-39 37 -39 100q0 62 43 104q42 42 102 42t98 -37t38 -99zM827 1870q59 0 97 -37t39 -99q0 -62 -40 -104q-39 -42 -101 -43q-62 0 -101 37t-39 100q0 62 43 104t102 42zM797 184q261 0 415 195t154 457q0 186 -117 310
t-321 124q-252 0 -411 -197t-159 -455q0 -186 117 -310t322 -124zM940 1487q310 0 498 -169t188 -460q0 -244 -106 -448t-296 -326q-190 -121 -427 -121q-322 0 -510 169t-189 460q0 373 243 634t599 261z" />
    <glyph glyph-name="multiply" unicode="&#xd7;" horiz-adv-x="1363" 
d="M307 1141l375 -375l373 373l143 -144l-371 -370l379 -381l-151 -152l-375 371l-371 -371l-151 150l379 372l-377 381z" />
    <glyph glyph-name="Oslash" unicode="&#xd8;" horiz-adv-x="1697" 
d="M934 1280q-176 0 -312 -97t-205 -248t-69 -295t43 -230l842 768q-123 102 -299 102zM795 176q265 0 421 198t156 464q0 137 -61 243l-846 -774q119 -131 330 -131zM1626 856q0 -242 -106 -446t-296 -326q-190 -121 -427 -121q-324 0 -516 176l-195 -176l-86 88l199 182
q-100 147 -101 359q0 373 243 634t599 261q281 -1 469 -144l195 181l86 -88l-195 -179q131 -159 131 -401z" />
    <glyph glyph-name="Ugrave" unicode="&#xd9;" horiz-adv-x="1462" 
d="M813 1860l203 -295h-185l-288 295h270zM672 -37q-260 0 -405 122q-144 122 -144 331q0 66 10 116l162 918h252l-160 -907q-8 -39 -8 -94q0 -115 71 -190t216 -75q313 0 378 359l160 907h254l-162 -918q-48 -268 -206 -418t-418 -151z" />
    <glyph glyph-name="Uacute" unicode="&#xda;" horiz-adv-x="1462" 
d="M1270 1860l-338 -295h-191l256 295h273zM672 -37q-260 0 -405 122q-144 122 -144 331q0 66 10 116l162 918h252l-160 -907q-8 -39 -8 -94q0 -115 71 -190t216 -75q313 0 378 359l160 907h254l-162 -918q-48 -268 -206 -418t-418 -151z" />
    <glyph glyph-name="Ucircumflex" unicode="&#xdb;" horiz-adv-x="1462" 
d="M1257 1565h-221l-110 186l-176 -186h-230l287 295h270zM672 -37q-260 0 -405 122q-144 122 -144 331q0 66 10 116l162 918h252l-160 -907q-8 -39 -8 -94q0 -115 71 -190t216 -75q313 0 378 359l160 907h254l-162 -918q-48 -268 -206 -418t-418 -151z" />
    <glyph glyph-name="Udieresis" unicode="&#xdc;" horiz-adv-x="1462" 
d="M1247 1734q0 -62 -40 -104t-101 -43q-61 0 -100 37t-39 100q0 62 43 104t102 42t97 -37t38 -99zM842 1734q0 -62 -40 -104t-102 -43q-62 0 -100 37q-39 37 -39 100q0 62 43 104q42 42 102 42t98 -37t38 -99zM672 -37q-260 0 -405 122q-144 122 -144 331q0 66 10 116
l162 918h252l-160 -907q-8 -39 -8 -94q0 -115 71 -190t216 -75q313 0 378 359l160 907h254l-162 -918q-48 -268 -206 -418t-418 -151z" />
    <glyph glyph-name="Yacute" unicode="&#xdd;" horiz-adv-x="1177" 
d="M1159 1860l-338 -295h-190l256 295h272zM1403 1450l-701 -821l-112 -629h-252l111 629l-363 821h283l241 -614l486 614h307z" />
    <glyph glyph-name="Thorn" unicode="&#xde;" horiz-adv-x="1247" 
d="M588 535q346 0 346 227q0 193 -279 192h-184l-76 -419h193zM694 1167q236 0 365 -100t129 -281q0 -225 -165 -345t-445 -119h-220l-57 -322h-250l256 1450h250l-49 -283h186z" />
    <glyph glyph-name="germandbls" unicode="&#xdf;" horiz-adv-x="1284" 
d="M598 -25q-106 0 -188 23l36 203q55 -20 142 -21q152 0 248 87t96 237q0 110 -81 178t-194 68h-26l37 204h28q98 0 171 58t73 172q0 72 -51 125t-139 53q-225 0 -285 -332l-182 -1030h-242l184 1042q94 530 539 531q178 0 297 -99t119 -266q0 -133 -77 -221t-196 -119v-4
q123 -33 198 -130t75 -226q0 -231 -162 -382t-420 -151z" />
    <glyph glyph-name="agrave" unicode="&#xe0;" horiz-adv-x="1103" 
d="M524 1450l203 -295h-184l-289 295h270zM680 451q-424 0 -424 -172q0 -123 160 -123q110 0 186 66t94 167l13 62h-29zM737 686q0 133 -182 133q-147 0 -285 -98l-92 162q176 127 403 127t331 -122q58 -69 59 -175q0 -39 -8 -92l-72 -400q-25 -152 -25 -221h-221
q0 55 12 117h-4q-115 -137 -319 -137q-125 0 -217 61t-92 199q-1 383 706 383q6 33 6 63z" />
    <glyph glyph-name="aacute" unicode="&#xe1;" horiz-adv-x="1103" 
d="M1032 1450l-338 -295h-190l256 295h272zM680 451q-424 0 -424 -172q0 -123 160 -123q110 0 186 66t94 167l13 62h-29zM737 686q0 133 -182 133q-147 0 -285 -98l-92 162q176 127 403 127t331 -122q58 -69 59 -175q0 -39 -8 -92l-72 -400q-25 -152 -25 -221h-221
q0 55 12 117h-4q-115 -137 -319 -137q-125 0 -217 61t-92 199q-1 383 706 383q6 33 6 63z" />
    <glyph glyph-name="acircumflex" unicode="&#xe2;" horiz-adv-x="1103" 
d="M1001 1155h-221l-110 186l-176 -186h-230l287 295h270zM680 451q-424 0 -424 -172q0 -123 160 -123q110 0 186 66t94 167l13 62h-29zM737 686q0 133 -182 133q-147 0 -285 -98l-92 162q176 127 403 127t331 -122q58 -69 59 -175q0 -39 -8 -92l-72 -400q-25 -152 -25 -221
h-221q0 55 12 117h-4q-115 -137 -319 -137q-125 0 -217 61t-92 199q-1 383 706 383q6 33 6 63z" />
    <glyph glyph-name="atilde" unicode="&#xe3;" horiz-adv-x="1103" 
d="M518 1419q80 0 158 -38t123 -38q68 0 108 91h135q-88 -256 -274 -256q-68 0 -150 38t-138 39q-58 0 -103 -92h-135q88 256 276 256zM680 451q-424 0 -424 -172q0 -123 160 -123q110 0 186 66t94 167l13 62h-29zM737 686q0 133 -182 133q-147 0 -285 -98l-92 162
q176 127 403 127t331 -122q58 -69 59 -175q0 -39 -8 -92l-72 -400q-25 -152 -25 -221h-221q0 55 12 117h-4q-115 -137 -319 -137q-125 0 -217 61t-92 199q-1 383 706 383q6 33 6 63z" />
    <glyph glyph-name="adieresis" unicode="&#xe4;" horiz-adv-x="1103" 
d="M987 1324q0 -62 -40 -104t-101 -42t-101 36q-39 36 -39 100t44 105q43 41 102 41t97 -37t38 -99zM446 1460q60 0 98 -37t38 -99t-40 -104t-102 -42t-100 36q-39 36 -39 100t43 105t102 41zM680 451q-424 0 -424 -172q0 -123 160 -123q110 0 186 66t94 167l13 62h-29z
M737 686q0 133 -182 133q-147 0 -285 -98l-92 162q176 127 403 127t331 -122q58 -69 59 -175q0 -39 -8 -92l-72 -400q-25 -152 -25 -221h-221q0 55 12 117h-4q-115 -137 -319 -137q-125 0 -217 61t-92 199q-1 383 706 383q6 33 6 63z" />
    <glyph glyph-name="aring" unicode="&#xe5;" horiz-adv-x="1103" 
d="M756 1348q0 50 -26 80t-74 30t-82 -39q-36 -39 -36 -89t26 -79q24 -29 72 -29t84 39q36 38 36 87zM633 1133q-90 0 -143 50q-52 50 -52 138t67 158q67 69 158 69t142 -49t51 -138t-66 -159q-67 -69 -157 -69zM680 451q-424 0 -424 -172q0 -123 160 -123q110 0 186 66
t94 167l13 62h-29zM737 686q0 133 -182 133q-147 0 -285 -98l-92 162q176 127 403 127t331 -122q58 -69 59 -175q0 -39 -8 -92l-72 -400q-25 -152 -25 -221h-221q0 55 12 117h-4q-115 -137 -319 -137q-125 0 -217 61t-92 199q-1 383 706 383q6 33 6 63z" />
    <glyph glyph-name="ae" unicode="&#xe6;" horiz-adv-x="1812" 
d="M1481 639q-1 82 -59 136t-166 54q-108 1 -189 -75q-82 -76 -100 -166h510q4 37 4 51zM651 416q-195 0 -294 -30t-99 -110q0 -119 164 -118q252 0 291 223l6 35h-68zM1288 1010q182 0 296 -102t114 -292q0 -100 -25 -200h-729q-2 -10 -2 -23q0 -96 75 -161t183 -64
q166 0 281 129l137 -129q-180 -197 -444 -197q-136 1 -238 53t-145 150q-125 -195 -416 -194q-124 0 -228 52q-123 63 -123 222q0 84 45 150t109 100q155 84 567 84q12 49 13 94q0 137 -183 137q-147 0 -284 -98l-92 162q175 127 421 127t302 -168q133 168 366 168z" />
    <glyph glyph-name="ccedilla" unicode="&#xe7;" horiz-adv-x="1007" 
d="M725 -283q0 -109 -91 -159t-213 -50t-214 54l55 98q72 -41 160 -41q133 0 133 84q0 74 -96 74q-41 0 -82 -13l-37 52l137 159q-193 16 -307 131t-115 293q0 248 168 429q168 182 429 182t366 -166l-172 -139q-27 45 -83 77t-120 31q-150 0 -250 -114t-100 -269
q0 -110 63 -184q64 -74 198 -74t241 111l137 -140q-147 -143 -336 -166l-96 -110q18 4 41 4q70 0 127 -37t57 -117z" />
    <glyph glyph-name="egrave" unicode="&#xe8;" horiz-adv-x="1155" 
d="M545 1450l203 -295h-185l-289 295h271zM823 639q0 82 -58 136t-166 54q-107 1 -189 -75t-101 -166h510q4 37 4 51zM285 393q1 -96 75 -161t183 -64q166 0 280 129l138 -129q-182 -197 -445 -197q-205 0 -333 117t-128 320q0 256 164 429t412 173q182 0 296 -102t113 -292
q1 -100 -24 -200h-729q-2 -10 -2 -23z" />
    <glyph glyph-name="eacute" unicode="&#xe9;" horiz-adv-x="1155" 
d="M1032 1450l-338 -295h-190l256 295h272zM823 639q0 82 -58 136t-166 54q-107 1 -189 -75t-101 -166h510q4 37 4 51zM285 393q1 -96 75 -161t183 -64q166 0 280 129l138 -129q-182 -197 -445 -197q-205 0 -333 117t-128 320q0 256 164 429t412 173q182 0 296 -102
t113 -292q1 -100 -24 -200h-729q-2 -10 -2 -23z" />
    <glyph glyph-name="ecircumflex" unicode="&#xea;" horiz-adv-x="1155" 
d="M1065 1155h-221l-111 186l-176 -186h-229l286 295h271zM823 639q0 82 -58 136t-166 54q-107 1 -189 -75t-101 -166h510q4 37 4 51zM285 393q1 -96 75 -161t183 -64q166 0 280 129l138 -129q-182 -197 -445 -197q-205 0 -333 117t-128 320q0 256 164 429t412 173
q182 0 296 -102t113 -292q1 -100 -24 -200h-729q-2 -10 -2 -23z" />
    <glyph glyph-name="edieresis" unicode="&#xeb;" horiz-adv-x="1155" 
d="M911 1460q59 0 97 -37t39 -99q0 -62 -40 -104q-39 -42 -101 -42t-101 36t-39 100t43 105t102 41zM641 1324q0 -62 -40 -104t-101 -42t-101 36q-39 36 -39 100t43 105t103 41t97 -37q38 -37 38 -99zM823 639q0 82 -58 136t-166 54q-107 1 -189 -75t-101 -166h510
q4 37 4 51zM285 393q1 -96 75 -161t183 -64q166 0 280 129l138 -129q-182 -197 -445 -197q-205 0 -333 117t-128 320q0 256 164 429t412 173q182 0 296 -102t113 -292q1 -100 -24 -200h-729q-2 -10 -2 -23z" />
    <glyph glyph-name="igrave" unicode="&#xec;" horiz-adv-x="546" 
d="M264 1450l203 -295h-184l-289 295h270zM283 0h-240l172 983h242z" />
    <glyph glyph-name="iacute" unicode="&#xed;" horiz-adv-x="546" 
d="M764 1450l-338 -295h-190l256 295h272zM283 0h-240l172 983h242z" />
    <glyph glyph-name="icircumflex" unicode="&#xee;" horiz-adv-x="546" 
d="M727 1155h-221l-111 186l-176 -186h-229l286 295h271zM283 0h-240l172 983h242z" />
    <glyph glyph-name="idieresis" unicode="&#xef;" horiz-adv-x="546" 
d="M729 1324q0 -62 -40 -104t-101 -42t-101 36q-39 36 -39 100t44 105q43 41 102 41t97 -37t38 -99zM188 1460q60 0 98 -37t38 -99t-40 -104t-102 -42t-100 36q-39 36 -39 100t43 105t102 41zM283 0h-240l172 983h242z" />
    <glyph glyph-name="eth" unicode="&#xf0;" horiz-adv-x="1236" 
d="M885 559q0 111 -69 183t-183 71q-150 0 -245 -114t-95 -273q1 -114 67 -184t183 -70q152 0 247 112t95 275zM1133 639q0 -262 -143 -455q-72 -96 -190 -153t-270 -58q-207 0 -341 120t-134 308q0 244 160 426t418 183q162 0 233 -68l4 4q-86 197 -200 309l-240 -104
l-100 115l243 104q-35 43 -137 133l197 107q82 -72 151 -152l250 109l109 -113l-258 -111q248 -301 248 -704z" />
    <glyph glyph-name="ntilde" unicode="&#xf1;" horiz-adv-x="1196" 
d="M592 1419q80 0 158 -38t122 -38q68 0 109 91h135q-88 -256 -274 -256q-68 0 -150 38t-139 39q-57 0 -102 -92h-136q88 256 277 256zM1061 705q0 -51 -8 -93l-109 -612h-239l94 541q10 55 10 98q0 166 -162 166q-109 0 -179 -78t-89 -186l-96 -541h-240l135 772
q20 102 31 211h225q-2 -39 -18 -154h4q115 180 319 181q156 0 239 -87t83 -218z" />
    <glyph glyph-name="ograve" unicode="&#xf2;" horiz-adv-x="1236" 
d="M565 1450l203 -295h-184l-289 295h270zM885 559q0 111 -69 183t-183 71q-150 0 -245 -114t-95 -273q1 -114 67 -184t183 -70q152 0 247 112t95 275zM530 -27q-207 0 -341 120t-134 308q0 250 166 429t428 180q209 0 343 -119t134 -307q0 -254 -166 -432t-430 -179z" />
    <glyph glyph-name="oacute" unicode="&#xf3;" horiz-adv-x="1236" 
d="M1081 1450l-338 -295h-190l256 295h272zM885 559q0 111 -69 183t-183 71q-150 0 -245 -114t-95 -273q1 -114 67 -184t183 -70q152 0 247 112t95 275zM530 -27q-207 0 -341 120t-134 308q0 250 166 429t428 180q209 0 343 -119t134 -307q0 -254 -166 -432t-430 -179z" />
    <glyph glyph-name="ocircumflex" unicode="&#xf4;" horiz-adv-x="1236" 
d="M1079 1155h-221l-110 186l-177 -186h-229l287 295h270zM885 559q0 111 -69 183t-183 71q-150 0 -245 -114t-95 -273q1 -114 67 -184t183 -70q152 0 247 112t95 275zM530 -27q-207 0 -341 120t-134 308q0 250 166 429t428 180q209 0 343 -119t134 -307q0 -254 -166 -432
t-430 -179z" />
    <glyph glyph-name="otilde" unicode="&#xf5;" horiz-adv-x="1236" 
d="M600 1419q80 0 158 -38t123 -38q68 0 108 91h135q-88 -256 -274 -256q-68 0 -150 38t-138 39q-58 0 -103 -92h-135q88 256 276 256zM885 559q0 111 -69 183t-183 71q-150 0 -245 -114t-95 -273q1 -114 67 -184t183 -70q152 0 247 112t95 275zM530 -27q-207 0 -341 120
t-134 308q0 250 166 429t428 180q209 0 343 -119t134 -307q0 -254 -166 -432t-430 -179z" />
    <glyph glyph-name="odieresis" unicode="&#xf6;" horiz-adv-x="1236" 
d="M1069 1324q0 -62 -40 -104t-101 -42t-101 36q-39 36 -39 100t43 105t103 41t97 -37q38 -37 38 -99zM528 1460q60 0 98 -37t38 -99t-40 -104t-102 -42t-100 36q-39 36 -39 100t43 105t102 41zM885 559q0 111 -69 183t-183 71q-150 0 -245 -114t-95 -273q1 -114 67 -184
t183 -70q152 0 247 112t95 275zM530 -27q-207 0 -341 120t-134 308q0 250 166 429t428 180q209 0 343 -119t134 -307q0 -254 -166 -432t-430 -179z" />
    <glyph glyph-name="divide" unicode="&#xf7;" horiz-adv-x="1363" 
d="M1200 512h-1036v219h1036v-219zM528 252q0 63 45 108q45 46 109 46t108 -46q46 -46 46 -108t-45 -108t-109 -46t-109 45q-45 46 -45 109zM528 989q0 63 45 109t109 45q64 0 108 -45q46 -44 46 -108t-45 -109t-109 -45t-109 45t-45 108z" />
    <glyph glyph-name="oslash" unicode="&#xf8;" horiz-adv-x="1236" 
d="M885 559q0 63 -21 107l-497 -430q70 -63 176 -64q152 0 247 113t95 274zM633 813q-150 0 -245 -114t-95 -273q0 -57 18 -104l494 430q-68 61 -172 61zM55 401q0 250 166 429t428 180q190 0 328 -105l162 139l71 -81l-157 -138q74 -106 73 -241q0 -254 -166 -432
t-430 -179q-198 0 -329 109l-162 -137l-68 84l156 135q-72 104 -72 237z" />
    <glyph glyph-name="ugrave" unicode="&#xf9;" horiz-adv-x="1196" 
d="M528 1450l203 -295h-184l-289 295h270zM72 279q0 51 8 92l108 612h240l-94 -541q-10 -55 -10 -98q0 -166 161 -166q109 0 180 78t89 186l96 541h240l-136 -772q-20 -102 -30 -211h-226q3 39 19 154h-4q-115 -180 -320 -181q-157 0 -239 87t-82 219z" />
    <glyph glyph-name="uacute" unicode="&#xfa;" horiz-adv-x="1196" 
d="M1073 1450l-338 -295h-190l256 295h272zM72 279q0 51 8 92l108 612h240l-94 -541q-10 -55 -10 -98q0 -166 161 -166q109 0 180 78t89 186l96 541h240l-136 -772q-20 -102 -30 -211h-226q3 39 19 154h-4q-115 -180 -320 -181q-157 0 -239 87t-82 219z" />
    <glyph glyph-name="ucircumflex" unicode="&#xfb;" horiz-adv-x="1196" 
d="M1038 1155h-221l-110 186l-177 -186h-229l287 295h270zM72 279q0 51 8 92l108 612h240l-94 -541q-10 -55 -10 -98q0 -166 161 -166q109 0 180 78t89 186l96 541h240l-136 -772q-20 -102 -30 -211h-226q3 39 19 154h-4q-115 -180 -320 -181q-157 0 -239 87t-82 219z" />
    <glyph glyph-name="udieresis" unicode="&#xfc;" horiz-adv-x="1196" 
d="M1034 1324q0 -62 -40 -104t-101 -42t-100 36t-39 100t43 105t102 41t97 -37t38 -99zM629 1324q0 -62 -40 -104q-39 -42 -101 -42t-101 36t-39 100t43 105t103 41t97 -37q38 -37 38 -99zM72 279q0 51 8 92l108 612h240l-94 -541q-10 -55 -10 -98q0 -166 161 -166
q109 0 180 78t89 186l96 541h240l-136 -772q-20 -102 -30 -211h-226q3 39 19 154h-4q-115 -180 -320 -181q-157 0 -239 87t-82 219z" />
    <glyph glyph-name="yacute" unicode="&#xfd;" horiz-adv-x="1036" 
d="M1032 1450l-338 -295h-190l256 295h272zM39 -492q-68 0 -125 15l31 209q43 -14 98 -14t93 33q38 34 87 120l74 127l-221 985h258l127 -721h4l393 721h254l-696 -1196q-84 -147 -164 -213t-213 -66z" />
    <glyph glyph-name="thorn" unicode="&#xfe;" horiz-adv-x="1288" 
d="M944 553q0 111 -64 183t-178 73q-143 0 -243 -115t-101 -272q0 -112 69 -184t181 -72q150 0 243 112t93 275zM1190 582q0 -256 -154 -434t-396 -177q-242 0 -335 185h-4l-108 -648h-242l360 2040h240l-133 -723h6q55 86 147 133t203 48q188 0 302 -117t114 -307z" />
    <glyph glyph-name="ydieresis" unicode="&#xff;" horiz-adv-x="1036" 
d="M991 1324q0 -62 -40 -104t-101 -42t-100 36t-39 100t43 105t102 41t97 -37t38 -99zM586 1324q0 -62 -40 -104t-102 -42t-100 36q-39 36 -39 100t43 105q42 41 102 41t98 -37t38 -99zM39 -492q-68 0 -125 15l31 209q43 -14 98 -14t93 33q38 34 87 120l74 127l-221 985h258
l127 -721h4l393 721h254l-696 -1196q-84 -147 -164 -213t-213 -66z" />
    <glyph glyph-name="Amacron" unicode="&#x100;" horiz-adv-x="1368" 
d="M1229 1628h-649l26 158h651zM913 551l-96 608l-366 -608h462zM1276 0h-268l-60 334h-620l-207 -334h-299l946 1450h219z" />
    <glyph glyph-name="amacron" unicode="&#x101;" horiz-adv-x="1103" 
d="M956 1219h-649l27 157h651zM680 451q-424 0 -424 -172q0 -123 160 -123q110 0 186 66t94 167l13 62h-29zM737 686q0 133 -182 133q-147 0 -285 -98l-92 162q176 127 403 127t331 -122q58 -69 59 -175q0 -39 -8 -92l-72 -400q-25 -152 -25 -221h-221q0 55 12 117h-4
q-115 -137 -319 -137q-125 0 -217 61t-92 199q-1 383 706 383q6 33 6 63z" />
    <glyph glyph-name="Abreve" unicode="&#x102;" horiz-adv-x="1368" 
d="M702 1860q0 -137 189 -138q96 0 152 29t83 109h134q-36 -146 -136 -220t-247 -73q-309 0 -310 293h135zM913 551l-96 608l-366 -608h462zM1276 0h-268l-60 334h-620l-207 -334h-299l946 1450h219z" />
    <glyph glyph-name="abreve" unicode="&#x103;" horiz-adv-x="1103" 
d="M610 1157q-309 0 -309 293h135q0 -137 189 -137q96 1 152 29t83 108h133q-37 -145 -136 -219t-247 -74zM680 451q-424 0 -424 -172q0 -123 160 -123q110 0 186 66t94 167l13 62h-29zM737 686q0 133 -182 133q-147 0 -285 -98l-92 162q176 127 403 127t331 -122
q58 -69 59 -175q0 -39 -8 -92l-72 -400q-25 -152 -25 -221h-221q0 55 12 117h-4q-115 -137 -319 -137q-125 0 -217 61t-92 199q-1 383 706 383q6 33 6 63z" />
    <glyph glyph-name="Aogonek" unicode="&#x104;" horiz-adv-x="1368" 
d="M913 551l-96 608l-366 -608h462zM954 -477q-188 0 -188 164q0 145 242 313l-60 334h-620l-207 -334h-299l946 1450h219l289 -1450h-143q-201 -162 -201 -272q0 -72 82 -72q57 0 114 43l33 -98q-113 -78 -207 -78z" />
    <glyph glyph-name="aogonek" unicode="&#x105;" horiz-adv-x="1103" 
d="M680 451q-424 0 -424 -172q0 -123 160 -123q110 0 186 66t94 167l13 62h-29zM586 -477q-188 0 -189 164q0 145 248 317q0 53 12 113h-4q-115 -137 -319 -137q-125 0 -217 61t-92 199q0 383 706 383q6 33 6 63q0 133 -182 133q-147 0 -285 -98l-92 162q176 127 403 127
t331 -122q58 -69 59 -175q0 -39 -8 -92l-72 -400q-25 -152 -25 -221h-102q-201 -162 -201 -272q0 -72 82 -72q57 0 115 43l33 -98q-113 -78 -207 -78z" />
    <glyph glyph-name="Cacute" unicode="&#x106;" horiz-adv-x="1394" 
d="M1327 1860l-338 -295h-190l256 295h272zM745 -37q-291 0 -469 172t-178 451q0 377 247 639t607 262q158 1 292 -61t202 -160l-199 -150q-39 62 -118 108t-185 46q-250 0 -417 -198t-167 -454q0 -186 111 -310t305 -124q233 1 383 187l162 -144q-209 -264 -576 -264z" />
    <glyph glyph-name="cacute" unicode="&#x107;" horiz-adv-x="1007" 
d="M1061 1450l-338 -295h-191l256 295h273zM643 813q-150 0 -250 -114t-100 -269q0 -110 63 -184q64 -74 198 -74t241 111l137 -140q-174 -170 -396 -170t-351 118q-130 118 -130 308q0 248 168 429q167 182 429 182t366 -166l-172 -139q-27 45 -83 77t-120 31z" />
    <glyph glyph-name="Ccircumflex" unicode="&#x108;" horiz-adv-x="1394" 
d="M1358 1565h-221l-111 186l-176 -186h-229l286 295h271zM745 -37q-291 0 -469 172t-178 451q0 377 247 639t607 262q158 1 292 -61t202 -160l-199 -150q-39 62 -118 108t-185 46q-250 0 -417 -198t-167 -454q0 -186 111 -310t305 -124q233 1 383 187l162 -144
q-209 -264 -576 -264z" />
    <glyph glyph-name="ccircumflex" unicode="&#x109;" horiz-adv-x="1007" 
d="M1053 1155h-222l-110 186l-176 -186h-230l287 295h270zM643 813q-150 0 -250 -114t-100 -269q0 -110 63 -184q64 -74 198 -74t241 111l137 -140q-174 -170 -396 -170t-351 118q-130 118 -130 308q0 248 168 429q167 182 429 182t366 -166l-172 -139q-27 45 -83 77
t-120 31z" />
    <glyph glyph-name="Cdotaccent" unicode="&#x10a;" horiz-adv-x="1394" 
d="M1163 1732q0 -62 -42 -106t-103 -45q-61 0 -103 38q-41 38 -41 102q0 63 46 107t104 44q59 0 99 -39t40 -101zM745 -37q-291 0 -469 172t-178 451q0 377 247 639t607 262q158 1 292 -61t202 -160l-199 -150q-39 62 -118 108t-185 46q-250 0 -417 -198t-167 -454
q0 -186 111 -310t305 -124q233 1 383 187l162 -144q-209 -264 -576 -264z" />
    <glyph glyph-name="cdotaccent" unicode="&#x10b;" horiz-adv-x="1007" 
d="M870 1322q0 -62 -42 -106t-103 -45q-61 0 -102 38q-41 39 -41 103t45 107t104 43t99 -39t40 -101zM643 813q-150 0 -250 -114t-100 -269q0 -110 63 -184q64 -74 198 -74t241 111l137 -140q-174 -170 -396 -170t-351 118q-130 118 -130 308q0 248 168 429q167 182 429 182
t366 -166l-172 -139q-27 45 -83 77t-120 31z" />
    <glyph glyph-name="Ccaron" unicode="&#x10c;" horiz-adv-x="1394" 
d="M1411 1860l-287 -295h-268l-180 295h223l109 -187l176 187h227zM745 -37q-291 0 -469 172t-178 451q0 377 247 639t607 262q158 1 292 -61t202 -160l-199 -150q-39 62 -118 108t-185 46q-250 0 -417 -198t-167 -454q0 -186 111 -310t305 -124q233 1 383 187l162 -144
q-209 -264 -576 -264z" />
    <glyph glyph-name="ccaron" unicode="&#x10d;" horiz-adv-x="1007" 
d="M1090 1450l-287 -295h-268l-181 295h224l108 -186l176 186h228zM643 813q-150 0 -250 -114t-100 -269q0 -110 63 -184q64 -74 198 -74t241 111l137 -140q-174 -170 -396 -170t-351 118q-130 118 -130 308q0 248 168 429q167 182 429 182t366 -166l-172 -139
q-27 45 -83 77t-120 31z" />
    <glyph glyph-name="Dcaron" unicode="&#x10e;" horiz-adv-x="1550" 
d="M1264 1860l-287 -295h-268l-181 295h224l108 -187l176 187h228zM604 221q287 0 450 173t163 417q0 184 -121 304t-355 120h-223l-178 -1014h264zM803 1450q262 0 459 -139q98 -70 157 -191t60 -276q0 -380 -250 -612t-635 -232h-543l256 1450h496z" />
    <glyph glyph-name="dcaron" unicode="&#x10f;" horiz-adv-x="1474" 
d="M1731 1450l-252 -399h-201l219 399h234zM301 428q0 -112 65 -184t177 -72q143 0 243 115t101 272q0 113 -69 185t-181 71q-150 1 -243 -111t-93 -276zM55 399q0 255 154 433q153 178 395 178t336 -185h4l123 723h242l-275 -1548h-227l24 156h-6q-123 -180 -354 -181
q-188 0 -302 117t-114 307z" />
    <glyph glyph-name="Dcroat" unicode="&#x110;" horiz-adv-x="1550" 
d="M604 221q287 0 450 173t163 417q0 184 -121 304t-355 120h-223l-69 -399h430l-31 -170h-430l-78 -445h264zM803 1450q262 0 459 -139q98 -70 157 -191t60 -276q0 -380 -250 -612t-635 -232h-543l117 666h-131l31 170h131l108 614h496z" />
    <glyph glyph-name="dcroat" unicode="&#x111;" horiz-adv-x="1298" 
d="M301 428q0 -112 65 -184t177 -72q143 0 243 115t101 272q0 113 -69 185t-181 71q-150 1 -243 -111t-93 -276zM55 399q0 255 154 433q153 178 395 178t336 -185h4l57 342h-331l28 154h330l39 227h242l-41 -227h135l-29 -154h-133l-207 -1167h-227l24 156h-6
q-123 -180 -354 -181q-188 0 -302 117t-114 307z" />
    <glyph glyph-name="Emacron" unicode="&#x112;" horiz-adv-x="1196" 
d="M1104 1628h-649l26 158h652zM1024 0h-973l256 1450h914l-39 -221h-668l-65 -375h636l-38 -213h-635l-74 -416h725z" />
    <glyph glyph-name="emacron" unicode="&#x113;" horiz-adv-x="1155" 
d="M1010 1219h-650l27 157h651zM823 639q0 82 -58 136t-166 54q-107 1 -189 -75t-101 -166h510q4 37 4 51zM285 393q1 -96 75 -161t183 -64q166 0 280 129l138 -129q-182 -197 -445 -197q-205 0 -333 117t-128 320q0 256 164 429t412 173q182 0 296 -102t113 -292
q1 -100 -24 -200h-729q-2 -10 -2 -23z" />
    <glyph glyph-name="Ebreve" unicode="&#x114;" horiz-adv-x="1196" 
d="M461 1860h135q0 -137 188 -138q96 0 153 29q56 29 83 109h133q-37 -146 -136 -220t-247 -73q-309 0 -309 293zM1024 0h-973l256 1450h914l-39 -221h-668l-65 -375h636l-38 -213h-635l-74 -416h725z" />
    <glyph glyph-name="ebreve" unicode="&#x115;" horiz-adv-x="1155" 
d="M682 1157q-309 0 -309 293h135q0 -137 188 -137q96 0 153 28q56 29 83 109h133q-37 -145 -136 -219t-247 -74zM823 639q0 82 -58 136t-166 54q-107 1 -189 -75t-101 -166h510q4 37 4 51zM285 393q1 -96 75 -161t183 -64q166 0 280 129l138 -129q-182 -197 -445 -197
q-205 0 -333 117t-128 320q0 256 164 429t412 173q182 0 296 -102t113 -292q1 -100 -24 -200h-729q-2 -10 -2 -23z" />
    <glyph glyph-name="Edotaccent" unicode="&#x116;" horiz-adv-x="1196" 
d="M819 1872q59 0 99 -39t40 -101t-42 -106t-103 -45q-61 0 -102 38t-41 102q0 63 45 107t104 44zM1024 0h-973l256 1450h914l-39 -221h-668l-65 -375h636l-38 -213h-635l-74 -416h725z" />
    <glyph glyph-name="edotaccent" unicode="&#x117;" horiz-adv-x="1155" 
d="M844 1322q0 -62 -42 -106t-104 -45q-62 0 -102 38q-41 39 -41 103t45 107q44 43 104 43t100 -39t40 -101zM823 639q0 82 -58 136t-166 54q-107 1 -189 -75t-101 -166h510q4 37 4 51zM285 393q1 -96 75 -161t183 -64q166 0 280 129l138 -129q-182 -197 -445 -197
q-205 0 -333 117t-128 320q0 256 164 429t412 173q182 0 296 -102t113 -292q1 -100 -24 -200h-729q-2 -10 -2 -23z" />
    <glyph glyph-name="Eogonek" unicode="&#x118;" horiz-adv-x="1196" 
d="M782 -477q-188 0 -188 164q0 141 240 313h-783l256 1450h914l-39 -221h-668l-65 -375h636l-38 -213h-635l-74 -416h725l-39 -225h-63q-201 -162 -201 -272q0 -72 82 -72q57 0 114 43l33 -98q-113 -78 -207 -78z" />
    <glyph glyph-name="eogonek" unicode="&#x119;" horiz-adv-x="1155" 
d="M823 639q0 82 -58 136t-166 54q-107 1 -189 -75t-101 -166h510q4 37 4 51zM481 -477q-188 0 -188 164q0 133 201 284q-195 6 -317 122t-122 315q0 256 164 429t412 173q182 0 296 -102t113 -292q0 -100 -24 -200h-729q-2 -10 -2 -23q1 -96 75 -161t183 -64q166 0 280 129
l138 -129q-139 -152 -324 -184q-178 -150 -178 -256q0 -72 82 -72q57 0 114 43l33 -98q-113 -78 -207 -78z" />
    <glyph glyph-name="Ecaron" unicode="&#x11a;" horiz-adv-x="1196" 
d="M1194 1860l-287 -295h-268l-180 295h223l109 -187l176 187h227zM1024 0h-973l256 1450h914l-39 -221h-668l-65 -375h636l-38 -213h-635l-74 -416h725z" />
    <glyph glyph-name="ecaron" unicode="&#x11b;" horiz-adv-x="1155" 
d="M1087 1450l-286 -295h-269l-180 295h223l109 -186l176 186h227zM823 639q0 82 -58 136t-166 54q-107 1 -189 -75t-101 -166h510q4 37 4 51zM285 393q1 -96 75 -161t183 -64q166 0 280 129l138 -129q-182 -197 -445 -197q-205 0 -333 117t-128 320q0 256 164 429t412 173
q182 0 296 -102t113 -292q1 -100 -24 -200h-729q-2 -10 -2 -23z" />
    <glyph glyph-name="Gcircumflex" unicode="&#x11c;" horiz-adv-x="1515" 
d="M1348 1565h-222l-110 186l-176 -186h-230l287 295h270zM763 -37q-296 0 -480 172t-185 451q0 377 247 639t607 262q164 0 299 -56t215 -165l-198 -150q-113 154 -324 154q-250 0 -417 -198t-167 -454q0 -194 119 -314t326 -120q160 4 264 56l64 368h-312l41 219h555
l-129 -749q-229 -115 -525 -115z" />
    <glyph glyph-name="gcircumflex" unicode="&#x11d;" horiz-adv-x="1294" 
d="M1120 1155h-221l-111 186l-176 -186h-229l287 295h270zM315 432q0 -112 65 -184t177 -72q143 0 244 115q100 115 100 270q-1 113 -69 185t-181 71q-150 -1 -243 -111t-93 -274zM620 1010q242 0 328 -176h6l25 149h229l-155 -899q-47 -281 -189 -428t-426 -148
q-129 0 -262 48t-211 129l160 174q119 -141 303 -141t266 87q82 88 117 252l16 78h-4q-117 -154 -338 -153q-188 0 -302 116t-113 305q0 256 153 432q155 175 397 175z" />
    <glyph glyph-name="Gbreve" unicode="&#x11e;" horiz-adv-x="1515" 
d="M682 1860h135q0 -137 189 -138q96 0 152 29t83 109h133q-37 -146 -136 -220t-247 -73q-309 0 -309 293zM763 -37q-296 0 -480 172t-185 451q0 377 247 639t607 262q164 0 299 -56t215 -165l-198 -150q-113 154 -324 154q-250 0 -417 -198t-167 -454q0 -194 119 -314
t326 -120q160 4 264 56l64 368h-312l41 219h555l-129 -749q-229 -115 -525 -115z" />
    <glyph glyph-name="gbreve" unicode="&#x11f;" horiz-adv-x="1294" 
d="M737 1157q-309 0 -309 293h135q0 -137 189 -137q96 1 152 29t83 108h133q-37 -145 -136 -219t-247 -74zM315 432q0 -112 65 -184t177 -72q143 0 244 115q100 115 100 270q-1 113 -69 185t-181 71q-150 -1 -243 -111t-93 -274zM620 1010q242 0 328 -176h6l25 149h229
l-155 -899q-47 -281 -189 -428t-426 -148q-129 0 -262 48t-211 129l160 174q119 -141 303 -141t266 87q82 88 117 252l16 78h-4q-117 -154 -338 -153q-188 0 -302 116t-113 305q0 256 153 432q155 175 397 175z" />
    <glyph glyph-name="Gdotaccent" unicode="&#x120;" horiz-adv-x="1515" 
d="M1001 1872q59 0 99 -39t41 -101q0 -62 -42 -106q-41 -44 -103 -45q-62 0 -103 38t-41 102q0 63 45 107t104 44zM763 -37q-296 0 -480 172t-185 451q0 377 247 639t607 262q164 0 299 -56t215 -165l-198 -150q-113 154 -324 154q-250 0 -417 -198t-167 -454
q0 -194 119 -314t326 -120q160 4 264 56l64 368h-312l41 219h555l-129 -749q-229 -115 -525 -115z" />
    <glyph glyph-name="gdotaccent" unicode="&#x121;" horiz-adv-x="1294" 
d="M776 1462q59 0 99 -39t40 -101t-42 -106t-103 -45q-61 0 -102 38q-41 39 -41 103t45 107t104 43zM315 432q0 -112 65 -184t177 -72q143 0 244 115q100 115 100 270q-1 113 -69 185t-181 71q-150 -1 -243 -111t-93 -274zM620 1010q242 0 328 -176h6l25 149h229l-155 -899
q-47 -281 -189 -428t-426 -148q-129 0 -262 48t-211 129l160 174q119 -141 303 -141t266 87q82 88 117 252l16 78h-4q-117 -154 -338 -153q-188 0 -302 116t-113 305q0 256 153 432q155 175 397 175z" />
    <glyph glyph-name="Gcommaaccent" unicode="&#x122;" horiz-adv-x="1515" 
d="M829 -92l-251 -400h-201l219 400h233zM763 -37q-296 0 -480 172t-185 451q0 377 247 639t607 262q164 0 299 -56t215 -165l-198 -150q-113 154 -324 154q-250 0 -417 -198t-167 -454q0 -194 119 -314t326 -120q160 4 264 56l64 368h-312l41 219h555l-129 -749
q-229 -115 -525 -115z" />
    <glyph glyph-name="gcommaaccent" unicode="&#x123;" horiz-adv-x="1294" 
d="M555 1155l252 399h201l-220 -399h-233zM315 432q0 -112 65 -184t177 -72q143 0 244 115q100 115 100 270q-1 113 -69 185t-181 71q-150 -1 -243 -111t-93 -274zM620 1010q242 0 328 -176h6l25 149h229l-155 -899q-47 -281 -189 -428t-426 -148q-129 0 -262 48t-211 129
l160 174q119 -141 303 -141t266 87q82 88 117 252l16 78h-4q-117 -154 -338 -153q-188 0 -302 116t-113 305q0 256 153 432q155 175 397 175z" />
    <glyph glyph-name="Hcircumflex" unicode="&#x124;" horiz-adv-x="1492" 
d="M1268 1565h-221l-111 186l-176 -186h-230l287 295h270zM1221 0h-252l112 645h-663l-115 -645h-252l256 1450h252l-104 -588h665l105 588h252z" />
    <glyph glyph-name="hcircumflex" unicode="&#x125;" horiz-adv-x="1196" 
d="M1155 1630h-221l-111 187l-176 -187h-229l287 295h270zM809 639q0 166 -162 166q-109 0 -179 -79t-91 -191l-94 -535h-240l272 1548h242l-125 -704h4q45 72 123 119t180 47q156 0 239 -87t83 -218q0 -51 -8 -93l-109 -612h-239l94 541q10 55 10 98z" />
    <glyph glyph-name="Hbar" unicode="&#x126;" horiz-adv-x="1492" 
d="M455 862h665l29 162h-666zM1221 0h-252l112 645h-663l-115 -645h-252l256 1450h252l-49 -272h666l49 272h252z" />
    <glyph glyph-name="hbar" unicode="&#x127;" horiz-adv-x="1196" 
d="M739 1010q156 0 239 -87t83 -218q0 -51 -8 -93l-109 -612h-239l94 541q10 55 10 98q0 166 -162 166q-109 0 -179 -79t-91 -191l-94 -535h-240l205 1167h-152l29 154h149l41 227h242l-41 -227h313l-28 -154h-312l-57 -323h4q45 72 123 119t180 47z" />
    <glyph glyph-name="Itilde" unicode="&#x128;" horiz-adv-x="595" 
d="M346 1829q80 0 158 -38t123 -38q68 0 108 90h135q-88 -256 -274 -256q-68 0 -150 39t-138 39q-58 0 -103 -92h-135q88 256 276 256zM303 0h-252l256 1450h252z" />
    <glyph glyph-name="itilde" unicode="&#x129;" horiz-adv-x="546" 
d="M254 1419q80 0 158 -38t123 -38q68 0 108 91h135q-88 -256 -274 -256q-68 0 -150 38t-138 39q-56 0 -103 -92h-136q88 256 277 256zM283 0h-240l172 983h242z" />
    <glyph glyph-name="Imacron" unicode="&#x12a;" horiz-adv-x="595" 
d="M780 1628h-649l27 158h651zM303 0h-252l256 1450h252z" />
    <glyph glyph-name="imacron" unicode="&#x12b;" horiz-adv-x="546" 
d="M690 1219h-649l27 157h651zM283 0h-240l172 983h242z" />
    <glyph glyph-name="Iogonek" unicode="&#x12e;" horiz-adv-x="575" 
d="M106 -477q-188 0 -188 164q0 141 240 313h-107l256 1450h252l-256 -1450h-18q-201 -162 -201 -272q0 -72 82 -72q57 0 115 43l32 -98q-113 -78 -207 -78z" />
    <glyph glyph-name="iogonek" unicode="&#x12f;" horiz-adv-x="546" 
d="M397 1462q59 0 99 -39t41 -101q0 -62 -42 -106q-41 -44 -103 -45q-62 0 -103 38q-41 39 -41 103t45 107t104 43zM88 -477q-188 0 -188 164q0 141 239 313h-96l172 983h242l-174 -983h-17q-201 -162 -200 -272q0 -72 81 -72q57 0 115 43l33 -98q-113 -78 -207 -78z" />
    <glyph glyph-name="Idotaccent" unicode="&#x130;" horiz-adv-x="595" 
d="M614 1732q0 -62 -42 -106t-103 -45q-61 0 -102 38t-41 102q0 63 45 107t104 44t99 -39t40 -101zM303 0h-252l256 1450h252z" />
    <glyph glyph-name="dotlessi" unicode="&#x131;" horiz-adv-x="546" 
d="M283 0h-240l172 983h242z" />
    <glyph glyph-name="Jcircumflex" unicode="&#x134;" horiz-adv-x="1024" 
d="M1270 1565h-221l-111 186l-176 -186h-230l287 295h271zM356 -37q-170 0 -278 87t-127 231l235 67q8 -70 52 -116t112 -46q111 0 163 74t77 215l172 975h254l-174 -983q-49 -271 -172 -392q-49 -48 -130 -80t-184 -32z" />
    <glyph glyph-name="jcircumflex" unicode="&#x135;" horiz-adv-x="546" 
d="M727 1155h-221l-111 186l-176 -186h-229l286 295h271zM-118 -492q-82 0 -132 13l47 205q27 -8 66 -9q79 -1 113 53t53 156l186 1057h242l-185 -1049q-30 -181 -112 -298q-45 -62 -121 -95q-75 -33 -157 -33z" />
    <glyph glyph-name="Kcommaaccent" unicode="&#x136;" horiz-adv-x="1323" 
d="M709 -92l-252 -400h-201l219 400h234zM1253 0h-329l-490 729h-6l-127 -729h-250l256 1450h250l-115 -643h7l653 643h340l-752 -684z" />
    <glyph glyph-name="kcommaaccent" unicode="&#x137;" horiz-adv-x="1067" 
d="M571 -92l-252 -400h-200l219 400h233zM985 0h-297l-309 504h-6l-90 -504h-240l272 1548h242l-174 -981h6l445 416h315l-522 -457z" />
    <glyph glyph-name="Lacute" unicode="&#x139;" horiz-adv-x="1046" 
d="M872 1860l-337 -295h-191l256 295h272zM924 0h-873l256 1450h252l-217 -1225h621z" />
    <glyph glyph-name="lacute" unicode="&#x13a;" horiz-adv-x="546" 
d="M854 1917l-338 -295h-190l256 295h272zM283 0h-240l272 1548h242z" />
    <glyph glyph-name="Lcommaaccent" unicode="&#x13b;" horiz-adv-x="1046" 
d="M592 -92l-252 -400h-201l219 400h234zM924 0h-873l256 1450h252l-217 -1225h621z" />
    <glyph glyph-name="lcommaaccent" unicode="&#x13c;" horiz-adv-x="546" 
d="M281 -92l-252 -400h-201l219 400h234zM283 0h-240l272 1548h242z" />
    <glyph glyph-name="Lcaron" unicode="&#x13d;" horiz-adv-x="1046" 
d="M1073 1450l-252 -399h-200l219 399h233zM924 0h-873l256 1450h252l-217 -1225h621z" />
    <glyph glyph-name="lcaron" unicode="&#x13e;" horiz-adv-x="712" 
d="M989 1450l-252 -399h-200l219 399h233zM283 0h-240l272 1548h242z" />
    <glyph glyph-name="Ldot" unicode="&#x13f;" horiz-adv-x="1046" 
d="M770 1012q59 0 99 -40t40 -101q0 -62 -42 -106t-103 -44t-102 38t-41 102q0 63 45 107t104 44zM924 0h-873l256 1450h252l-217 -1225h621z" />
    <glyph glyph-name="ldot" unicode="&#x140;" horiz-adv-x="800" 
d="M690 1073q59 0 99 -39t40 -101q0 -63 -42 -107t-103 -44t-102 38t-41 102t45 108q45 43 104 43zM283 0h-240l272 1548h242z" />
    <glyph glyph-name="Lslash" unicode="&#x141;" horiz-adv-x="1060" 
d="M924 0h-873l74 416l-168 -127l39 221l168 127l143 813h252l-108 -619l487 371l-39 -219l-487 -373l-70 -385h621z" />
    <glyph glyph-name="lslash" unicode="&#x142;" horiz-adv-x="530" 
d="M592 948l-166 -139l-143 -809h-240l109 614l-168 -143l39 219l167 144l125 714h242l-94 -526l168 143z" />
    <glyph glyph-name="Nacute" unicode="&#x143;" horiz-adv-x="1613" 
d="M1317 1860l-338 -295h-191l256 295h273zM1294 0h-313l-475 1126h-4l-199 -1126h-252l256 1450h328l467 -1092h4l192 1092h252z" />
    <glyph glyph-name="nacute" unicode="&#x144;" horiz-adv-x="1196" 
d="M1047 1450l-338 -295h-191l256 295h273zM1061 705q0 -51 -8 -93l-109 -612h-239l94 541q10 55 10 98q0 166 -162 166q-109 0 -179 -78t-89 -186l-96 -541h-240l135 772q20 102 31 211h225q-2 -39 -18 -154h4q115 180 319 181q156 0 239 -87t83 -218z" />
    <glyph glyph-name="Ncommaaccent" unicode="&#x145;" horiz-adv-x="1613" 
d="M778 -92l-252 -400h-200l219 400h233zM1294 0h-313l-475 1126h-4l-199 -1126h-252l256 1450h328l467 -1092h4l192 1092h252z" />
    <glyph glyph-name="ncommaaccent" unicode="&#x146;" horiz-adv-x="1196" 
d="M606 -92l-252 -400h-200l219 400h233zM1061 705q0 -51 -8 -93l-109 -612h-239l94 541q10 55 10 98q0 166 -162 166q-109 0 -179 -78t-89 -186l-96 -541h-240l135 772q20 102 31 211h225q-2 -39 -18 -154h4q115 180 319 181q156 0 239 -87t83 -218z" />
    <glyph glyph-name="Ncaron" unicode="&#x147;" horiz-adv-x="1613" 
d="M1352 1860l-287 -295h-268l-181 295h224l108 -187l176 187h228zM1294 0h-313l-475 1126h-4l-199 -1126h-252l256 1450h328l467 -1092h4l192 1092h252z" />
    <glyph glyph-name="ncaron" unicode="&#x148;" horiz-adv-x="1196" 
d="M1096 1450l-287 -295h-268l-181 295h224l108 -186l176 186h228zM1061 705q0 -51 -8 -93l-109 -612h-239l94 541q10 55 10 98q0 166 -162 166q-109 0 -179 -78t-89 -186l-96 -541h-240l135 772q20 102 31 211h225q-2 -39 -18 -154h4q115 180 319 181q156 0 239 -87
t83 -218z" />
    <glyph glyph-name="Omacron" unicode="&#x14c;" horiz-adv-x="1697" 
d="M1335 1628h-649l27 158h651zM797 184q261 0 415 195t154 457q0 186 -117 310t-321 124q-252 0 -411 -197t-159 -455q0 -186 117 -310t322 -124zM940 1487q310 0 498 -169t188 -460q0 -244 -106 -448t-296 -326q-190 -121 -427 -121q-322 0 -510 169t-189 460
q0 373 243 634t599 261z" />
    <glyph glyph-name="omacron" unicode="&#x14d;" horiz-adv-x="1236" 
d="M1040 1219h-649l27 157h651zM885 559q0 111 -69 183t-183 71q-150 0 -245 -114t-95 -273q1 -114 67 -184t183 -70q152 0 247 112t95 275zM530 -27q-207 0 -341 120t-134 308q0 250 166 429t428 180q209 0 343 -119t134 -307q0 -254 -166 -432t-430 -179z" />
    <glyph glyph-name="Obreve" unicode="&#x14e;" horiz-adv-x="1697" 
d="M680 1860h135q0 -137 189 -138q96 0 152 29t83 109h133q-37 -146 -136 -220t-247 -73q-309 0 -309 293zM797 184q261 0 415 195t154 457q0 186 -117 310t-321 124q-252 0 -411 -197t-159 -455q0 -186 117 -310t322 -124zM940 1487q310 0 498 -169t188 -460
q0 -244 -106 -448t-296 -326q-190 -121 -427 -121q-322 0 -510 169t-189 460q0 373 243 634t599 261z" />
    <glyph glyph-name="obreve" unicode="&#x14f;" horiz-adv-x="1236" 
d="M702 1157q-309 0 -309 293h135q0 -137 189 -137q96 1 152 29t83 108h133q-37 -145 -136 -219t-247 -74zM885 559q0 111 -69 183t-183 71q-150 0 -245 -114t-95 -273q1 -114 67 -184t183 -70q152 0 247 112t95 275zM530 -27q-207 0 -341 120t-134 308q0 250 166 429
t428 180q209 0 343 -119t134 -307q0 -254 -166 -432t-430 -179z" />
    <glyph glyph-name="Ohungarumlaut" unicode="&#x150;" horiz-adv-x="1697" 
d="M1214 1860l-340 -295h-188l254 295h274zM1634 1860l-340 -295h-190l256 295h274zM797 184q261 0 415 195t154 457q0 186 -117 310t-321 124q-252 0 -411 -197t-159 -455q0 -186 117 -310t322 -124zM940 1487q310 0 498 -169t188 -460q0 -244 -106 -448t-296 -326
q-190 -121 -427 -121q-322 0 -510 169t-189 460q0 373 243 634t599 261z" />
    <glyph glyph-name="ohungarumlaut" unicode="&#x151;" horiz-adv-x="1236" 
d="M915 1450l-340 -295h-188l254 295h274zM1335 1450l-340 -295h-190l256 295h274zM885 559q0 111 -69 183t-183 71q-150 0 -245 -114t-95 -273q1 -114 67 -184t183 -70q152 0 247 112t95 275zM530 -27q-207 0 -341 120t-134 308q0 250 166 429t428 180q209 0 343 -119
t134 -307q0 -254 -166 -432t-430 -179z" />
    <glyph glyph-name="OE" unicode="&#x152;" horiz-adv-x="2060" 
d="M983 1450h1102l-39 -221h-668l-65 -375h637l-39 -213h-635l-74 -416h725l-39 -225h-1114q-262 0 -459 139q-98 70 -157 191t-60 276q0 380 250 612t635 232zM973 1235q-287 0 -450 -173t-163 -417q0 -184 121 -304t355 -120h120l179 1014h-162z" />
    <glyph glyph-name="oe" unicode="&#x153;" horiz-adv-x="1964" 
d="M885 559q0 111 -69 183t-183 71q-145 0 -243 -115t-97 -272q1 -114 67 -184t198 -70t230 114t97 273zM1632 639q0 82 -58 136t-166 54q-108 1 -190 -75t-100 -166h510q4 37 4 51zM55 401q0 252 171 430q171 179 437 179t365 -195q152 195 412 195q182 0 296 -102
t113 -292q0 -100 -24 -200h-729q-2 -10 -2 -23q0 -96 74 -161t184 -64q166 0 280 129l137 -129q-180 -196 -452 -196t-381 188q-135 -186 -414 -187q-207 0 -337 119t-130 309z" />
    <glyph glyph-name="Racute" unicode="&#x154;" horiz-adv-x="1277" 
d="M1130 1860l-337 -295h-191l256 295h272zM631 825q346 0 346 224q0 102 -72 145t-207 43h-182l-74 -412h189zM737 1450q238 0 369 -99t131 -273q1 -174 -101 -282q-102 -110 -280 -149l301 -647h-285l-274 618h-192l-107 -618h-248l256 1450h430z" />
    <glyph glyph-name="racute" unicode="&#x155;" horiz-adv-x="694" 
d="M831 1450l-337 -295h-191l256 295h272zM412 819h4q115 190 289 191q35 0 59 -6l-33 -224q-116 30 -207 -18q-91 -47 -135 -162q-14 -37 -20 -74l-93 -526h-239l137 772q20 102 31 211h225q-4 -60 -18 -164z" />
    <glyph glyph-name="Rcommaaccent" unicode="&#x156;" horiz-adv-x="1277" 
d="M664 -92l-252 -400h-201l219 400h234zM631 825q346 0 346 224q0 102 -72 145t-207 43h-182l-74 -412h189zM737 1450q238 0 369 -99t131 -273q1 -174 -101 -282q-102 -110 -280 -149l301 -647h-285l-274 618h-192l-107 -618h-248l256 1450h430z" />
    <glyph glyph-name="rcommaaccent" unicode="&#x157;" horiz-adv-x="694" 
d="M272 -92l-252 -400h-200l219 400h233zM412 819h4q115 190 289 191q35 0 59 -6l-33 -224q-116 30 -207 -18q-91 -47 -135 -162q-14 -37 -20 -74l-93 -526h-239l137 772q20 102 31 211h225q-4 -60 -18 -164z" />
    <glyph glyph-name="Rcaron" unicode="&#x158;" horiz-adv-x="1277" 
d="M1163 1860l-286 -295h-269l-180 295h223l109 -187l176 187h227zM631 825q346 0 346 224q0 102 -72 145t-207 43h-182l-74 -412h189zM737 1450q238 0 369 -99t131 -273q1 -174 -101 -282q-102 -110 -280 -149l301 -647h-285l-274 618h-192l-107 -618h-248l256 1450h430z
" />
    <glyph glyph-name="rcaron" unicode="&#x159;" horiz-adv-x="694" 
d="M911 1450l-286 -295h-269l-180 295h223l109 -186l176 186h227zM412 819h4q115 190 289 191q35 0 59 -6l-33 -224q-116 30 -207 -18q-91 -47 -135 -162q-14 -37 -20 -74l-93 -526h-239l137 772q20 102 31 211h225q-4 -60 -18 -164z" />
    <glyph glyph-name="Sacute" unicode="&#x15a;" horiz-adv-x="1175" 
d="M1135 1860l-338 -295h-191l256 295h273zM713 1278q-95 0 -181 -56t-86 -167q0 -72 50 -117t151 -82q201 -74 298 -173t97 -257t-86 -266q-156 -197 -475 -197q-153 1 -289 61t-210 175l204 141q41 -74 125 -119t192 -45q109 0 191 57t82 162t-67 160q-69 55 -209 105
t-225 136t-85 240q0 209 161 330t388 121q117 1 232 -49t178 -140l-184 -147q-82 127 -252 127z" />
    <glyph glyph-name="sacute" unicode="&#x15b;" horiz-adv-x="909" 
d="M948 1450l-338 -295h-190l256 295h272zM362 160q84 0 135 33q50 33 50 86t-37 81t-159 65q-123 38 -187 96t-64 165q0 140 122 232t306 92q252 0 355 -170l-187 -111q-61 96 -186 96q-72 1 -123 -27t-51 -80t37 -76t121 -48q145 -41 217 -110t71 -185q0 -156 -123 -246
t-303 -90q-284 0 -405 197l186 123q63 -123 225 -123z" />
    <glyph glyph-name="Scircumflex" unicode="&#x15c;" horiz-adv-x="1175" 
d="M1151 1608h-221l-111 186l-176 -186h-229l286 295h271zM713 1278q-95 0 -181 -56t-86 -167q0 -72 50 -117t151 -82q201 -74 298 -173t97 -257t-86 -266q-156 -197 -475 -197q-153 1 -289 61t-210 175l204 141q41 -74 125 -119t192 -45q109 0 191 57t82 162t-67 160
q-69 55 -209 105t-225 136t-85 240q0 209 161 330t388 121q117 1 232 -49t178 -140l-184 -147q-82 127 -252 127z" />
    <glyph glyph-name="scircumflex" unicode="&#x15d;" horiz-adv-x="909" 
d="M936 1155h-221l-111 186l-176 -186h-229l286 295h271zM362 160q84 0 135 33q50 33 50 86t-37 81t-159 65q-123 38 -187 96t-64 165q0 140 122 232t306 92q252 0 355 -170l-187 -111q-61 96 -186 96q-72 1 -123 -27t-51 -80t37 -76t121 -48q145 -41 217 -110t71 -185
q0 -156 -123 -246t-303 -90q-284 0 -405 197l186 123q63 -123 225 -123z" />
    <glyph glyph-name="Scedilla" unicode="&#x15e;" horiz-adv-x="1175" 
d="M690 -283q0 -109 -91 -159t-213 -50t-214 54l55 98q72 -41 160 -41q133 0 133 84q0 74 -96 74q-43 0 -82 -13l-37 52l129 149q-141 7 -263 67t-189 167l204 141q41 -74 125 -119t192 -45q109 0 191 57t82 162t-67 160q-69 55 -209 105t-225 136t-85 240q0 209 161 330
t388 121q117 0 232 -49t178 -140l-184 -147q-82 127 -252 127q-95 0 -181 -56t-86 -167q0 -72 50 -117t151 -82q201 -74 298 -173t97 -257q0 -109 -41 -196t-111 -140q-142 -107 -339 -123l-86 -100q18 4 41 4q70 0 127 -37t57 -117z" />
    <glyph glyph-name="scedilla" unicode="&#x15f;" horiz-adv-x="909" 
d="M545 -283q0 -109 -91 -159t-213 -50t-214 54l55 98q72 -41 160 -41q133 0 133 84q0 74 -96 74q-41 0 -82 -13l-37 52l129 151q-236 23 -338 193l186 123q63 -123 225 -123q84 0 135 33q50 33 50 86t-37 81t-159 65q-123 38 -187 96t-64 165q0 140 122 232t306 92
q252 0 355 -170l-187 -111q-61 96 -186 96q-72 1 -123 -27t-51 -80t37 -76t121 -48q145 -41 217 -110t71 -185q0 -145 -108 -233t-268 -101l-87 -98q18 4 41 4q70 0 128 -37t57 -117z" />
    <glyph glyph-name="Scaron" unicode="&#x160;" horiz-adv-x="1175" 
d="M1161 1860l-287 -295h-268l-180 295h223l109 -187l176 187h227zM713 1278q-95 0 -181 -56t-86 -167q0 -72 50 -117t151 -82q201 -74 298 -173t97 -257t-86 -266q-156 -197 -475 -197q-153 1 -289 61t-210 175l204 141q41 -74 125 -119t192 -45q109 0 191 57t82 162
t-67 160q-69 55 -209 105t-225 136t-85 240q0 209 161 330t388 121q117 1 232 -49t178 -140l-184 -147q-82 127 -252 127z" />
    <glyph glyph-name="scaron" unicode="&#x161;" horiz-adv-x="909" 
d="M967 1450l-287 -295h-268l-181 295h224l108 -186l176 186h228zM362 160q84 0 135 33q50 33 50 86t-37 81t-159 65q-123 38 -187 96t-64 165q0 140 122 232t306 92q252 0 355 -170l-187 -111q-61 96 -186 96q-72 1 -123 -27t-51 -80t37 -76t121 -48q145 -41 217 -110
t71 -185q0 -156 -123 -246t-303 -90q-284 0 -405 197l186 123q63 -123 225 -123z" />
    <glyph glyph-name="Tcommaaccent" unicode="&#x162;" horiz-adv-x="1091" 
d="M553 -92l-252 -400h-201l219 400h234zM1204 1229h-426l-217 -1229h-252l215 1229h-430l39 221h1110z" />
    <glyph glyph-name="tcommaaccent" unicode="&#x163;" horiz-adv-x="696" 
d="M401 -92l-251 -400h-201l219 400h233zM475 174q45 0 92 14l-14 -182q-66 -27 -150 -26q-287 0 -286 227q0 68 12 125l84 456h-174l35 195h170l49 287h237l-49 -287h221l-34 -195h-217l-86 -462q-6 -31 -7 -58q0 -94 117 -94z" />
    <glyph glyph-name="Tcaron" unicode="&#x164;" horiz-adv-x="1091" 
d="M1118 1860l-287 -295h-268l-180 295h223l109 -187l176 187h227zM1204 1229h-426l-217 -1229h-252l215 1229h-430l39 221h1110z" />
    <glyph glyph-name="tcaron" unicode="&#x165;" horiz-adv-x="737" 
d="M1022 1497l-252 -399h-201l219 399h234zM475 174q45 0 92 14l-14 -182q-66 -27 -150 -26q-287 0 -286 227q0 68 12 125l84 456h-174l35 195h170l49 287h237l-49 -287h221l-34 -195h-217l-86 -462q-6 -31 -7 -58q0 -94 117 -94z" />
    <glyph glyph-name="Tbar" unicode="&#x166;" horiz-adv-x="1091" 
d="M1065 1038l-29 -153h-319l-156 -885h-252l154 885h-316l29 153h313l35 191h-430l39 221h1110l-39 -221h-426l-35 -191h322z" />
    <glyph glyph-name="tbar" unicode="&#x167;" horiz-adv-x="696" 
d="M475 174q45 0 92 14l-14 -182q-66 -27 -150 -26q-287 0 -286 227q0 68 12 125l21 117h-140l29 153h139l35 186h-174l35 195h170l49 287h237l-49 -287h221l-34 -195h-217l-35 -186h194l-28 -153h-195l-22 -123q-6 -31 -7 -58q0 -94 117 -94z" />
    <glyph glyph-name="Utilde" unicode="&#x168;" horiz-adv-x="1462" 
d="M795 1829q79 0 157 -38t123 -38q68 0 109 90h135q-88 -256 -275 -256q-68 0 -150 39t-138 39t-103 -92h-135q88 256 277 256zM672 -37q-260 0 -405 122q-144 122 -144 331q0 66 10 116l162 918h252l-160 -907q-8 -39 -8 -94q0 -115 71 -190t216 -75q313 0 378 359
l160 907h254l-162 -918q-48 -268 -206 -418t-418 -151z" />
    <glyph glyph-name="utilde" unicode="&#x169;" horiz-adv-x="1196" 
d="M563 1419q80 0 158 -38t123 -38q68 0 108 91h135q-88 -256 -274 -256q-67 0 -149 38t-140 39q-58 0 -102 -92h-135q88 256 276 256zM72 279q0 51 8 92l108 612h240l-94 -541q-10 -55 -10 -98q0 -166 161 -166q109 0 180 78t89 186l96 541h240l-136 -772
q-20 -102 -30 -211h-226q3 39 19 154h-4q-115 -180 -320 -181q-157 0 -239 87t-82 219z" />
    <glyph glyph-name="Umacron" unicode="&#x16a;" horiz-adv-x="1462" 
d="M1223 1628h-650l27 158h651zM672 -37q-260 0 -405 122q-144 122 -144 331q0 66 10 116l162 918h252l-160 -907q-8 -39 -8 -94q0 -115 71 -190t216 -75q313 0 378 359l160 907h254l-162 -918q-48 -268 -206 -418t-418 -151z" />
    <glyph glyph-name="umacron" unicode="&#x16b;" horiz-adv-x="1196" 
d="M999 1219h-649l27 157h651zM72 279q0 51 8 92l108 612h240l-94 -541q-10 -55 -10 -98q0 -166 161 -166q109 0 180 78t89 186l96 541h240l-136 -772q-20 -102 -30 -211h-226q3 39 19 154h-4q-115 -180 -320 -181q-157 0 -239 87t-82 219z" />
    <glyph glyph-name="Ubreve" unicode="&#x16c;" horiz-adv-x="1462" 
d="M711 1860q0 -137 188 -138q96 0 153 29q56 29 83 109h133q-37 -146 -136 -220t-247 -73q-309 0 -310 293h136zM672 -37q-260 0 -405 122q-144 122 -144 331q0 66 10 116l162 918h252l-160 -907q-8 -39 -8 -94q0 -115 71 -190t216 -75q313 0 378 359l160 907h254
l-162 -918q-48 -268 -206 -418t-418 -151z" />
    <glyph glyph-name="ubreve" unicode="&#x16d;" horiz-adv-x="1196" 
d="M657 1157q-309 0 -309 293h135q0 -137 189 -137q96 1 152 29t83 108h133q-37 -145 -136 -219t-247 -74zM72 279q0 51 8 92l108 612h240l-94 -541q-10 -55 -10 -98q0 -166 161 -166q109 0 180 78t89 186l96 541h240l-136 -772q-20 -102 -30 -211h-226q3 39 19 154h-4
q-115 -180 -320 -181q-157 0 -239 87t-82 219z" />
    <glyph glyph-name="Uring" unicode="&#x16e;" horiz-adv-x="1462" 
d="M1028 1757q0 49 -26 80t-74 31t-82 -39q-35 -39 -35 -89t25 -79q24 -29 72 -29t84 38t36 87zM1128 1771q0 -89 -66 -159t-157 -70q-90 0 -142 50t-52 138t66 158q67 70 158 70t142 -49t51 -138zM672 -37q-260 0 -405 122q-144 122 -144 331q0 66 10 116l162 918h252
l-160 -907q-8 -39 -8 -94q0 -115 71 -190t216 -75q313 0 378 359l160 907h254l-162 -918q-48 -268 -206 -418t-418 -151z" />
    <glyph glyph-name="uring" unicode="&#x16f;" horiz-adv-x="1196" 
d="M803 1348q0 50 -26 80q-25 30 -73 30t-83 -39t-35 -89t24 -79t73 -29q48 0 84 39q36 38 36 87zM680 1133q-90 0 -142 50t-52 138t66 158q67 69 158 69t142 -49t51 -138t-66 -159q-67 -69 -157 -69zM72 279q0 51 8 92l108 612h240l-94 -541q-10 -55 -10 -98
q0 -166 161 -166q109 0 180 78t89 186l96 541h240l-136 -772q-20 -102 -30 -211h-226q3 39 19 154h-4q-115 -180 -320 -181q-157 0 -239 87t-82 219z" />
    <glyph glyph-name="Uhungarumlaut" unicode="&#x170;" horiz-adv-x="1462" 
d="M1106 1860l-340 -295h-188l253 295h275zM1526 1860l-340 -295h-191l256 295h275zM672 -37q-260 0 -405 122q-144 122 -144 331q0 66 10 116l162 918h252l-160 -907q-8 -39 -8 -94q0 -115 71 -190t216 -75q313 0 378 359l160 907h254l-162 -918q-48 -268 -206 -418
t-418 -151z" />
    <glyph glyph-name="uhungarumlaut" unicode="&#x171;" horiz-adv-x="1196" 
d="M874 1450l-339 -295h-189l254 295h274zM1294 1450l-340 -295h-190l256 295h274zM72 279q0 51 8 92l108 612h240l-94 -541q-10 -55 -10 -98q0 -166 161 -166q109 0 180 78t89 186l96 541h240l-136 -772q-20 -102 -30 -211h-226q3 39 19 154h-4q-115 -180 -320 -181
q-157 0 -239 87t-82 219z" />
    <glyph glyph-name="Uogonek" unicode="&#x172;" horiz-adv-x="1462" 
d="M618 -477q-188 0 -188 164q0 131 193 278q-233 8 -367 129q-133 121 -133 322q0 66 10 116l162 918h252l-160 -907q-8 -39 -8 -94q0 -115 71 -190t216 -75q313 0 378 359l160 907h254l-162 -918q-45 -244 -179 -391t-359 -172q-162 -141 -162 -241q0 -72 82 -72
q57 0 115 43l32 -98q-113 -78 -207 -78z" />
    <glyph glyph-name="uogonek" unicode="&#x173;" horiz-adv-x="1196" 
d="M641 -477q-188 0 -188 164q0 143 245 317q2 39 19 150h-4q-115 -180 -320 -181q-157 0 -239 87t-82 219q0 51 8 92l108 612h240l-94 -541q-10 -55 -10 -98q0 -166 161 -166q109 0 180 78t89 186l96 541h240l-136 -772q-20 -102 -30 -211h-105q-201 -162 -201 -272
q0 -72 82 -72q57 0 115 43l33 -98q-113 -78 -207 -78z" />
    <glyph glyph-name="Wcircumflex" unicode="&#x174;" horiz-adv-x="2017" 
d="M1524 1565h-221l-111 186l-176 -186h-230l287 295h270zM2161 1450l-703 -1450h-246l-133 1096h-4l-549 -1096h-245l-136 1450h267l71 -1073h4l525 1073h262l112 -1073h5l501 1073h269z" />
    <glyph glyph-name="wcircumflex" unicode="&#x175;" horiz-adv-x="1607" 
d="M1253 1155h-221l-110 186l-177 -186h-229l287 295h270zM1679 983l-534 -983h-246l-88 694h-4l-367 -694h-245l-136 983h252l68 -707h4l352 707h252l80 -707h4l356 707h252z" />
    <glyph glyph-name="Ycircumflex" unicode="&#x176;" horiz-adv-x="1177" 
d="M1104 1565h-221l-111 186l-176 -186h-229l286 295h271zM1403 1450l-701 -821l-112 -629h-252l111 629l-363 821h283l241 -614l486 614h307z" />
    <glyph glyph-name="ycircumflex" unicode="&#x177;" horiz-adv-x="1036" 
d="M983 1155h-221l-111 186l-176 -186h-229l286 295h271zM39 -492q-68 0 -125 15l31 209q43 -14 98 -14t93 33q38 34 87 120l74 127l-221 985h258l127 -721h4l393 721h254l-696 -1196q-84 -147 -164 -213t-213 -66z" />
    <glyph glyph-name="Ydieresis" unicode="&#x178;" horiz-adv-x="1177" 
d="M1098 1734q0 -62 -40 -104t-102 -43q-62 0 -100 37q-39 37 -39 100q0 62 43 104q42 42 102 42t98 -37t38 -99zM692 1734q0 -62 -40 -104t-101 -43q-61 0 -100 37t-39 100q0 62 43 104t102 42t97 -37t38 -99zM1403 1450l-701 -821l-112 -629h-252l111 629l-363 821h283
l241 -614l486 614h307z" />
    <glyph glyph-name="Zacute" unicode="&#x179;" horiz-adv-x="1204" 
d="M1165 1860l-338 -295h-190l256 295h272zM1044 0h-1126l39 227l954 1002h-688l39 221h1018l-41 -227l-948 -998h794z" />
    <glyph glyph-name="zacute" unicode="&#x17a;" horiz-adv-x="983" 
d="M983 1450l-338 -295h-190l256 295h272zM803 0h-844l37 211l641 580h-500l33 192h793l-37 -211l-637 -575h549z" />
    <glyph glyph-name="Zdotaccent" unicode="&#x17b;" horiz-adv-x="1204" 
d="M821 1872q59 0 99 -39t41 -101q0 -62 -42 -106q-41 -44 -103 -45q-62 0 -103 38t-41 102q0 63 45 107t104 44zM1044 0h-1126l39 227l954 1002h-688l39 221h1018l-41 -227l-948 -998h794z" />
    <glyph glyph-name="zdotaccent" unicode="&#x17c;" horiz-adv-x="983" 
d="M768 1322q0 -62 -42 -106t-103 -45q-61 0 -103 38q-41 39 -41 103t45 107q44 43 104 43t100 -39t40 -101zM803 0h-844l37 211l641 580h-500l33 192h793l-37 -211l-637 -575h549z" />
    <glyph glyph-name="Zcaron" unicode="&#x17d;" horiz-adv-x="1204" 
d="M1194 1860l-287 -295h-268l-180 295h223l109 -187l176 187h227zM1044 0h-1126l39 227l954 1002h-688l39 221h1018l-41 -227l-948 -998h794z" />
    <glyph glyph-name="zcaron" unicode="&#x17e;" horiz-adv-x="983" 
d="M1010 1450l-287 -295h-268l-181 295h224l108 -186l176 186h228zM803 0h-844l37 211l641 580h-500l33 192h793l-37 -211l-637 -575h549z" />
    <glyph glyph-name="florin" unicode="&#x192;" horiz-adv-x="1249" 
d="M66 -80q64 0 107 53q44 53 85 160l207 557h-232l33 182h266l86 230q66 172 167 272t266 101q118 -1 227 -64l-127 -186q-49 33 -99 33q-95 -1 -139 -66t-73 -143l-68 -177h248l-31 -182h-280l-224 -596q-73 -194 -181 -286t-265 -93q-113 0 -199 49l123 185
q39 -29 103 -29z" />
    <glyph glyph-name="Scommaaccent" unicode="&#x218;" horiz-adv-x="1175" 
d="M592 -92l-252 -400h-201l219 400h234zM713 1278q-95 0 -181 -56t-86 -167q0 -72 50 -117t151 -82q201 -74 298 -173t97 -257t-86 -266q-156 -197 -475 -197q-153 1 -289 61t-210 175l204 141q41 -74 125 -119t192 -45q109 0 191 57t82 162t-67 160q-69 55 -209 105
t-225 136t-85 240q0 209 161 330t388 121q117 1 232 -49t178 -140l-184 -147q-82 127 -252 127z" />
    <glyph glyph-name="scommaaccent" unicode="&#x219;" horiz-adv-x="909" 
d="M436 -92l-252 -400h-200l219 400h233zM362 160q84 0 135 33q50 33 50 86t-37 81t-159 65q-123 38 -187 96t-64 165q0 140 122 232t306 92q252 0 355 -170l-187 -111q-61 96 -186 96q-72 1 -123 -27t-51 -80t37 -76t121 -48q145 -41 217 -110t71 -185q0 -156 -123 -246
t-303 -90q-284 0 -405 197l186 123q63 -123 225 -123z" />
    <glyph glyph-name="uni021A" unicode="&#x21a;" horiz-adv-x="1091" 
d="M553 -92l-252 -400h-201l219 400h234zM1204 1229h-426l-217 -1229h-252l215 1229h-430l39 221h1110z" />
    <glyph glyph-name="uni021B" unicode="&#x21b;" horiz-adv-x="696" 
d="M401 -92l-251 -400h-201l219 400h233zM475 174q45 0 92 14l-14 -182q-66 -27 -150 -26q-287 0 -286 227q0 68 12 125l84 456h-174l35 195h170l49 287h237l-49 -287h221l-34 -195h-217l-86 -462q-6 -31 -7 -58q0 -94 117 -94z" />
    <glyph glyph-name="circumflex" unicode="&#x2c6;" 
d="M727 1155h-221l-111 186l-176 -186h-229l286 295h271z" />
    <glyph glyph-name="caron" unicode="&#x2c7;" 
d="M778 1450l-286 -295h-269l-180 295h223l109 -186l176 186h227z" />
    <glyph glyph-name="uni02C9" unicode="&#x2c9;" 
d="M694 1628h-649l27 158h651z" />
    <glyph glyph-name="breve" unicode="&#x2d8;" 
d="M373 1157q-309 0 -310 293h136q0 -137 188 -137q96 0 153 28q56 29 83 109h133q-37 -145 -136 -219t-247 -74z" />
    <glyph glyph-name="dotaccent" unicode="&#x2d9;" 
d="M397 1462q59 0 99 -39t41 -101q0 -62 -42 -106q-41 -44 -103 -45q-62 0 -103 38q-41 39 -41 103t45 107t104 43z" />
    <glyph glyph-name="ring" unicode="&#x2da;" 
d="M502 1348q0 50 -26 80t-74 30t-82 -39q-36 -39 -36 -89t26 -79q24 -29 72 -29t84 39q36 38 36 87zM379 1133q-90 0 -142 50q-53 50 -53 138t67 158q67 69 158 69t142 -49t51 -138t-66 -159q-67 -69 -157 -69z" />
    <glyph glyph-name="ogonek" unicode="&#x2db;" 
d="M26 -477q-188 0 -188 164q0 145 258 325h123q-215 -174 -215 -284q0 -72 82 -72q57 0 115 43l32 -98q-113 -78 -207 -78z" />
    <glyph glyph-name="tilde" unicode="&#x2dc;" 
d="M262 1419q80 0 158 -38t123 -38q68 0 108 91h135q-88 -256 -274 -256q-68 0 -150 38t-138 39q-56 0 -103 -92h-135q88 256 276 256z" />
    <glyph glyph-name="hungarumlaut" unicode="&#x2dd;" 
d="M575 1450l-339 -295h-189l254 295h274zM995 1450l-340 -295h-190l256 295h274z" />
    <glyph glyph-name="uni0394" unicode="&#x394;" horiz-adv-x="1402" 
d="M1063 213l-379 977l-354 -977h733zM1386 0h-1370l553 1458h236z" />
    <glyph glyph-name="uni03A9" unicode="&#x3a9;" horiz-adv-x="1554" 
d="M1436 0h-566v387q152 31 237 149t85 290t-120 304t-306 132t-306 -130t-120 -306t81 -288t234 -151v-387h-561v217h352v66q-178 55 -265 200t-87 344q0 281 195 465t477 184t476 -180t194 -462q0 -206 -86 -352t-269 -199v-66h355v-217z" />
    <glyph glyph-name="uni03BC" unicode="&#x3bc;" horiz-adv-x="1175" 
d="M139 983h246v-498q0 -204 80 -261q39 -28 100 -27q115 1 170 71t56 178v537h245v-983h-233v158h-4q-84 -182 -281 -183q-92 0 -133 50v-492h-246v1450z" />
    <glyph glyph-name="pi" unicode="&#x3c0;" horiz-adv-x="1214" 
d="M983 -14q-117 0 -160 68t-43 200v520h-374v-774h-240v774h-143v209h1159v-209h-162v-485q0 -37 3 -59t21 -41t58 -19t86 20v-163q-88 -41 -205 -41z" />
    <glyph glyph-name="endash" unicode="&#x2013;" horiz-adv-x="819" 
d="M774 598l-33 -188h-696l33 188h696z" />
    <glyph glyph-name="emdash" unicode="&#x2014;" horiz-adv-x="1228" 
d="M1184 598l-33 -188h-1106l33 188h1106z" />
    <glyph glyph-name="quoteleft" unicode="&#x2018;" horiz-adv-x="548" 
d="M606 1450l-237 -539h-232l269 539h200z" />
    <glyph glyph-name="quoteright" unicode="&#x2019;" horiz-adv-x="548" 
d="M606 1450l-268 -539h-201l238 539h231z" />
    <glyph glyph-name="quotesinglbase" unicode="&#x201a;" horiz-adv-x="548" 
d="M401 279l-270 -539h-201l238 539h233z" />
    <glyph glyph-name="quotedblleft" unicode="&#x201c;" horiz-adv-x="944" 
d="M606 1450l-237 -539h-232l269 539h200zM1004 1450l-238 -539h-234l269 539h203z" />
    <glyph glyph-name="quotedblright" unicode="&#x201d;" horiz-adv-x="944" 
d="M606 1450l-268 -539h-201l238 539h231zM1004 1450l-269 -539h-203l238 539h234z" />
    <glyph glyph-name="quotedblbase" unicode="&#x201e;" horiz-adv-x="944" 
d="M401 279l-270 -539h-201l238 539h233zM797 279l-269 -539h-202l237 539h234z" />
    <glyph glyph-name="dagger" unicode="&#x2020;" horiz-adv-x="1210" 
d="M1165 842h-409l-193 -1100h-229l194 1100h-407l35 192h405l74 416h229l-73 -416h407z" />
    <glyph glyph-name="daggerdbl" unicode="&#x2021;" horiz-adv-x="1210" 
d="M1026 123h-395l-68 -381h-229l67 381h-393l33 194h395l99 560h-394l33 194h393l68 379h229l-67 -379h395l-33 -194h-397l-98 -560h395z" />
    <glyph glyph-name="bullet" unicode="&#x2022;" horiz-adv-x="1024" 
d="M150 725q0 152 105 257t257 105t257 -105t105 -257t-105 -257q-105 -106 -257 -106t-257 106t-105 257z" />
    <glyph glyph-name="ellipsis" unicode="&#x2026;" horiz-adv-x="2048" 
d="M1634 295q62 0 104 -41q42 -42 42 -106t-44 -110t-108 -46t-106 40q-43 40 -43 106t46 112q46 45 109 45zM950 295q62 0 104 -41q42 -42 42 -106t-44 -110t-108 -46t-106 40q-43 40 -43 106t46 112q46 45 109 45zM266 295q62 0 104 -41q42 -42 42 -106t-44 -110t-108 -46
t-106 40q-43 40 -43 106t46 112q46 45 109 45z" />
    <glyph glyph-name="perthousand" unicode="&#x2030;" horiz-adv-x="2457" 
d="M1386 1436l-944 -1504l-127 80l945 1504zM2234 349q0 79 -40 124t-116 45t-133 -60t-57 -140t40 -124q40 -46 117 -46t133 60q56 62 56 141zM2019 -27q-139 0 -229 87t-90 221q0 173 116 293t291 120q139 0 227 -86t89 -217q0 -178 -115 -298t-289 -120zM1434 349
q0 79 -40 124t-117 45t-133 -60t-56 -140t39 -124q40 -46 117 -46q78 0 134 60q56 62 56 141zM1219 -27q-139 0 -230 87q-90 87 -90 221q0 173 116 293t292 120q139 0 227 -86t88 -217q0 -178 -114 -298t-289 -120zM641 1130q0 80 -40 124q-41 44 -117 44t-132 -60t-57 -140
q0 -80 40 -124q41 -46 117 -46t133 61q56 62 56 141zM426 754q-139 0 -229 87t-91 220q0 174 116 294t292 120q139 0 227 -86t88 -218q0 -178 -114 -298q-115 -119 -289 -119z" />
    <glyph glyph-name="guilsinglleft" unicode="&#x2039;" horiz-adv-x="608" 
d="M442 150l-170 -105l-229 463l391 457l133 -103l-299 -354z" />
    <glyph glyph-name="guilsinglright" unicode="&#x203a;" horiz-adv-x="608" 
d="M526 498l-391 -459l-137 111l305 362l-174 358l164 95z" />
    <glyph glyph-name="fraction" unicode="&#x2044;" horiz-adv-x="204" 
d="M702 1436l-1120 -1504l-127 80l1120 1504z" />
    <glyph glyph-name="Euro" unicode="&#x20ac;" horiz-adv-x="1249" 
d="M788 -37q-266 0 -413 139t-162 353h-184l88 176h92q4 78 35 188h-148l92 176h107q86 215 265 353q180 138 400 139q220 0 334 -68l-90 -198q-84 57 -232 57t-256 -75q-110 -75 -173 -208h567l-88 -176h-543q-33 -88 -33 -188h512l-86 -176h-426q10 -123 110 -205t240 -82
q142 0 277 74l49 -191q-141 -88 -334 -88z" />
    <glyph glyph-name="afii61289" unicode="&#x2113;" horiz-adv-x="1024" 
d="M803 1221q-1 41 -21 69t-51 27q-86 0 -121 -164l-84 -391q113 96 195 222t82 237zM1001 1231q0 -322 -520 -682q-59 -248 -59 -301t27 -77t67 -24q74 0 201 82h4l59 -139q-170 -119 -336 -119q-124 1 -194 63t-70 169q0 39 33 188l-129 -100h-4l-68 137l242 168l106 500
q38 180 144 280t254 101q106 0 174 -71t69 -175z" />
    <glyph glyph-name="trademark" unicode="&#x2122;" horiz-adv-x="2045" 
d="M1126 606v844h291l201 -549l201 549h290v-844h-208v549h-5l-206 -549h-144l-207 549h-4v-549h-209zM506 606v660h-250v184h709v-184h-250v-660h-209z" />
    <glyph glyph-name="Omega" unicode="&#x2126;" horiz-adv-x="1554" 
d="M1436 0h-566v387q152 31 237 149t85 290t-120 304t-306 132t-306 -130t-120 -306t81 -288t234 -151v-387h-561v217h352v66q-178 55 -265 200t-87 344q0 281 195 465t477 184t476 -180t194 -462q0 -206 -86 -352t-269 -199v-66h355v-217z" />
    <glyph glyph-name="estimated" unicode="&#x212e;" horiz-adv-x="1236" 
d="M322 604h596v297q-130 123 -302 123t-294 -123v-297zM322 530v-370q121 -121 296 -121q250 0 396 246l71 -43q-94 -147 -200 -212t-267 -65q-236 0 -382 162q-146 163 -146 405t146 403t382 161t382 -158t149 -408h-827z" />
    <glyph glyph-name="partialdiff" unicode="&#x2202;" horiz-adv-x="1138" 
d="M565 723q-131 0 -195 -85t-65 -208q1 -123 59 -204t183 -81q125 1 199 127t69 269l-2 51q-117 131 -248 131zM1053 747q0 -406 -153 -608q-56 -74 -150 -120t-220 -46q-200 0 -324 132t-124 333t123 328t319 127q158 0 293 -113v58q4 162 -61 302q-33 70 -98 114t-150 44
q-125 0 -250 -100l-121 143q175 135 343 135t280 -64q112 -65 174 -174q119 -215 119 -491z" />
    <glyph glyph-name="Delta" unicode="&#x2206;" horiz-adv-x="1402" 
d="M1063 213l-379 977l-354 -977h733zM1386 0h-1370l553 1458h236z" />
    <glyph glyph-name="product" unicode="&#x220f;" horiz-adv-x="1517" 
d="M1391 -438h-234v1837h-797v-1837h-233v2048h1264v-2048z" />
    <glyph glyph-name="summation" unicode="&#x2211;" horiz-adv-x="1327" 
d="M1278 -438h-1227v182l621 854l-594 829v183h1173v-211h-864l563 -799l-600 -827h928v-211z" />
    <glyph glyph-name="minus" unicode="&#x2212;" horiz-adv-x="1363" 
d="M127 725h1110v-209h-1110v209z" />
    <glyph glyph-name="uni2215" unicode="&#x2215;" horiz-adv-x="204" 
d="M702 1436l-1120 -1504l-127 80l1120 1504z" />
    <glyph glyph-name="uni2219" unicode="&#x2219;" 
d="M266 756q62 0 104 -41t42 -105t-44 -111q-44 -46 -108 -46t-106 40q-43 41 -43 107t46 111t109 45z" />
    <glyph glyph-name="radical" unicode="&#x221a;" horiz-adv-x="1099" 
d="M1124 1610l-432 -2048h-217l-311 649l-105 -51l-84 184l304 139l264 -559l344 1686h237z" />
    <glyph glyph-name="infinity" unicode="&#x221e;" horiz-adv-x="1669" 
d="M717 530q-166 176 -283 177q-70 1 -114 -51t-44 -126t44 -120t120 -45q130 -1 277 165zM1235 362q74 0 116 48t42 123t-44 125t-120 51q-113 0 -277 -179q152 -168 283 -168zM1577 538q0 -160 -94 -266t-252 -106q-115 0 -206 60t-189 169q-55 -57 -87 -88
q-98 -95 -170 -117q-73 -22 -137 -22q-158 0 -254 104t-96 264t93 263q93 104 249 104q121 0 212 -63t190 -181q98 117 188 182t209 64q156 0 250 -104t94 -263z" />
    <glyph glyph-name="integral" unicode="&#x222b;" horiz-adv-x="1251" 
d="M473 1014q0 20 -1 80q-4 216 22 302t49 112t53 53q53 47 156 48q102 1 172 -39t71 -118q-1 -47 -31 -77q-30 -29 -80 -29t-77 38t-39 74q-12 37 -35 37q-33 0 -33 -53l9 -250v-1206q0 -170 -52 -288q-60 -138 -243 -138q-86 0 -157 38t-71 117q0 47 32 78t76 31t71 -24
t33 -52q18 -75 48 -74q35 0 35 54v41l-8 208v1037z" />
    <glyph glyph-name="approxequal" unicode="&#x2248;" horiz-adv-x="1363" 
d="M406 287q-54 0 -88 -42t-44 -98h-145q14 147 88 249t211 104q92 0 266 -68q186 -68 250 -68q116 1 139 134h146q-16 -154 -88 -253t-215 -100q-92 0 -280 71t-240 71zM406 713q-50 0 -83 -42q-34 -42 -44 -100h-146q14 147 82 242q78 113 217 113q92 0 266 -68
q186 -68 251 -68q117 1 138 134h146q-16 -152 -89 -252t-216 -101q-96 0 -279 72q-193 70 -243 70z" />
    <glyph glyph-name="notequal" unicode="&#x2260;" horiz-adv-x="1363" 
d="M1200 332h-541l-151 -295l-180 92l102 203h-266v209h371l77 159h-448v209h553l147 293l185 -90l-105 -203h256v-209h-360l-78 -159h438v-209z" />
    <glyph glyph-name="lessequal" unicode="&#x2264;" horiz-adv-x="1363" 
d="M1200 8h-1036v219h1036v-219zM1200 295l-1036 348v221l1036 363v-232l-735 -241l735 -230v-229z" />
    <glyph glyph-name="greaterequal" unicode="&#x2265;" horiz-adv-x="1363" 
d="M164 8v219h1036v-219h-1036zM164 295v229l735 230l-735 241v232l1036 -363v-221z" />
    <glyph glyph-name="lozenge" unicode="&#x25ca;" horiz-adv-x="1214" 
d="M850 729l-244 584l-241 -584l241 -586zM1073 729l-364 -801h-205l-363 801l363 801h205z" />
    <glyph glyph-name="uniF8FF" unicode="&#xf8ff;" horiz-adv-x="1048" 
d="M1049 1470v-1470h-1049v1470h1049zM946 102v1264h-844v-1264h844zM524 1145q-145 0 -168 -195l-102 17q14 141 88 211t186 70t185 -74q72 -74 71 -195q0 -70 -26 -123t-103 -122q-76 -68 -88 -108t-12 -147h-94l-4 35q1 115 29 169t92 118q63 59 82 94q20 35 20 93
t-46 107q-46 50 -110 50zM455 240v137h114v-137h-114z" />
    <glyph glyph-name="ydieresis.sc" horiz-adv-x="991" 
d="M819 1522q59 0 97 -38t38 -99q0 -62 -40 -104t-101 -42t-100 37t-39 100q0 62 43 104t102 42zM268 1376q0 62 43 104t103 42t97 -38q38 -38 38 -99q0 -62 -40 -104t-101 -42t-101 37q-39 37 -39 100zM1116 1110l-541 -649l-81 -461h-246l82 465l-279 645h268l168 -448
l340 448h289z" />
    <glyph glyph-name="n.sc" horiz-adv-x="1302" 
d="M1229 1110l-199 -1110h-282l-318 760h-4l-133 -760h-244l197 1110h282l320 -756h4l133 756h244z" />
    <glyph glyph-name="umacron.sc" horiz-adv-x="1210" 
d="M1042 1280h-649l27 158h651zM506 -29q-186 1 -298 97t-112 251q0 45 8 97l125 694h246l-119 -672q-6 -34 -6 -94t44 -106t144 -48q100 0 166 76t89 197l112 647h248l-121 -682q-37 -207 -167 -332t-359 -125z" />
    <glyph glyph-name="ohungarumlaut.sc" horiz-adv-x="1370" 
d="M999 1511l-340 -294h-188l254 294h274zM1419 1511l-340 -294h-190l256 294h274zM1018 635q0 125 -77 207t-210 82q-172 0 -284 -132t-111 -311q0 -127 77 -210t210 -83q175 0 285 134t110 313zM1274 651q0 -283 -190 -481t-476 -199q-242 0 -385 134t-143 354
q0 283 192 481t478 199q240 -1 382 -135t142 -353z" />
    <glyph glyph-name="iogonek.sc" horiz-adv-x="571" 
d="M-82 -326q0 145 258 326h-127l199 1110h250l-199 -1110q-215 -174 -215 -285q0 -72 82 -71q57 0 115 43l32 -99q-113 -78 -217 -77q-178 0 -178 163z" />
    <glyph glyph-name="p.sc" horiz-adv-x="1046" 
d="M524 612q112 0 168 45t56 113t-44 108q-44 38 -124 37h-121l-53 -303h118zM995 782q0 -162 -118 -261q-119 -99 -338 -99h-166l-76 -422h-248l197 1110h354q195 0 295 -83t100 -245z" />
    <glyph glyph-name="macron.sc" 
d="M694 1280h-649l27 158h651z" />
    <glyph glyph-name="ugrave.sc" horiz-adv-x="1210" 
d="M627 1511l202 -294h-184l-289 294h271zM506 -29q-186 1 -298 97t-112 251q0 45 8 97l125 694h246l-119 -672q-6 -34 -6 -94t44 -106t144 -48q100 0 166 76t89 197l112 647h248l-121 -682q-37 -207 -167 -332t-359 -125z" />
    <glyph glyph-name="oe.sc" horiz-adv-x="1634" 
d="M764 907q-204 0 -316 -119t-112 -294q0 -129 80 -211t237 -82h41l127 706h-57zM612 0q-311 0 -453 200q-79 110 -79 269q0 289 191 465t493 176h823l-35 -197h-491l-45 -249h467l-33 -189h-467l-49 -274h532l-34 -201h-820z" />
    <glyph glyph-name="udieresis.sc" horiz-adv-x="1210" 
d="M940 1522q59 0 97 -38t38 -99q0 -62 -40 -104t-101 -42t-100 37t-39 100q0 62 43 104t102 42zM389 1376q0 62 43 104q42 42 102 42t98 -38t38 -99q0 -62 -40 -104t-102 -42t-100 37q-39 37 -39 100zM506 -29q-186 1 -298 97t-112 251q0 45 8 97l125 694h246l-119 -672
q-6 -34 -6 -94t44 -106t144 -48q100 0 166 76t89 197l112 647h248l-121 -682q-37 -207 -167 -332t-359 -125z" />
    <glyph glyph-name="grave.sc" 
d="M301 1511l203 -294h-185l-288 294h270z" />
    <glyph glyph-name="hungarumlaut.cap" 
d="M575 1860l-339 -295h-189l254 295h274zM995 1860l-340 -295h-190l256 295h274z" />
    <glyph glyph-name="otilde.sc" horiz-adv-x="1370" 
d="M684 1481q80 0 158 -38t123 -38q68 0 108 90h135q-88 -256 -274 -256q-68 0 -150 39t-138 39t-103 -92h-135q88 256 276 256zM1018 635q0 125 -77 207t-210 82q-172 0 -284 -132t-111 -311q0 -127 77 -210t210 -83q175 0 285 134t110 313zM1274 651q0 -283 -190 -481
t-476 -199q-242 0 -385 134t-143 354q0 283 192 481t478 199q240 -1 382 -135t142 -353z" />
    <glyph glyph-name="imacron.sc" horiz-adv-x="571" 
d="M719 1280h-649l26 158h652zM498 1110l-199 -1110h-250l199 1110h250z" />
    <glyph glyph-name="ocircumflex.sc" horiz-adv-x="1370" 
d="M1165 1217h-221l-110 186l-177 -186h-229l287 294h270zM1018 635q0 125 -77 207t-210 82q-172 0 -284 -132t-111 -311q0 -127 77 -210t210 -83q175 0 285 134t110 313zM1274 651q0 -283 -190 -481t-476 -199q-242 0 -385 134t-143 354q0 283 192 481t478 199
q240 -1 382 -135t142 -353z" />
    <glyph glyph-name="perthousand.sc" horiz-adv-x="2129" 
d="M1245 1079l-876 -1151l-127 86l880 1157zM1847 276q0 101 -94 101q-57 0 -91 -39t-34 -100q0 -92 90 -93q59 -1 94 39t35 92zM1758 547q134 1 210 -63q74 -64 74 -191t-96 -222t-228 -95t-209 64q-76 65 -75 175q0 145 95 239t229 93zM522 861q0 104 -92 104
q-57 0 -92 -40t-35 -102q0 -94 92 -94q57 0 92 40t35 92zM717 879q0 -127 -95 -223q-96 -96 -228 -95q-132 0 -208 66t-75 176q0 143 95 236q94 93 228 93t208 -62q74 -64 75 -191zM1192 276q0 101 -94 101q-57 0 -91 -39t-34 -100q0 -92 90 -93q59 -1 94 39t35 92zM778 232
q0 128 95 222t229 93q134 1 210 -63q74 -64 74 -191t-96 -222t-228 -95t-208 64t-76 192z" />
    <glyph glyph-name="napostrophe.sc" horiz-adv-x="1474" 
d="M373 1110l-252 -399h-201l219 399h234zM1401 1110l-199 -1110h-282l-318 760h-4l-133 -760h-244l197 1110h282l320 -756h4l133 756h244z" />
    <glyph glyph-name="ij.sc" horiz-adv-x="1443" 
d="M752 324q26 -134 128 -134t130 175l129 745h245l-131 -754q-27 -156 -110 -271q-83 -114 -295 -114q-114 0 -204 76q-89 76 -116 209zM498 1110l-199 -1110h-250l199 1110h250z" />
    <glyph glyph-name="percent.sc" horiz-adv-x="1509" 
d="M1245 1079l-876 -1151l-127 86l880 1157zM522 861q0 104 -92 104q-57 0 -92 -40t-35 -102q0 -94 92 -94q57 0 92 40t35 92zM717 879q0 -127 -95 -223q-96 -96 -228 -95q-132 0 -208 66t-75 176q0 143 95 236q94 93 228 93t208 -62q74 -64 75 -191zM1192 276
q0 101 -94 101q-57 0 -91 -39t-34 -100q0 -92 90 -93q59 -1 94 39t35 92zM778 232q0 128 95 222t229 93q134 1 210 -63q74 -64 74 -191t-96 -222t-228 -95t-208 64t-76 192z" />
    <glyph glyph-name="obreve.sc" horiz-adv-x="1370" 
d="M469 1511h135q0 -137 189 -137q96 0 152 29t83 108h133q-37 -145 -136 -219t-247 -73q-309 0 -309 292zM1018 635q0 125 -77 207t-210 82q-172 0 -284 -132t-111 -311q0 -127 77 -210t210 -83q175 0 285 134t110 313zM1274 651q0 -283 -190 -481t-476 -199
q-242 0 -385 134t-143 354q0 283 192 481t478 199q240 -1 382 -135t142 -353z" />
    <glyph glyph-name="two.onum" horiz-adv-x="1132" 
d="M393 199h535l-37 -199h-893l35 197l129 71q288 160 338 194l98 68t71 59q23 24 55 66t32 124q0 83 -56 124t-131 41q-156 0 -250 -153l-176 102q70 119 189 187q120 68 274 69q154 0 272 -91t119 -270q0 -179 -170 -317q-87 -70 -157 -114t-187 -103l-90 -49v-6z" />
    <glyph glyph-name="nine.sc" horiz-adv-x="1071" 
d="M524 571q78 1 138 61t59 139q0 79 -46 125t-126 46t-136 -59q-57 -59 -57 -141t45 -126q45 -45 123 -45zM553 1139q188 1 298 -93t110 -273t-185 -398l-305 -375h-305l373 416l-2 6q-39 -16 -101 -16q-145 0 -233 88t-88 244t125 278q125 123 313 123z" />
    <glyph glyph-name="oacute.sc" horiz-adv-x="1370" 
d="M1130 1511l-337 -294h-191l256 294h272zM1018 635q0 125 -77 207t-210 82q-172 0 -284 -132t-111 -311q0 -127 77 -210t210 -83q175 0 285 134t110 313zM1274 651q0 -283 -190 -481t-476 -199q-242 0 -385 134t-143 354q0 283 192 481t478 199q240 -1 382 -135t142 -353z
" />
    <glyph glyph-name="idotaccent.sc" horiz-adv-x="571" 
d="M260 1373q0 63 45 107t105 44t99 -40q40 -40 40 -101q0 -62 -42 -106q-41 -44 -103 -44t-103 38t-41 102zM498 1110l-199 -1110h-250l199 1110h250z" />
    <glyph glyph-name="ucircumflex.sc" horiz-adv-x="1210" 
d="M1081 1217h-221l-110 186l-177 -186h-229l287 294h270zM506 -29q-186 1 -298 97t-112 251q0 45 8 97l125 694h246l-119 -672q-6 -34 -6 -94t44 -106t144 -48q100 0 166 76t89 197l112 647h248l-121 -682q-37 -207 -167 -332t-359 -125z" />
    <glyph glyph-name="macron.cap" 
d="M694 1628h-649l27 158h651z" />
    <glyph glyph-name="oslash.sc" horiz-adv-x="1370" 
d="M1018 635q0 61 -25 125l-565 -504q78 -68 195 -68q175 0 285 134t110 313zM336 481q0 -74 26 -133l564 508q-78 68 -195 68q-172 0 -284 -132q-111 -133 -111 -311zM1274 651q0 -283 -190 -481t-476 -199q-225 0 -364 115l-160 -141l-80 92l156 139q-80 117 -80 283
q0 283 192 481t478 199q217 0 358 -115l162 143l84 -90l-162 -145q82 -117 82 -281z" />
    <glyph glyph-name="yacute.sc" horiz-adv-x="991" 
d="M965 1511l-338 -294h-191l256 294h273zM1116 1110l-541 -649l-81 -461h-246l82 465l-279 645h268l168 -448l340 448h289z" />
    <glyph glyph-name="uhungarumlaut.sc" horiz-adv-x="1210" 
d="M920 1511l-340 -294h-189l254 294h275zM1339 1511l-340 -294h-190l256 294h274zM506 -29q-186 1 -298 97t-112 251q0 45 8 97l125 694h246l-119 -672q-6 -34 -6 -94t44 -106t144 -48q100 0 166 76t89 197l112 647h248l-121 -682q-37 -207 -167 -332t-359 -125z" />
    <glyph glyph-name="omacron.sc" horiz-adv-x="1370" 
d="M1124 1280h-649l27 158h651zM1018 635q0 125 -77 207t-210 82q-172 0 -284 -132t-111 -311q0 -127 77 -210t210 -83q175 0 285 134t110 313zM1274 651q0 -283 -190 -481t-476 -199q-242 0 -385 134t-143 354q0 283 192 481t478 199q240 -1 382 -135t142 -353z" />
    <glyph glyph-name="z.sc" horiz-adv-x="1042" 
d="M1030 1110l-33 -186l-680 -719h564l-35 -205h-881l35 201l674 710h-502l37 199h821z" />
    <glyph glyph-name="questiondown.sc" horiz-adv-x="921" 
d="M496 825q-64 -1 -105 39t-41 104t45 110t111 46t106 -38t41 -104q0 -66 -46 -112q-47 -45 -111 -45zM35 254q0 170 186 289q78 47 106 78t33 73l5 29h231l-8 -55q-16 -125 -150 -217l-61 -41q-59 -41 -81 -72t-22 -72q0 -40 31 -66t80 -26q113 0 143 125l224 -39
q-29 -133 -131 -211q-101 -78 -247 -78t-243 76q-96 76 -96 207z" />
    <glyph glyph-name="idieresis.sc" horiz-adv-x="571" 
d="M754 1385q0 -62 -40 -104t-102 -42t-100 37q-39 37 -39 100q0 62 43 104t102 42t98 -37q38 -38 38 -100zM213 1522q59 0 97 -38t38 -99q0 -62 -40 -104t-101 -42t-101 37q-39 37 -38 100q0 62 43 104t102 42zM498 1110l-199 -1110h-250l199 1110h250z" />
    <glyph glyph-name="one.sc" horiz-adv-x="1071" 
d="M807 1110l-199 -1110h-243l145 811l-217 -145l-109 176l400 268h223z" />
    <glyph glyph-name="question.sc" horiz-adv-x="921" 
d="M392 285q64 1 106 -39q41 -40 41 -104t-45 -110t-111 -46t-107 38q-40 38 -40 104t46 112q46 45 110 45zM854 856q0 -170 -186 -289q-78 -47 -106 -78t-34 -73l-4 -29h-231l8 55q16 125 150 217l61 41q59 41 81 72q21 31 21 72q0 40 -30 66t-80 26q-113 0 -144 -125
l-223 39q29 133 131 211t248 78t242 -76t96 -207z" />
    <glyph glyph-name="iacute.sc" horiz-adv-x="571" 
d="M784 1511l-338 -294h-190l256 294h272zM498 1110l-199 -1110h-250l199 1110h250z" />
    <glyph glyph-name="three.sc" horiz-adv-x="1071" 
d="M930 848q0 -100 -65 -174t-158 -96v-5q81 -23 125 -87t45 -142q0 -172 -117 -272q-118 -100 -286 -100t-276 71q-108 72 -143 201l226 71q29 -139 178 -139q82 0 128 46t46 120t-50 110t-137 35h-71l31 183h71q104 0 158 43q53 43 53 105t-36 93t-89 31q-111 0 -174 -117
l-190 97q125 217 381 217q154 0 252 -80t98 -211z" />
    <glyph glyph-name="ordfeminine.sc" horiz-adv-x="778" 
d="M518 1100l-24 192l-117 -192h141zM715 874h-164l-19 119h-219l-75 -119h-181l402 592h145z" />
    <glyph glyph-name="l.sc" horiz-adv-x="909" 
d="M791 205l-35 -205h-707l199 1110h248l-160 -905h455z" />
    <glyph glyph-name="scommaaccent.sc" horiz-adv-x="968" 
d="M522 -92l-252 -400h-200l219 400h233zM553 936q-78 0 -128 -40t-50 -94t31 -81t110 -53q164 -55 238 -132t73 -198q0 -172 -125 -269t-325 -98q-274 0 -408 185l187 145q74 -123 229 -123q94 0 140 38t46 98t-42 94t-134 67q-147 49 -209 120q-61 71 -61 181
q0 164 127 263t317 100q119 0 209 -44t137 -112l-174 -145q-63 98 -188 98z" />
    <glyph glyph-name="uring.sc" horiz-adv-x="1210" 
d="M838 1409q0 49 -26 80t-74 31t-83 -39t-35 -89t26 -80q24 -28 72 -28t84 38t36 87zM938 1423q0 -89 -66 -159t-157 -70q-90 0 -143 50q-52 50 -52 138t67 158t158 70t142 -49t51 -138zM506 -29q-186 1 -298 97t-112 251q0 45 8 97l125 694h246l-119 -672q-6 -34 -6 -94
t44 -106t144 -48q100 0 166 76t89 197l112 647h248l-121 -682q-37 -207 -167 -332t-359 -125z" />
    <glyph glyph-name="i.sc" horiz-adv-x="571" 
d="M498 1110l-199 -1110h-250l199 1110h250z" />
    <glyph glyph-name="hcircumflex.sc" horiz-adv-x="1243" 
d="M1098 1217h-221l-111 186l-176 -186h-230l287 294h271zM1169 1110l-194 -1110h-248l84 473h-430l-84 -473h-248l195 1110h248l-78 -438h432l78 438h245z" />
    <glyph glyph-name="ograve.sc" horiz-adv-x="1370" 
d="M690 1511l203 -294h-184l-289 294h270zM1018 635q0 125 -77 207t-210 82q-172 0 -284 -132t-111 -311q0 -127 77 -210t210 -83q175 0 285 134t110 313zM1274 651q0 -283 -190 -481t-476 -199q-242 0 -385 134t-143 354q0 283 192 481t478 199q240 -1 382 -135t142 -353z
" />
    <glyph glyph-name="ycircumflex.sc" horiz-adv-x="991" 
d="M973 1217h-221l-111 186l-176 -186h-229l286 294h271zM1116 1110l-541 -649l-81 -461h-246l82 465l-279 645h268l168 -448l340 448h289z" />
    <glyph glyph-name="o.sc" horiz-adv-x="1370" 
d="M1018 635q0 125 -77 207t-210 82q-172 0 -284 -132t-111 -311q0 -127 77 -210t210 -83q175 0 285 134t110 313zM1274 651q0 -283 -190 -481t-476 -199q-242 0 -385 134t-143 354q0 283 192 481t478 199q240 -1 382 -135t142 -353z" />
    <glyph glyph-name="scircumflex.sc" horiz-adv-x="968" 
d="M963 1217h-222l-110 186l-176 -186h-230l287 294h270zM553 936q-78 0 -128 -40t-50 -94t31 -81t110 -53q164 -55 238 -132t73 -198q0 -172 -125 -269t-325 -98q-274 0 -408 185l187 145q74 -123 229 -123q94 0 140 38t46 98t-42 94t-134 67q-147 49 -209 120
q-61 71 -61 181q0 164 127 263t317 100q119 0 209 -44t137 -112l-174 -145q-63 98 -188 98z" />
    <glyph glyph-name="j.sc" horiz-adv-x="880" 
d="M188 324q26 -134 128 -134t130 175l129 745h246l-131 -754q-27 -156 -110 -271q-84 -114 -296 -114q-114 0 -203 76t-116 209z" />
    <glyph glyph-name="igrave.sc" horiz-adv-x="571" 
d="M295 1511l203 -294h-185l-288 294h270zM498 1110l-199 -1110h-250l199 1110h250z" />
    <glyph glyph-name="aring.sc" horiz-adv-x="1155" 
d="M860 1409q0 49 -25 80q-26 31 -74 31t-83 -39t-35 -89t25 -80q24 -28 72 -28t84 38t36 87zM737 1194q-90 0 -142 50t-52 138t66 158q67 70 158 70t142 -49t51 -138t-66 -159q-67 -70 -157 -70zM725 426l-68 410l-243 -410h311zM1055 0h-260l-41 236h-451l-145 -236h-275
l719 1110h232z" />
    <glyph glyph-name="ring.sc" 
d="M502 1409q0 49 -26 80t-74 31t-82 -39q-36 -39 -36 -89t26 -80q24 -28 72 -28t84 38t36 87zM602 1423q0 -89 -66 -159t-157 -70q-90 0 -142 50q-53 50 -53 138t67 158t158 70t142 -49t51 -138z" />
    <glyph glyph-name="hungarumlaut.sc" 
d="M575 1511l-339 -294h-189l254 294h274zM995 1511l-340 -294h-190l256 294h274z" />
    <glyph glyph-name="sterling.sc" horiz-adv-x="1071" 
d="M735 940q-143 0 -178 -205l-14 -80h245l-34 -176h-242l-47 -278h399l-37 -201h-778l35 201h137l49 278h-133l31 176h133l23 125q31 168 135 264t275 96t284 -102l-144 -164q-57 66 -139 66z" />
    <glyph glyph-name="nacute.sc" horiz-adv-x="1302" 
d="M1124 1511l-338 -294h-190l256 294h272zM1229 1110l-199 -1110h-282l-318 760h-4l-133 -760h-244l197 1110h282l320 -756h4l133 756h244z" />
    <glyph glyph-name="ubreve.sc" horiz-adv-x="1210" 
d="M393 1511h135q0 -137 189 -137q96 0 152 29t83 108h133q-37 -145 -136 -219t-247 -73q-309 0 -309 292zM506 -29q-186 1 -298 97t-112 251q0 45 8 97l125 694h246l-119 -672q-6 -34 -6 -94t44 -106t144 -48q100 0 166 76t89 197l112 647h248l-121 -682
q-37 -207 -167 -332t-359 -125z" />
    <glyph glyph-name="seven.sc" horiz-adv-x="1071" 
d="M999 1110l-36 -199l-605 -911h-282l624 905h-499l35 205h763z" />
    <glyph glyph-name="odieresis.sc" horiz-adv-x="1370" 
d="M1022 1522q59 0 97 -38t38 -99q0 -62 -40 -104t-101 -42t-101 37q-39 37 -38 100q0 62 43 104t102 42zM752 1385q0 -62 -40 -104t-102 -42t-100 37q-39 37 -39 100q0 62 43 104t102 42t98 -37q38 -38 38 -100zM1018 635q0 125 -77 207t-210 82q-172 0 -284 -132
t-111 -311q0 -127 77 -210t210 -83q175 0 285 134t110 313zM1274 651q0 -283 -190 -481t-476 -199q-242 0 -385 134t-143 354q0 283 192 481t478 199q240 -1 382 -135t142 -353z" />
    <glyph glyph-name="zcaron.sc" horiz-adv-x="1042" 
d="M1057 1511l-287 -294h-268l-180 294h223l108 -186l176 186h228zM1030 1110l-33 -186l-680 -719h564l-35 -205h-881l35 201l674 710h-502l37 199h821z" />
    <glyph glyph-name="nine.onum" horiz-adv-x="1255" 
d="M903 692q0 122 -70 190q-71 69 -176 68q-143 0 -229 -91t-86 -234q0 -104 67 -172t166 -68q145 0 237 92q91 93 91 215zM1143 696q0 -489 -813 -1071l-199 131q393 252 576 496l-7 4q-82 -49 -186 -49q-188 1 -303 111t-115 288q0 233 157 388t415 155q209 0 342 -118
t133 -335z" />
    <glyph glyph-name="germandbls.sc" horiz-adv-x="1937" 
d="M1122 301q75 -123 244 -123q80 0 126 38t46 98t-41 94t-161 76q-120 40 -182 111q-60 71 -60 181q0 164 126 263t316 100q119 0 209 -44t139 -112l-174 -145q-63 98 -190 98q-78 0 -128 -40t-50 -94t31 -81q32 -27 112 -53q161 -55 235 -132t74 -198q0 -172 -125 -269
t-323 -98q-279 0 -408 185zM553 936q-78 0 -128 -40t-50 -94t31 -81t110 -53q164 -55 238 -132t73 -198q0 -172 -125 -269t-325 -98q-274 0 -408 185l187 145q74 -123 229 -123q94 0 140 38t46 98t-42 94t-134 67q-147 49 -209 120q-61 71 -61 181q0 164 127 263t317 100
q119 0 209 -44t137 -112l-174 -145q-63 98 -188 98z" />
    <glyph glyph-name="aacute.sc" horiz-adv-x="1155" 
d="M1135 1511l-338 -294h-191l256 294h273zM725 426l-68 410l-243 -410h311zM1055 0h-260l-41 236h-451l-145 -236h-275l719 1110h232z" />
    <glyph glyph-name="q.sc" horiz-adv-x="1370" 
d="M991 649q0 121 -76 195t-206 74q-160 0 -268 -128t-107 -301q0 -133 77 -207t207 -75q160 0 267 132q106 132 106 310zM1247 670q0 -301 -225 -459v-4h233l-34 -207h-619q-238 0 -380 128t-142 347q0 276 189 470t460 194q233 0 375 -127t143 -342z" />
    <glyph glyph-name="exclamdown.sc" horiz-adv-x="636" 
d="M359 827q-65 1 -105 39t-39 102q0 64 44 112q45 46 109 46t106 -39t42 -105t-46 -110q-46 -45 -111 -45zM80 0l129 723h242l-129 -723h-242z" />
    <glyph glyph-name="jcircumflex.sc" horiz-adv-x="880" 
d="M1077 1217h-221l-111 186l-176 -186h-229l287 294h270zM188 324q26 -134 128 -134t130 175l129 745h246l-131 -754q-27 -156 -110 -271q-84 -114 -296 -114q-114 0 -203 76t-116 209z" />
    <glyph glyph-name="lacute.sc" horiz-adv-x="909" 
d="M815 1511l-338 -294h-190l256 294h272zM791 205l-35 -205h-707l199 1110h248l-160 -905h455z" />
    <glyph glyph-name="zacute.sc" horiz-adv-x="1042" 
d="M971 1511l-338 -294h-191l256 294h273zM1030 1110l-33 -186l-680 -719h564l-35 -205h-881l35 201l674 710h-502l37 199h821z" />
    <glyph glyph-name="six.onum" horiz-adv-x="1255" 
d="M883 487q0 104 -67 173t-167 69q-143 0 -235 -92q-92 -91 -92 -213t70 -192q71 -69 175 -68q143 0 230 90q86 90 86 233zM1128 506q0 -233 -158 -388t-415 -155q-207 0 -341 118t-134 335q0 485 801 1059l206 -121q-171 -109 -323 -240t-246 -252l6 -4q84 47 187 47
q188 0 303 -110q114 -111 114 -289z" />
    <glyph glyph-name="k.sc" horiz-adv-x="1153" 
d="M1214 1110l-579 -528l416 -582h-306l-354 528h-4l-90 -528h-248l199 1110h244l-84 -465h6l473 465h327z" />
    <glyph glyph-name="tcommaaccent.sc" horiz-adv-x="923" 
d="M467 -92l-252 -400h-201l219 400h234zM989 1110l-37 -199h-319l-162 -911h-246l160 911h-319l34 199h889z" />
    <glyph glyph-name="r.sc" horiz-adv-x="1089" 
d="M748 788q0 127 -175 127h-118l-52 -284h113q232 -1 232 157zM997 813q0 -268 -272 -332l231 -481h-272l-192 438h-121l-76 -438h-246l197 1110h362q190 0 290 -76t99 -221z" />
    <glyph glyph-name="lslash.sc" horiz-adv-x="909" 
d="M756 0h-705l72 412l-166 -123l39 221l166 123l86 477h246l-48 -270l250 184l-39 -219l-249 -184l-74 -416h454z" />
    <glyph glyph-name="scaron.sc" horiz-adv-x="968" 
d="M997 1511l-286 -294h-269l-180 294h223l109 -186l176 186h227zM553 936q-78 0 -128 -40t-50 -94t31 -81t110 -53q164 -55 238 -132t73 -198q0 -172 -125 -269t-325 -98q-274 0 -408 185l187 145q74 -123 229 -123q94 0 140 38t46 98t-42 94t-134 67q-147 49 -209 120
q-61 71 -61 181q0 164 127 263t317 100q119 0 209 -44t137 -112l-174 -145q-63 98 -188 98z" />
    <glyph glyph-name="icircumflex.sc" horiz-adv-x="571" 
d="M750 1217h-222l-110 186l-176 -186h-230l287 294h270zM498 1110l-199 -1110h-250l199 1110h250z" />
    <glyph glyph-name="itilde.sc" horiz-adv-x="571" 
d="M287 1481q79 0 157 -38t123 -38q68 0 109 90h135q-88 -256 -274 -256q-68 0 -150 39q-83 39 -139 39t-103 -92h-135q88 256 277 256zM498 1110l-199 -1110h-250l199 1110h250z" />
    <glyph glyph-name="s.sc" horiz-adv-x="968" 
d="M553 936q-78 0 -128 -40t-50 -94t31 -81t110 -53q164 -55 238 -132t73 -198q0 -172 -125 -269t-325 -98q-274 0 -408 185l187 145q74 -123 229 -123q94 0 140 38t46 98t-42 94t-134 67q-147 49 -209 120q-61 71 -61 181q0 164 127 263t317 100q119 0 209 -44t137 -112
l-174 -145q-63 98 -188 98z" />
    <glyph glyph-name="hbar.sc" horiz-adv-x="1243" 
d="M412 664h432l26 155h-432zM1169 1110l-194 -1110h-248l84 473h-430l-84 -473h-248l195 1110h248l-31 -168h432l31 168h245z" />
    <glyph glyph-name="y.sc" horiz-adv-x="991" 
d="M1116 1110l-541 -649l-81 -461h-246l82 465l-279 645h268l168 -448l340 448h289z" />
    <glyph glyph-name="kcommaaccent.sc" horiz-adv-x="1153" 
d="M616 -92l-251 -400h-201l219 400h233zM1214 1110l-579 -528l416 -582h-306l-354 528h-4l-90 -528h-248l199 1110h244l-84 -465h6l473 465h327z" />
    <glyph glyph-name="zdotaccent.sc" horiz-adv-x="1042" 
d="M795 1383q0 -62 -42 -106q-41 -44 -103 -44t-103 38t-41 102q0 63 45 107t104 44t100 -39q40 -40 40 -102zM1030 1110l-33 -186l-680 -719h564l-35 -205h-881l35 201l674 710h-502l37 199h821z" />
    <glyph glyph-name="exclam.sc" horiz-adv-x="636" 
d="M241 283q65 -1 105 -39t39 -102q0 -64 -44 -112q-45 -46 -109 -46t-106 39t-42 105t46 110q46 45 111 45zM520 1110l-129 -723h-241l129 723h241z" />
    <glyph glyph-name="a.sc" horiz-adv-x="1155" 
d="M725 426l-68 410l-243 -410h311zM1055 0h-260l-41 236h-451l-145 -236h-275l719 1110h232z" />
    <glyph glyph-name="h.sc" horiz-adv-x="1243" 
d="M1169 1110l-194 -1110h-248l84 473h-430l-84 -473h-248l195 1110h248l-78 -438h432l78 438h245z" />
    <glyph glyph-name="m.sc" horiz-adv-x="1533" 
d="M1460 1110l-194 -1110h-242l141 770h-6l-424 -770h-166l-145 772h-4l-135 -772h-236l197 1110h325l146 -750h6l403 750h334z" />
    <glyph glyph-name="tilde.sc" 
d="M262 1481q80 0 158 -38t123 -38q68 0 108 90h135q-88 -256 -274 -256q-68 0 -150 39t-138 39t-103 -92h-135q88 256 276 256z" />
    <glyph glyph-name="grave.cap" 
d="M301 1860l203 -295h-185l-288 295h270z" />
    <glyph glyph-name="seven.onum" horiz-adv-x="1099" 
d="M1094 1118l-37 -209q-496 -737 -809 -1282l-248 62q354 573 791 1214h-668l37 215h934z" />
    <glyph glyph-name="tbar.sc" horiz-adv-x="923" 
d="M805 717l-29 -154h-205l-100 -563h-246l99 563h-209l28 154h207l35 194h-319l34 199h889l-37 -199h-319l-35 -194h207z" />
    <glyph glyph-name="acute.cap" 
d="M788 1860l-337 -295h-191l256 295h272z" />
    <glyph glyph-name="wcircumflex.sc" horiz-adv-x="1642" 
d="M1294 1217h-221l-110 186l-177 -186h-229l287 294h270zM1731 1110l-545 -1110h-258l-82 768h-2l-373 -768h-258l-121 1110h256l62 -776h6l362 776h252l76 -776h4l354 776h267z" />
    <glyph glyph-name="ebreve.sc" horiz-adv-x="1028" 
d="M446 1511q0 -137 189 -137q96 0 152 29t83 108h134q-36 -145 -136 -219t-247 -73q-309 0 -310 292h135zM981 1110l-35 -197h-491l-45 -249h467l-33 -189h-467l-49 -274h532l-35 -201h-776l199 1110h733z" />
    <glyph glyph-name="ncommaaccent.sc" horiz-adv-x="1302" 
d="M662 -92l-252 -400h-201l219 400h234zM1229 1110l-199 -1110h-282l-318 760h-4l-133 -760h-244l197 1110h282l320 -756h4l133 756h244z" />
    <glyph glyph-name="three.onum" horiz-adv-x="1126" 
d="M570 559q70 0 153 -35q82 -35 145 -122t64 -212q0 -252 -190 -395t-494 -143q-131 0 -232 20l43 213q80 -20 189 -20q186 0 309 80t123 225q0 111 -79 169t-193 58t-236 -30l-14 176q264 160 549 362l2 8h-523l37 205h815l-39 -217q-174 -137 -503 -340l-2 -8q6 6 76 6z
" />
    <glyph glyph-name="one.onum" horiz-adv-x="856" 
d="M684 1118l-197 -1118h-241l147 829l-211 -141l-106 174l387 256h221z" />
    <glyph glyph-name="ntilde.sc" horiz-adv-x="1302" 
d="M657 1481q80 0 158 -38t123 -38q68 0 109 90h135q-88 -256 -275 -256q-67 0 -149 39t-131 39q-66 0 -111 -92h-135q88 256 276 256zM1229 1110l-199 -1110h-282l-318 760h-4l-133 -760h-244l197 1110h282l320 -756h4l133 756h244z" />
    <glyph glyph-name="w.sc" horiz-adv-x="1642" 
d="M1731 1110l-545 -1110h-258l-82 768h-2l-373 -768h-258l-121 1110h256l62 -776h6l362 776h252l76 -776h4l354 776h267z" />
    <glyph glyph-name="acute.sc" 
d="M788 1511l-337 -294h-191l256 294h272z" />
    <glyph glyph-name="four.sc" horiz-adv-x="1071" 
d="M659 868h-4l-338 -448h256zM954 420l-34 -197h-154l-39 -223h-227l41 223h-504l39 211l547 676h299l-121 -690h153z" />
    <glyph glyph-name="Euro.sc" horiz-adv-x="1071" 
d="M783 940q-101 0 -175 -45t-110 -131h397l-72 -152h-381q-18 -66 -18 -114h358l-73 -152h-283q8 -84 70 -131t164 -47q104 0 198 51l43 -184q-102 -63 -284 -63q-181 0 -299 104q-118 106 -128 270h-149l74 152h78q4 61 18 114h-125l76 152h90q150 375 536 375
q148 -1 259 -56l-91 -190q-72 47 -173 47z" />
    <glyph glyph-name="dotaccent.cap" 
d="M397 1872q59 0 99 -39t41 -101q0 -62 -42 -106q-41 -44 -103 -45q-62 0 -103 38t-41 102q0 63 45 107t104 44z" />
    <glyph glyph-name="aogonek.sc" horiz-adv-x="1155" 
d="M725 426l-68 410l-243 -410h311zM674 -326q0 145 258 326h-137l-41 236h-451l-145 -236h-275l719 1110h232l221 -1110q-215 -174 -215 -285q0 -72 82 -71q57 0 114 43l33 -99q-113 -78 -217 -77q-178 0 -178 163z" />
    <glyph glyph-name="five.onum" horiz-adv-x="1126" 
d="M500 604q188 0 307 -102t119 -287q0 -250 -168 -408t-492 -157q-141 0 -243 20l40 213q80 -20 187 -20q186 0 304 77t118 253q0 117 -78 172t-207 55t-262 -37l188 735h760l-39 -215h-545l-88 -307q47 8 99 8z" />
    <glyph glyph-name="florin.sc" horiz-adv-x="1071" 
d="M848 934q-76 0 -119 -113l-43 -123h225l-30 -174h-252l-137 -381q-60 -169 -142 -243t-210 -74t-212 55l103 174q49 -33 98 -33t78 34t59 120l127 348h-209l31 174h234l65 176q98 262 346 263q117 0 207 -68l-121 -170q-47 35 -98 35z" />
    <glyph glyph-name="atilde.sc" horiz-adv-x="1155" 
d="M618 1481q80 0 158 -38t123 -38q68 0 109 90h135q-88 -256 -275 -256q-68 0 -150 39t-138 39t-103 -92h-135q88 256 276 256zM725 426l-68 410l-243 -410h311zM1055 0h-260l-41 236h-451l-145 -236h-275l719 1110h232z" />
    <glyph glyph-name="dollar.sc" horiz-adv-x="1071" 
d="M657 322q0 88 -90 120l-47 -258q59 4 98 42t39 96zM414 793q0 -78 92 -109l43 238q-61 -4 -98 -40t-37 -89zM889 346q1 -152 -103 -248t-299 -102l-20 -117h-111l21 117q-90 4 -182 49t-142 111l178 137q61 -96 179 -107l53 289q-139 49 -206 116t-67 197t106 222
q106 94 282 100l18 109h113l-19 -111q177 -15 275 -121l-168 -145q-53 68 -140 78l-49 -267q141 -53 211 -124t70 -183z" />
    <glyph glyph-name="ccedilla.sc" horiz-adv-x="1187" 
d="M745 -283q0 -109 -91 -159q-90 -50 -212 -50t-215 54l56 98q72 -41 159 -41q133 0 133 84q0 74 -96 74q-41 0 -82 -13l-37 52l140 161q-196 27 -308 155t-112 325q0 289 191 485t475 197q284 0 417 -176l-192 -158q-74 119 -240 119q-167 0 -279 -130t-112 -311
q0 -127 75 -211t203 -84q166 0 287 136l150 -156q-172 -190 -443 -197l-92 -104q18 4 41 4q70 0 127 -37t57 -117z" />
    <glyph glyph-name="gbreve.sc" horiz-adv-x="1265" 
d="M436 1511h135q0 -137 189 -137q96 0 152 29t83 108h133q-37 -145 -136 -219t-247 -73q-309 0 -309 292zM729 922q-163 0 -277 -129t-114 -314q0 -125 78 -208t204 -83t201 39l39 222h-219l31 184h458l-98 -557q-198 -104 -432 -104t-377 132q-143 133 -143 351
q0 291 191 487t475 197q284 0 417 -176l-190 -160q-82 119 -244 119z" />
    <glyph glyph-name="lcaron.sc" horiz-adv-x="944" 
d="M985 1110l-252 -399h-201l220 399h233zM791 205l-35 -205h-707l199 1110h248l-160 -905h455z" />
    <glyph glyph-name="racute.sc" horiz-adv-x="1089" 
d="M985 1511l-338 -294h-190l256 294h272zM748 788q0 127 -175 127h-118l-52 -284h113q232 -1 232 157zM997 813q0 -268 -272 -332l231 -481h-272l-192 438h-121l-76 -438h-246l197 1110h362q190 0 290 -76t99 -221z" />
    <glyph glyph-name="dcroat.sc" horiz-adv-x="1269" 
d="M487 203q205 1 318 117t113 292q0 131 -79 214t-239 83h-145l-43 -241h245l-30 -166h-244l-53 -299h157zM643 1110q212 0 365 -111q76 -55 120 -148t46 -212q0 -287 -194 -463t-488 -176h-443l88 502h-131l31 166h131l78 442h397z" />
    <glyph glyph-name="four.onum" horiz-adv-x="1214" 
d="M1114 203l-37 -203h-215l-61 -348h-232l62 348h-645l37 215l704 934h272l-723 -946h386l81 473h230l-82 -473h223z" />
    <glyph glyph-name="tilde.cap" 
d="M262 1829q80 0 158 -38t123 -38q68 0 108 90h135q-88 -256 -274 -256q-68 0 -150 39t-138 39t-103 -92h-135q88 256 276 256z" />
    <glyph glyph-name="utilde.sc" horiz-adv-x="1210" 
d="M606 1481q80 0 158 -38t123 -38q68 0 108 90h135q-88 -256 -274 -256q-68 0 -150 39t-138 39t-103 -92h-135q88 256 276 256zM506 -29q-186 1 -298 97t-112 251q0 45 8 97l125 694h246l-119 -672q-6 -34 -6 -94t44 -106t144 -48q100 0 166 76t89 197l112 647h248
l-121 -682q-37 -207 -167 -332t-359 -125z" />
    <glyph glyph-name="acircumflex.sc" horiz-adv-x="1155" 
d="M1104 1217h-221l-111 186l-176 -186h-229l286 294h271zM725 426l-68 410l-243 -410h311zM1055 0h-260l-41 236h-451l-145 -236h-275l719 1110h232z" />
    <glyph glyph-name="fi.sc" horiz-adv-x="1558" 
d="M969 1110l-35 -197h-477l-47 -270h444l-33 -194h-444l-80 -449h-248l197 1110h723zM1485 1110l-199 -1110h-248l199 1110h248z" />
    <glyph glyph-name="ldot.sc" horiz-adv-x="909" 
d="M840 646q0 -62 -42 -106t-104 -44t-102 38q-41 38 -41 102t45 107t104 43t100 -38q40 -40 40 -102zM791 205l-35 -205h-707l199 1110h248l-160 -905h455z" />
    <glyph glyph-name="zero.sc" horiz-adv-x="1071" 
d="M713 704q0 223 -129 226q-102 0 -180 -173t-78 -373t127 -200q68 0 129 80t96 205t35 235zM961 737q0 -264 -119 -500q-60 -118 -164 -192t-236 -74q-184 0 -274 108t-90 306t85 407q85 208 244 297q89 50 195 50q180 0 270 -111t89 -291z" />
    <glyph glyph-name="b.sc" horiz-adv-x="1087" 
d="M713 360q0 58 -44 90t-122 31h-170l-51 -286h143q244 -1 244 165zM748 807q0 109 -154 108h-141l-45 -256h157q71 0 127 37t56 111zM991 852q0 -96 -52 -167t-151 -103v-4q166 -50 166 -222t-134 -264t-355 -92h-416l197 1110h399q158 0 252 -66t94 -192z" />
    <glyph glyph-name="caron.cap" 
d="M778 1860l-286 -295h-269l-180 295h223l109 -187l176 187h227z" />
    <glyph glyph-name="two.sc" horiz-adv-x="1071" 
d="M606 1139q156 -1 253 -85t97 -211t-58 -209t-187 -185l-312 -246h469l-37 -203h-792l35 197l497 405q139 115 140 211q0 55 -34 88q-35 33 -97 33t-113 -44t-76 -122l-219 51q49 152 164 236q114 84 270 84z" />
    <glyph glyph-name="dotaccent.sc" 
d="M537 1383q0 -62 -42 -106q-41 -44 -103 -44t-103 38t-41 102q0 63 45 107t104 44t100 -39q40 -40 40 -102z" />
    <glyph glyph-name="yen.sc" horiz-adv-x="1071" 
d="M1118 1114l-393 -491h180l-26 -158h-258l-19 -109h258l-26 -159h-259l-34 -197h-230l35 197h-258l27 159h258l20 109h-258l27 158h200l-225 491h248l166 -424l305 424h262z" />
    <glyph glyph-name="scedilla.sc" horiz-adv-x="968" 
d="M561 -283q0 -109 -91 -159t-213 -50t-214 54l55 98q72 -41 160 -41q133 0 133 84q0 74 -96 74q-41 0 -82 -13l-37 52l137 159q-231 20 -344 181l187 145q74 -123 229 -123q94 0 140 38t46 98t-42 94t-134 67q-147 49 -209 120q-61 71 -61 181q0 164 127 263t317 100
q119 0 209 -44t137 -112l-174 -145q-63 98 -188 98q-78 0 -128 -40t-50 -94t31 -81t110 -53q164 -55 238 -132t73 -198q1 -160 -109 -256t-290 -109l-92 -106q18 4 41 4q70 0 127 -37t57 -117z" />
    <glyph glyph-name="cent.sc" horiz-adv-x="1071" 
d="M375 430q0 -94 41 -164t129 -86l112 627q-123 -20 -203 -129t-79 -248zM801 1006q211 -20 299 -162l-172 -139q-49 84 -162 104l-113 -637q123 10 224 111l137 -140q-170 -168 -396 -170l-24 -143h-111l29 152q-172 26 -273 138t-102 279q0 236 155 413t400 196l23 135
h110z" />
    <glyph glyph-name="uogonek.sc" horiz-adv-x="1210" 
d="M258 -326q0 135 219 299q-176 9 -278 103t-103 243q0 45 8 97l125 694h246l-119 -672q-6 -34 -6 -94t44 -106t144 -48q100 0 166 76t89 197l112 647h248l-121 -682q-33 -182 -136 -301t-282 -147q-190 -156 -190 -265q0 -72 82 -71q57 0 115 43l32 -99q-113 -78 -217 -77
q-178 0 -178 163z" />
    <glyph glyph-name="emacron.sc" horiz-adv-x="1028" 
d="M961 1280h-650l27 158h651zM981 1110l-35 -197h-491l-45 -249h467l-33 -189h-467l-49 -274h532l-35 -201h-776l199 1110h733z" />
    <glyph glyph-name="rcaron.sc" horiz-adv-x="1089" 
d="M1036 1511l-286 -294h-269l-180 294h223l109 -186l176 186h227zM748 788q0 127 -175 127h-118l-52 -284h113q232 -1 232 157zM997 813q0 -268 -272 -332l231 -481h-272l-192 438h-121l-76 -438h-246l197 1110h362q190 0 290 -76t99 -221z" />
    <glyph glyph-name="eth.sc" horiz-adv-x="1269" 
d="M487 203q205 1 318 117t113 292q0 131 -79 214t-239 83h-145l-43 -241h245l-30 -166h-244l-53 -299h157zM643 1110q212 0 365 -111q76 -55 120 -148t46 -212q0 -287 -194 -463t-488 -176h-443l88 502h-131l31 166h131l78 442h397z" />
    <glyph glyph-name="ampersand.sc" horiz-adv-x="1282" 
d="M289 295q0 -65 42 -97t105 -32q107 0 191 90l-178 221q-160 -59 -160 -182zM696 862q0 43 -25 71q-26 28 -73 28t-80 -34q-33 -33 -33 -99t56 -128q155 60 155 162zM412 -31q-158 0 -258 81t-101 222q0 244 287 355q-70 89 -70 215t94 212t237 87q142 0 226 -70t84 -188
q0 -205 -264 -318l127 -153l129 178h266l-260 -324l219 -266h-294l-84 104q-139 -135 -338 -135z" />
    <glyph glyph-name="eight.onum" horiz-adv-x="1255" 
d="M854 434q0 110 -61 171t-178 61t-204 -81t-87 -193t65 -173q66 -59 164 -59q139 0 220 82t81 192zM930 1096q0 94 -56 145t-155 51q-100 0 -169 -70t-69 -163q-1 -93 53 -147t152 -54t171 72t73 166zM1161 1148q0 -158 -85 -254t-210 -134l2 -4q96 -31 160 -114t64 -193
q0 -225 -157 -355t-392 -131q-184 0 -320 98q-135 98 -135 293q0 162 102 276t248 144v6q-82 37 -131 109t-49 164q0 197 142 315t332 119q190 0 309 -91q120 -90 120 -248z" />
    <glyph glyph-name="ncaron.sc" horiz-adv-x="1302" 
d="M1167 1511l-286 -294h-269l-180 294h223l109 -186l176 186h227zM1229 1110l-199 -1110h-282l-318 760h-4l-133 -760h-244l197 1110h282l320 -756h4l133 756h244z" />
    <glyph glyph-name="x.sc" horiz-adv-x="1124" 
d="M1180 1110l-482 -537l283 -573h-283l-178 397l-336 -397h-307l526 586l-256 524h279l158 -360l297 360h299z" />
    <glyph glyph-name="breve.sc" 
d="M199 1511q0 -137 188 -137q96 0 153 29q56 29 83 108h133q-37 -145 -136 -219t-247 -73q-309 0 -310 292h136z" />
    <glyph glyph-name="fl.sc" horiz-adv-x="1896" 
d="M969 1110l-35 -197h-477l-47 -270h444l-33 -194h-444l-80 -449h-248l197 1110h723zM1778 199l-33 -199h-707l197 1110h250l-162 -911h455z" />
    <glyph glyph-name="dcaron.sc" horiz-adv-x="1269" 
d="M1092 1511l-287 -294h-268l-181 294h224l108 -186l176 186h228zM918 616q0 129 -80 211t-238 82h-145l-125 -706h159q203 1 316 119t113 294zM1174 641q0 -289 -192 -465t-493 -176h-440l197 1110h395q310 0 454 -200q79 -109 79 -269z" />
    <glyph glyph-name="agrave.sc" horiz-adv-x="1155" 
d="M625 1511l202 -294h-184l-289 294h271zM725 426l-68 410l-243 -410h311zM1055 0h-260l-41 236h-451l-145 -236h-275l719 1110h232z" />
    <glyph glyph-name="rcommaaccent.sc" horiz-adv-x="1089" 
d="M584 -92l-252 -400h-201l219 400h234zM748 788q0 127 -175 127h-118l-52 -284h113q232 -1 232 157zM997 813q0 -268 -272 -332l231 -481h-272l-192 438h-121l-76 -438h-246l197 1110h362q190 0 290 -76t99 -221z" />
    <glyph glyph-name="u.sc" horiz-adv-x="1210" 
d="M506 -29q-186 1 -298 97t-112 251q0 45 8 97l125 694h246l-119 -672q-6 -34 -6 -94t44 -106t144 -48q100 0 166 76t89 197l112 647h248l-121 -682q-37 -207 -167 -332t-359 -125z" />
    <glyph glyph-name="uacute.sc" horiz-adv-x="1210" 
d="M1094 1511l-338 -294h-191l256 294h273zM506 -29q-186 1 -298 97t-112 251q0 45 8 97l125 694h246l-119 -672q-6 -34 -6 -94t44 -106t144 -48q100 0 166 76t89 197l112 647h248l-121 -682q-37 -207 -167 -332t-359 -125z" />
    <glyph glyph-name="zero.onum" horiz-adv-x="1406" 
d="M1034 637q0 127 -79 212t-214 85q-175 0 -287 -133t-112 -314q0 -129 79 -215t214 -86q178 0 289 132q110 133 110 319zM1284 657q0 -287 -189 -487t-477 -201q-242 0 -384 136t-142 358q0 287 192 487t476 199q240 1 382 -135t142 -357z" />
    <glyph glyph-name="eacute.sc" horiz-adv-x="1028" 
d="M1032 1511l-338 -294h-190l256 294h272zM981 1110l-35 -197h-491l-45 -249h467l-33 -189h-467l-49 -274h532l-35 -201h-776l199 1110h733z" />
    <glyph glyph-name="dotlessj" horiz-adv-x="546" 
d="M-118 -492q-82 0 -132 13l47 205q27 -8 66 -9q79 -1 113 53t53 156l186 1057h242l-185 -1049q-30 -181 -112 -298q-45 -62 -121 -95q-75 -33 -157 -33z" />
    <glyph glyph-name="eight.sc" horiz-adv-x="1071" 
d="M655 337q0 73 -41 112q-42 39 -116 39t-128 -52q-54 -51 -54 -125q0 -75 42 -111q43 -36 119 -36t127 50t51 123zM717 826q0 64 -37 95q-36 31 -100 31t-107 -43t-43 -102t35 -92t97 -33t109 40q46 40 46 104zM593 1139q151 0 253 -70t102 -194q0 -125 -64 -197
t-155 -100v-5q70 -25 118 -88t48 -145q0 -166 -125 -267q-126 -101 -296 -101t-286 74q-115 75 -114 235q0 121 78 207t184 108v6q-131 70 -131 218t118 234q118 85 270 85z" />
    <glyph glyph-name="dieresis.sc" 
d="M594 1522q59 0 97 -38t38 -99q0 -62 -40 -104t-101 -42t-101 37q-39 37 -38 100q0 62 43 104t102 42zM324 1385q0 -62 -40 -104t-102 -42t-100 37q-39 37 -39 100q0 62 43 104t102 42t98 -37q38 -38 38 -100z" />
    <glyph glyph-name="edieresis.sc" horiz-adv-x="1028" 
d="M700 1376q0 62 43 104t103 42t97 -38q38 -38 38 -99q0 -62 -40 -104t-101 -42t-101 37q-39 37 -39 100zM575 1385q1 -62 -39 -104t-102 -42t-100 37q-39 37 -39 100q0 62 43 104t102 42t98 -37q37 -38 37 -100zM981 1110l-35 -197h-491l-45 -249h467l-33 -189h-467
l-49 -274h532l-35 -201h-776l199 1110h733z" />
    <glyph glyph-name="caron.alt" 
d="M571 1450l-252 -399h-200l219 399h233z" />
    <glyph glyph-name="amacron.sc" horiz-adv-x="1155" 
d="M1059 1280h-649l26 158h651zM725 426l-68 410l-243 -410h311zM1055 0h-260l-41 236h-451l-145 -236h-275l719 1110h232z" />
    <glyph glyph-name="ccircumflex.sc" horiz-adv-x="1187" 
d="M1151 1217h-221l-111 186l-176 -186h-229l286 294h271zM731 924q-167 0 -279 -130t-112 -311q0 -127 75 -211t203 -84q166 0 287 136l150 -156q-174 -197 -461 -197q-233 0 -374 133q-140 133 -140 353q0 289 191 485t474 197q283 0 418 -176l-192 -158q-74 119 -240 119
z" />
    <glyph glyph-name="g.sc" horiz-adv-x="1265" 
d="M729 922q-163 0 -277 -129t-114 -314q0 -125 78 -208t204 -83t201 39l39 222h-219l31 184h458l-98 -557q-198 -104 -432 -104t-377 132q-143 133 -143 351q0 291 191 487t475 197q284 0 417 -176l-190 -160q-82 119 -244 119z" />
    <glyph glyph-name="ecaron.sc" horiz-adv-x="1028" 
d="M1047 1511l-287 -294h-268l-181 294h224l108 -186l176 186h228zM981 1110l-35 -197h-491l-45 -249h467l-33 -189h-467l-49 -274h532l-35 -201h-776l199 1110h733z" />
    <glyph glyph-name="eogonek.sc" horiz-adv-x="1028" 
d="M408 -326q0 145 258 326h-617l199 1110h733l-35 -197h-491l-45 -249h467l-33 -189h-467l-49 -274h532l-35 -201h-37q-215 -174 -215 -285q0 -72 82 -71q57 0 115 43l33 -99q-113 -78 -217 -77q-178 0 -178 163z" />
    <glyph glyph-name="lcommaaccent.sc" horiz-adv-x="909" 
d="M518 -92l-252 -400h-200l219 400h233zM791 205l-35 -205h-707l199 1110h248l-160 -905h455z" />
    <glyph glyph-name="ae.sc" horiz-adv-x="1742" 
d="M928 911l-21 2l-360 -469h297zM1696 1110l-35 -197h-492l-43 -249h467l-34 -189h-465l-52 -274h533l-35 -201h-774l45 256h-399l-199 -256h-287l873 1110h897z" />
    <glyph glyph-name="ccaron.sc" horiz-adv-x="1187" 
d="M1174 1511l-287 -294h-269l-180 294h224l108 -186l176 186h228zM731 924q-167 0 -279 -130t-112 -311q0 -127 75 -211t203 -84q166 0 287 136l150 -156q-174 -197 -461 -197q-233 0 -374 133q-140 133 -140 353q0 289 191 485t474 197q283 0 418 -176l-192 -158
q-74 119 -240 119z" />
    <glyph glyph-name="v.sc" horiz-adv-x="1071" 
d="M1171 1110l-677 -1110h-238l-174 1110h256l100 -799h4l465 799h264z" />
    <glyph glyph-name="thorn.sc" horiz-adv-x="1052" 
d="M539 463q217 0 217 145q0 63 -39 94t-131 31h-158l-47 -270h158zM627 936q375 0 374 -303q0 -365 -464 -365h-193l-47 -268h-246l197 1110h246l-31 -174h164z" />
    <glyph glyph-name="ring.cap" 
d="M502 1757q0 49 -26 80t-74 31t-82 -39q-36 -39 -36 -89t26 -79q24 -29 72 -29t84 38t36 87zM602 1771q0 -89 -66 -159t-157 -70q-90 0 -142 50q-53 50 -53 138t67 158t158 70t142 -49t51 -138z" />
    <glyph glyph-name="e.sc" horiz-adv-x="1028" 
d="M981 1110l-35 -197h-491l-45 -249h467l-33 -189h-467l-49 -274h532l-35 -201h-776l199 1110h733z" />
    <glyph glyph-name="abreve.sc" horiz-adv-x="1155" 
d="M537 1511q0 -137 188 -137q96 0 153 29q56 29 83 108h133q-36 -145 -136 -219t-247 -73q-309 0 -310 292h136zM725 426l-68 410l-243 -410h311zM1055 0h-260l-41 236h-451l-145 -236h-275l719 1110h232z" />
    <glyph glyph-name="adieresis.sc" horiz-adv-x="1155" 
d="M815 1376q0 62 43 104q42 42 102 42t98 -38t38 -99q0 -62 -40 -104t-102 -42t-100 37q-39 37 -39 100zM555 1522q59 0 97 -38t38 -99q0 -62 -40 -104t-101 -42t-100 37t-39 100q0 62 43 104t102 42zM725 426l-68 410l-243 -410h311zM1055 0h-260l-41 236h-451l-145 -236
h-275l719 1110h232z" />
    <glyph glyph-name="five.sc" horiz-adv-x="1071" 
d="M553 723q145 0 243 -85t99 -243q0 -197 -125 -311t-315 -113q-150 0 -253 70t-147 190l219 82q20 -67 72 -103t126 -36q73 0 125 55t52 141t-50 128q-50 43 -136 43q-139 0 -283 -80l133 649h633l-37 -201h-422l-45 -202q55 16 111 16z" />
    <glyph glyph-name="ecircumflex.sc" horiz-adv-x="1028" 
d="M993 1217h-221l-110 186l-177 -186h-229l287 294h270zM981 1110l-35 -197h-491l-45 -249h467l-33 -189h-467l-49 -274h532l-35 -201h-776l199 1110h733z" />
    <glyph glyph-name="circumflex.cap" 
d="M727 1565h-221l-111 186l-176 -186h-229l286 295h271z" />
    <glyph glyph-name="commaaccent" 
d="M442 -92l-252 -400h-200l219 400h233z" />
    <glyph glyph-name="cacute.sc" horiz-adv-x="1187" 
d="M1135 1511l-338 -294h-191l256 294h273zM731 924q-167 0 -279 -130t-112 -311q0 -127 75 -211t203 -84q166 0 287 136l150 -156q-174 -197 -461 -197q-233 0 -374 133q-140 133 -140 353q0 289 191 485t474 197q283 0 418 -176l-192 -158q-74 119 -240 119z" />
    <glyph glyph-name="breve.cap" 
d="M199 1860q0 -137 188 -138q96 0 153 29q56 29 83 109h133q-37 -146 -136 -220t-247 -73q-309 0 -310 293h136z" />
    <glyph glyph-name="edotaccent.sc" horiz-adv-x="1028" 
d="M788 1383q0 -62 -42 -106t-103 -44t-102 38t-41 102q0 63 45 107t104 44t100 -39q39 -40 39 -102zM981 1110l-35 -197h-491l-45 -249h467l-33 -189h-467l-49 -274h532l-35 -201h-776l199 1110h733z" />
    <glyph glyph-name="six.sc" horiz-adv-x="1071" 
d="M479 170q81 0 137 58t56 141q0 82 -45 127t-124 45q-79 1 -138 -59t-59 -139t46 -126q47 -47 127 -47zM915 391q-1 -174 -125 -297t-314 -123q-190 -1 -302 93q-111 94 -111 272q1 106 51 204t144 214l295 356h305l-373 -410l2 -6q37 18 103 19q145 1 235 -91t90 -231z
" />
    <glyph glyph-name="egrave.sc" horiz-adv-x="1028" 
d="M551 1511l203 -294h-185l-288 294h270zM981 1110l-35 -197h-491l-45 -249h467l-33 -189h-467l-49 -274h532l-35 -201h-776l199 1110h733z" />
    <glyph glyph-name="c.sc" horiz-adv-x="1187" 
d="M731 924q-167 0 -279 -130t-112 -311q0 -127 75 -211t203 -84q166 0 287 136l150 -156q-174 -197 -461 -197q-233 0 -374 133q-140 133 -140 353q0 289 191 485t474 197q283 0 418 -176l-192 -158q-74 119 -240 119z" />
    <glyph glyph-name="circumflex.sc" 
d="M727 1217h-221l-111 186l-176 -186h-229l286 294h271z" />
    <glyph glyph-name="t.sc" horiz-adv-x="923" 
d="M989 1110l-37 -199h-319l-162 -911h-246l160 911h-319l34 199h889z" />
    <glyph glyph-name="dieresis.cap" 
d="M729 1734q0 -62 -40 -104t-101 -43q-61 0 -101 37q-39 37 -38 100q0 62 43 104t102 42t97 -37t38 -99zM188 1870q60 0 98 -37t38 -99t-40 -104t-102 -43q-62 0 -100 37q-39 37 -39 100q0 62 43 104t102 42z" />
    <glyph glyph-name="sacute.sc" horiz-adv-x="968" 
d="M934 1511l-338 -294h-190l256 294h272zM553 936q-78 0 -128 -40t-50 -94t31 -81t110 -53q164 -55 238 -132t73 -198q0 -172 -125 -269t-325 -98q-274 0 -408 185l187 145q74 -123 229 -123q94 0 140 38t46 98t-42 94t-134 67q-147 49 -209 120q-61 71 -61 181
q0 164 127 263t317 100q119 0 209 -44t137 -112l-174 -145q-63 98 -188 98z" />
    <glyph glyph-name="caron.sc" 
d="M778 1511l-286 -294h-269l-180 294h223l109 -186l176 186h227z" />
    <glyph glyph-name="d.sc" horiz-adv-x="1269" 
d="M918 616q0 129 -80 211t-238 82h-145l-125 -706h159q203 1 316 119t113 294zM1174 641q0 -289 -192 -465t-493 -176h-440l197 1110h395q310 0 454 -200q79 -109 79 -269z" />
    <glyph glyph-name="cdotaccent.sc" horiz-adv-x="1187" 
d="M643 1373q0 63 45 107q44 44 104 44t100 -40t40 -101q0 -62 -42 -106t-104 -44t-102 38q-41 38 -41 102zM731 924q-167 0 -279 -130t-112 -311q0 -127 75 -211t203 -84q166 0 287 136l150 -156q-174 -197 -461 -197q-233 0 -374 133q-140 133 -140 353q0 289 191 485
t474 197q283 0 418 -176l-192 -158q-74 119 -240 119z" />
    <glyph glyph-name="f.sc" horiz-adv-x="987" 
d="M969 1110l-35 -197h-477l-47 -270h444l-33 -194h-444l-80 -449h-248l197 1110h723z" />
    <glyph glyph-name="commaaccent.alt" 
d="M131 1155l252 399h201l-219 -399h-234z" />
    <glyph glyph-name="tcaron.sc" horiz-adv-x="923" 
d="M975 1511l-287 -294h-268l-180 294h223l108 -186l177 186h227zM989 1110l-37 -199h-319l-162 -911h-246l160 911h-319l34 199h889z" />
    <glyph glyph-name="gdotaccent.sc" horiz-adv-x="1265" 
d="M641 1373q0 63 45 107q44 44 104 44t100 -40t40 -101q0 -62 -42 -106t-104 -44t-102 38q-41 38 -41 102zM729 922q-163 0 -277 -129t-114 -314q0 -125 78 -208t204 -83t201 39l39 222h-219l31 184h458l-98 -557q-198 -104 -432 -104t-377 132q-143 133 -143 351
q0 291 191 487t475 197q284 0 417 -176l-190 -160q-82 119 -244 119z" />
    <glyph glyph-name="gcommaaccent.sc" horiz-adv-x="1265" 
d="M692 -92l-252 -400h-200l219 400h233zM729 922q-163 0 -277 -129t-114 -314q0 -125 78 -208t204 -83t201 39l39 222h-219l31 184h458l-98 -557q-198 -104 -432 -104t-377 132q-143 133 -143 351q0 291 191 487t475 197q284 0 417 -176l-190 -160q-82 119 -244 119z" />
    <glyph glyph-name="gcircumflex.sc" horiz-adv-x="1265" 
d="M1133 1217h-222l-110 186l-176 -186h-230l287 294h270zM729 922q-163 0 -277 -129t-114 -314q0 -125 78 -208t204 -83t201 39l39 222h-219l31 184h458l-98 -557q-198 -104 -432 -104t-377 132q-143 133 -143 351q0 291 191 487t475 197q284 0 417 -176l-190 -160
q-82 119 -244 119z" />
    </font>
</defs>
</svg>
